<svg width="112" height="113" viewBox="0 0 112 113" fill="none" xmlns="http://www.w3.org/2000/svg">
<path d="M78.2785 34.5976C78.1195 34.7934 77.9496 34.9801 77.7696 35.1568C77.7503 35.1798 77.738 35.2079 77.7342 35.2377C77.7304 35.2676 77.7353 35.2979 77.7483 35.325C77.7613 35.3521 77.7818 35.3749 77.8074 35.3907C77.833 35.4065 77.8626 35.4146 77.8927 35.414C78.5411 35.0163 79.0538 34.4315 79.3632 33.7366C79.4415 33.5017 79.078 33.2893 78.9606 33.5465C78.6531 34.223 77.4901 34.2622 77.1826 34.1559C77.1403 34.1404 77.0936 34.1422 77.0527 34.1611C77.0118 34.18 76.9801 34.2143 76.9645 34.2566C76.9489 34.2988 76.9508 34.3455 76.9697 34.3864C76.9885 34.4273 77.0229 34.4591 77.0651 34.4746C77.4545 34.6094 77.87 34.6515 78.2785 34.5976ZM76.2488 31.7461C75.9856 31.9803 75.7073 32.1969 75.4157 32.3947C75.3609 32.4301 75.3162 32.4791 75.2859 32.5369C75.2555 32.5947 75.2405 32.6593 75.2424 32.7245C75.2424 32.9258 75.9469 33.4514 75.9525 33.457C75.9821 33.479 76.0185 33.4898 76.0553 33.4876C76.0921 33.4854 76.1269 33.4702 76.1537 33.4448C76.1804 33.4194 76.1973 33.3854 76.2014 33.3488C76.2055 33.3121 76.1966 33.2752 76.1761 33.2445C76.137 33.1719 75.9133 32.8979 75.7736 32.7134C76.4054 32.0815 76.6905 31.8747 76.4781 31.7181C76.4424 31.696 76.4002 31.6867 76.3585 31.6918C76.3168 31.6969 76.2781 31.716 76.2488 31.7461ZM75.7624 31.405C75.986 31.3043 75.9301 31.0471 76.1985 30.3762C76.2091 30.352 76.2149 30.3259 76.2155 30.2994C76.216 30.2729 76.2114 30.2466 76.2018 30.222C76.1922 30.1973 76.1778 30.1748 76.1595 30.1557C76.1412 30.1366 76.1193 30.1212 76.0951 30.1106C76.0708 30.1 76.0447 30.0942 76.0183 30.0936C75.9918 30.0931 75.9655 30.0977 75.9408 30.1073C75.9162 30.1169 75.8936 30.1313 75.8745 30.1496C75.8554 30.1679 75.8401 30.1898 75.8295 30.214C75.5163 30.8682 75.2703 31.0024 75.371 31.2317C75.3831 31.2703 75.4034 31.3059 75.4304 31.3361C75.4574 31.3663 75.4905 31.3904 75.5275 31.4068C75.5645 31.4232 75.6046 31.4315 75.6451 31.4312C75.6856 31.4309 75.7256 31.4219 75.7624 31.405ZM78.066 32.1151C78.2896 32.0144 78.2393 31.7517 78.5021 31.0863C78.5236 31.0374 78.5248 30.9819 78.5054 30.9321C78.486 30.8823 78.4476 30.8422 78.3987 30.8207C78.3497 30.7992 78.2943 30.798 78.2445 30.8174C78.1946 30.8368 78.1546 30.8752 78.1331 30.9241C77.8759 31.4833 77.574 31.7181 77.669 31.9418C77.6818 31.9806 77.7027 32.0163 77.7302 32.0465C77.7577 32.0767 77.7913 32.1008 77.8288 32.1171C77.8662 32.1335 77.9067 32.1417 77.9476 32.1414C77.9885 32.141 78.0288 32.1321 78.066 32.1151ZM32.48 22.6881C32.2116 20.692 32.2619 20.6473 32.0886 20.6473C22.3149 20.6473 22.8349 20.5802 22.8349 20.7871V22.6378C22.8349 22.7161 22.8964 22.8111 22.9747 22.8111C32.8658 22.8447 32.5135 22.9006 32.48 22.6881ZM35.6055 20.6473C32.9329 20.6473 33.0894 20.6473 33.0279 20.692C32.9664 20.7368 32.9776 20.6529 33.2348 22.7217C33.2348 22.895 33.2627 22.8447 35.6055 22.8447C35.6426 22.8447 35.6781 22.83 35.7043 22.8037C35.7306 22.7775 35.7453 22.742 35.7453 22.7049V20.7815C35.7438 20.7454 35.7285 20.7113 35.7024 20.6862C35.6764 20.6612 35.6416 20.6473 35.6055 20.6473ZM84.0263 20.6808L80.4814 20.9269C80.4641 20.9268 80.4469 20.9303 80.4309 20.9372C80.4149 20.944 80.4005 20.9539 80.3885 20.9665C80.3765 20.979 80.3671 20.9939 80.361 21.0101C80.3549 21.0264 80.3521 21.0437 80.3528 21.061V23.1746C80.3528 23.2116 80.3676 23.2472 80.3938 23.2734C80.42 23.2996 80.4556 23.3144 80.4926 23.3144H84.0319C84.069 23.3144 84.1046 23.2996 84.1308 23.2734C84.157 23.2472 84.1717 23.2116 84.1717 23.1746C84.1717 20.7815 84.2332 20.6752 84.0263 20.6808ZM24.6745 30.6334V28.9839C24.6745 28.9469 24.6598 28.9113 24.6335 28.8851C24.6073 28.8589 24.5718 28.8442 24.5347 28.8442H23.1648C23.1277 28.8442 23.0922 28.8589 23.066 28.8851C23.0398 28.9113 23.025 28.9469 23.025 28.9839C23.025 30.8347 23.025 30.7452 23.0698 30.8011C23.1145 30.857 23.0698 30.8459 24.5403 30.7732C24.5759 30.7704 24.6093 30.7547 24.6341 30.7289C24.6588 30.7031 24.6732 30.6691 24.6745 30.6334ZM32.6589 28.4695C25.01 28.8665 25.2951 28.7827 25.2951 28.9839C25.2951 30.6949 25.2951 30.611 25.3343 30.6613C25.3734 30.7117 24.9429 30.7061 32.6645 30.5943C32.7015 30.5943 32.7371 30.5795 32.7633 30.5533C32.7895 30.5271 32.8043 30.4915 32.8043 30.4545V28.6093C32.8051 28.5903 32.8019 28.5712 32.7948 28.5535C32.7878 28.5358 32.777 28.5198 32.7632 28.5065C32.7495 28.4933 32.733 28.4832 32.715 28.4768C32.697 28.4704 32.6779 28.4679 32.6589 28.4695ZM43.9981 28.464V30.0854C43.9981 30.1225 44.0128 30.1581 44.039 30.1843C44.0652 30.2105 44.1008 30.2252 44.1379 30.2252C46.0613 30.2252 45.9662 30.2252 46.0277 30.1749C46.0892 30.1246 46.078 30.1749 45.8264 28.4416C45.8264 28.2739 45.7426 28.3242 44.149 28.3242C44.1298 28.3226 44.1104 28.3251 44.0921 28.3314C44.0738 28.3378 44.0571 28.3478 44.0429 28.3609C44.0287 28.3741 44.0174 28.39 44.0097 28.4078C44.002 28.4255 43.998 28.4446 43.9981 28.464ZM52.2341 30.1973C52.2956 30.1246 52.2788 30.1973 52.0831 28.5534C52.0831 28.3801 52.3627 28.4416 46.8776 28.3409C46.8577 28.3408 46.8381 28.3449 46.8199 28.3529C46.8018 28.361 46.7856 28.3728 46.7723 28.3876C46.7591 28.4024 46.7492 28.4199 46.7432 28.4389C46.7373 28.4578 46.7354 28.4778 46.7378 28.4975C46.9503 30.242 46.9112 30.242 47.0789 30.242C52.5584 30.242 52.1726 30.2867 52.2341 30.1973ZM53.2517 30.2252C55.6336 30.2923 55.4882 30.3035 55.5497 30.2252C55.6112 30.1469 55.5945 30.2644 55.5945 28.4472C55.593 28.4096 55.5771 28.3741 55.55 28.348C55.5229 28.3219 55.4867 28.3074 55.4491 28.3074C52.8547 28.408 53.0057 28.3801 52.9498 28.4472C52.8939 28.5143 52.9106 28.4472 53.1175 30.0854C53.1199 30.1208 53.1347 30.1541 53.1592 30.1797C53.1838 30.2053 53.2165 30.2214 53.2517 30.2252ZM25.2672 37.3709C25.597 35.3021 25.597 35.414 25.5355 35.3469C25.474 35.2798 25.5691 35.291 23.6121 35.3972C23.577 35.4 23.5443 35.416 23.5204 35.4419C23.4966 35.4678 23.4834 35.5018 23.4835 35.537V37.4716C23.4835 37.5086 23.4983 37.5442 23.5245 37.5704C23.5507 37.5966 23.5862 37.6114 23.6233 37.6114L25.1609 37.4883C25.1888 37.4826 25.2141 37.4681 25.2332 37.447C25.2523 37.4259 25.2642 37.3992 25.2672 37.3709ZM27.8839 37.2479C27.8839 35.2183 27.8839 35.3301 27.8392 35.2686C27.7944 35.2071 27.8727 35.2295 26.3239 35.2966C26.1618 35.2966 26.1953 35.2965 25.9773 37.2311C25.9749 37.2509 25.9767 37.2709 25.9827 37.2898C25.9886 37.3087 25.9985 37.3262 26.0118 37.341C26.025 37.3558 26.0412 37.3677 26.0594 37.3757C26.0775 37.3838 26.0972 37.3878 26.117 37.3877H27.7441C27.7812 37.3877 27.8167 37.373 27.843 37.3468C27.8692 37.3205 27.8839 37.285 27.8839 37.2479ZM30.6796 35.1959C30.6796 37.22 30.6796 37.1081 30.7187 37.1696C30.7578 37.2311 29.9303 37.2591 44.4454 36.4595C44.4648 36.4582 44.4838 36.4529 44.501 36.4438C44.5183 36.4348 44.5335 36.4222 44.5456 36.4069C44.5577 36.3917 44.5665 36.374 44.5714 36.3552C44.5763 36.3363 44.5771 36.3166 44.574 36.2974L44.2161 34.0161C44.2106 33.981 44.1919 33.9494 44.1639 33.9276C44.1358 33.9058 44.1005 33.8954 44.0652 33.8987C30.0142 35.14 30.6796 34.9946 30.6796 35.1959ZM49.2427 36.1017C49.2427 33.4458 49.2427 33.6024 49.198 33.5409C49.1533 33.4794 49.3937 33.4682 45.1443 33.8875C45.1062 33.8931 45.0717 33.913 45.0478 33.9431C45.0239 33.9732 45.0124 34.0114 45.0157 34.0497C45.3735 36.3925 45.3288 36.4036 45.4966 36.4036L49.1085 36.2415C49.1446 36.24 49.1788 36.2247 49.2038 36.1986C49.2288 36.1726 49.2428 36.1378 49.2427 36.1017ZM52.3236 33.6415V36.0346C52.3236 36.0717 52.3383 36.1072 52.3645 36.1334C52.3907 36.1597 52.4263 36.1744 52.4633 36.1744H56.025C56.0621 36.1744 56.0976 36.1597 56.1239 36.1334C56.1501 36.1072 56.1648 36.0717 56.1648 36.0346C56.1648 33.2949 56.1648 33.4794 56.1201 33.4179C56.0753 33.3564 56.3381 33.362 52.4577 33.5017C52.4216 33.5032 52.3875 33.5185 52.3625 33.5446C52.3375 33.5707 52.3235 33.6054 52.3236 33.6415ZM70.2046 26.7027C66.2907 26.9431 66.4193 26.8648 66.4193 27.0549V29.2188C66.4193 29.2559 66.434 29.2914 66.4602 29.3176C66.4864 29.3438 66.522 29.3586 66.5591 29.3586H70.2158C70.2528 29.3586 70.2884 29.3438 70.3146 29.3176C70.3408 29.2914 70.3556 29.2559 70.3556 29.2188C70.3556 26.8425 70.4171 26.6915 70.2046 26.7027ZM26.7824 44.8913C26.9557 42.1291 26.9613 42.3528 26.9054 42.2913C26.8495 42.2298 27.0732 42.2466 23.8749 42.2466C23.8378 42.2466 23.8023 42.2613 23.7761 42.2875C23.7499 42.3137 23.7351 42.3493 23.7351 42.3863V44.8857C23.7351 44.9227 23.7499 44.9583 23.7761 44.9845C23.8023 45.0107 23.8378 45.0254 23.8749 45.0254H26.6426C26.6783 45.0242 26.7123 45.0098 26.7381 44.985C26.7639 44.9603 26.7797 44.9269 26.7824 44.8913ZM34.135 42.09C34.0989 42.0915 34.0648 42.1068 34.0397 42.1329C34.0147 42.1589 34.0008 42.1937 34.0008 42.2298V44.3489C34.0008 44.386 34.0155 44.4215 34.0417 44.4477C34.068 44.474 34.1035 44.4887 34.1406 44.4887H36.3436C36.3806 44.4887 36.4162 44.474 36.4424 44.4477C36.4686 44.4215 36.4833 44.386 36.4833 44.3489V42.1459C36.4819 42.1083 36.4659 42.0728 36.4388 42.0467C36.4117 42.0207 36.3756 42.0061 36.338 42.0061L34.135 42.09ZM47.0565 41.6595C36.7853 41.9279 37.3109 41.8999 37.3109 42.1012C37.3109 44.4775 37.3109 44.3377 37.35 44.3992C37.3891 44.4607 36.7909 44.4663 47.0677 44.2203C47.1034 44.2176 47.1367 44.2018 47.1615 44.176C47.1862 44.1502 47.2006 44.1162 47.2019 44.0805V41.7993C47.2028 41.7802 47.1996 41.7612 47.1925 41.7434C47.1854 41.7257 47.1746 41.7097 47.1609 41.6965C47.1471 41.6832 47.1307 41.6731 47.1127 41.6667C47.0947 41.6603 47.0756 41.6579 47.0565 41.6595ZM55.9803 41.6092C55.7454 43.9128 55.7399 43.773 55.8014 43.8457C55.8629 43.9184 55.505 43.8904 60.2409 43.8904C60.2641 43.8926 60.2876 43.8889 60.309 43.8797C60.3305 43.8705 60.3493 43.8561 60.3638 43.8378C60.3783 43.8194 60.3879 43.7977 60.3918 43.7747C60.3957 43.7516 60.3938 43.728 60.3862 43.7059C59.8942 41.3855 59.9445 41.3743 59.7768 41.3799C55.8629 41.4694 55.9971 41.4358 55.9803 41.6092ZM61.443 43.8625H63.0533C63.0885 43.8626 63.1225 43.8494 63.1484 43.8255C63.1743 43.8017 63.1903 43.769 63.1931 43.7339C63.4279 41.1674 63.4335 41.3296 63.3664 41.2625C63.2993 41.1954 63.4671 41.2122 60.8559 41.3687C60.8358 41.3705 60.8163 41.3767 60.7988 41.3868C60.7813 41.3968 60.7662 41.4106 60.7545 41.427C60.7428 41.4435 60.7348 41.4623 60.7311 41.4822C60.7273 41.502 60.728 41.5225 60.7329 41.5421C61.3479 43.9295 61.292 43.8625 61.443 43.8625ZM39.8996 19.6968C37.8141 21.2567 37.5233 21.4077 37.5121 21.6034C37.5121 21.8997 38.6304 22.9006 38.6696 22.9118C38.7006 22.9288 38.7364 22.9351 38.7714 22.9299C38.8064 22.9246 38.8388 22.9081 38.8635 22.8827C38.8882 22.8574 38.9039 22.8246 38.9083 22.7895C38.9127 22.7543 38.9054 22.7187 38.8876 22.6881C38.7143 22.4589 38.2893 21.883 38.1551 21.6929C38.4291 21.4245 39.5921 20.4404 40.1401 20.0155C40.3414 19.8589 40.1009 19.5458 39.8996 19.6968ZM47.7946 19.5514C47.7602 19.5244 47.7173 19.5105 47.6736 19.5122C47.63 19.5139 47.5883 19.531 47.5561 19.5606C47.5238 19.5901 47.5031 19.6301 47.4977 19.6735C47.4922 19.7169 47.5023 19.7608 47.5262 19.7974C48.027 20.4661 48.4809 21.1685 48.8849 21.8997C48.8849 21.9557 48.0686 22.9509 47.7387 23.4597C47.7161 23.4927 47.7069 23.5331 47.7132 23.5726C47.7194 23.6121 47.7405 23.6478 47.7722 23.6722C47.8039 23.6954 47.842 23.7079 47.8813 23.7079C47.9205 23.7079 47.9587 23.6954 47.9903 23.6722C48.3034 23.3423 49.1924 22.3303 49.3154 22.1402C49.6509 21.5978 48.5774 20.4013 47.7946 19.5514ZM42.2536 19.9372C42.1552 19.9052 42.051 19.8946 41.9482 19.9061C41.8453 19.9176 41.7461 19.951 41.6572 20.0039C41.5683 20.0568 41.4917 20.1281 41.4325 20.2131C41.3734 20.298 41.3331 20.3946 41.3142 20.4963C41.2691 20.929 41.2504 21.3641 41.2583 21.7991H40.6992C40.6438 21.8077 40.5934 21.8358 40.557 21.8784C40.5205 21.9209 40.5005 21.9751 40.5005 22.0311C40.5005 22.0872 40.5205 22.1413 40.557 22.1839C40.5934 22.2264 40.6438 22.2546 40.6992 22.2632L41.2863 22.3526C41.2825 22.652 41.303 22.9512 41.3478 23.2473C41.3981 23.5492 41.8231 23.4877 41.8566 23.2081C41.879 22.9402 41.879 22.6709 41.8566 22.403C42.1194 22.403 42.3766 22.403 42.4157 22.1458C42.4549 21.8886 42.1194 21.8494 41.8566 21.8271C41.8063 20.6641 41.9237 20.4907 41.9461 20.4628C42.097 20.3454 42.3375 20.4628 42.1138 20.815C42.0877 20.8538 42.0777 20.9012 42.0861 20.9472C42.0944 20.9931 42.1204 21.034 42.1585 21.061C42.4269 21.2623 42.8575 20.2224 42.2536 19.9372ZM44.0819 21.732C43.8399 21.7487 43.5971 21.7487 43.3551 21.732C43.3076 21.732 43.2621 21.7509 43.2286 21.7844C43.195 21.818 43.1762 21.8635 43.1762 21.9109C43.1762 21.9584 43.195 22.0039 43.2286 22.0374C43.2621 22.071 43.3076 22.0899 43.3551 22.0899L43.9142 22.1625C44.2217 22.2073 44.054 22.0843 44.1379 22.8279C44.1379 22.9065 44.1691 22.9819 44.2247 23.0375C44.2802 23.093 44.3556 23.1242 44.4342 23.1242C44.5128 23.1242 44.5882 23.093 44.6437 23.0375C44.6993 22.9819 44.7305 22.9065 44.7305 22.8279C44.7273 22.641 44.7142 22.4543 44.6914 22.2688H45.0101C45.0843 22.2688 45.1554 22.2393 45.2078 22.1869C45.2602 22.1345 45.2897 22.0634 45.2897 21.9892C45.2897 21.9151 45.2602 21.844 45.2078 21.7915C45.1554 21.7391 45.0843 21.7096 45.0101 21.7096C44.546 21.7096 44.6131 21.7432 44.6019 21.6537C44.5572 21.3965 44.5125 21.1337 44.4901 20.8765C44.4901 20.8291 44.4713 20.7836 44.4377 20.75C44.4042 20.7165 44.3586 20.6976 44.3112 20.6976C44.2637 20.6976 44.2182 20.7165 44.1847 20.75C44.1511 20.7836 44.1323 20.8291 44.1323 20.8765C44.1043 21.2344 44.0819 21.5978 44.0819 21.732Z" fill="black"/>
<path d="M46.9669 21.6202C46.9384 21.3882 46.9216 21.1549 46.9166 20.9213C46.9091 20.8785 46.8868 20.8398 46.8535 20.8119C46.8203 20.784 46.7783 20.7687 46.7349 20.7687C46.6915 20.7687 46.6495 20.784 46.6163 20.8119C46.583 20.8398 46.5607 20.8785 46.5532 20.9213C46.5532 21.1729 46.5196 21.4077 46.4973 21.6593C46.2831 21.6726 46.0684 21.6726 45.8543 21.6593C45.8045 21.6675 45.7593 21.693 45.7267 21.7314C45.6941 21.7698 45.6761 21.8186 45.6761 21.869C45.6761 21.9194 45.6941 21.9681 45.7267 22.0065C45.7593 22.0449 45.8045 22.0705 45.8543 22.0787C46.0611 22.0787 46.2512 22.1122 46.4637 22.129C46.419 22.621 46.3743 23.1186 46.7489 23.1186C47.1235 23.1186 47.0788 22.6154 47.034 22.1513C47.3416 22.1513 47.7441 22.1513 47.7329 21.8606C47.7218 21.5698 47.2912 21.5922 46.9669 21.6202ZM35.6054 24.9023C34.9009 25.0868 34.4871 25.7857 34.42 26.7642C34.3921 27.5749 34.6213 28.6037 33.9112 29.079C33.8619 29.112 33.8235 29.1587 33.8006 29.2134C33.7778 29.2681 33.7715 29.3283 33.7826 29.3865C33.8832 29.8785 34.7667 29.174 34.5878 31.2652C34.5202 31.5311 34.5217 31.8099 34.5922 32.0751C34.6626 32.3403 34.7997 32.5831 34.9903 32.7804C35.1666 32.9053 35.369 32.9884 35.5821 33.0232C35.7953 33.0581 36.0136 33.0439 36.2204 32.9817C36.2589 32.9719 36.293 32.9495 36.3174 32.9181C36.3417 32.8867 36.355 32.8481 36.355 32.8084C36.355 32.7687 36.3417 32.7301 36.3174 32.6987C36.293 32.6673 36.2589 32.6449 36.2204 32.6351C35.8346 32.5792 35.3873 32.6351 35.186 32.3052C35.0153 31.8527 34.9899 31.3582 35.1133 30.8906C35.1694 30.5898 35.1513 30.2799 35.0607 29.9876C34.9701 29.6953 34.8097 29.4295 34.5933 29.2132C35.5495 28.0446 34.3306 25.7242 35.7116 25.2545C35.7475 25.2326 35.7752 25.1994 35.7902 25.1601C35.8052 25.1208 35.8068 25.0776 35.7946 25.0374C35.7825 24.9971 35.7573 24.962 35.723 24.9375C35.6888 24.9131 35.6474 24.9007 35.6054 24.9023ZM42.6225 25.2993C42.2031 24.8352 41.616 25.0588 41.1687 24.9806C41.1427 24.975 41.1158 24.9747 41.0896 24.9796C41.0634 24.9845 41.0384 24.9945 41.0161 25.009C40.9938 25.0236 40.9745 25.0424 40.9595 25.0643C40.9444 25.0863 40.9338 25.111 40.9283 25.1371C40.9228 25.1632 40.9225 25.1901 40.9274 25.2163C40.9323 25.2425 40.9423 25.2674 40.9568 25.2897C40.9713 25.3121 40.9901 25.3313 41.0121 25.3464C41.0341 25.3614 41.0588 25.372 41.0849 25.3775C41.5545 25.467 42.0801 25.3328 42.2758 25.7577C42.6448 26.5741 41.8006 28.682 42.5274 29.5766C41.8788 30.365 42.6504 31.6119 42.0689 32.1766C41.8508 32.3696 41.5659 32.4699 41.275 32.4561C41.2316 32.4485 41.187 32.457 41.1496 32.4802C41.1122 32.5034 41.0846 32.5395 41.0722 32.5817C41.0597 32.6239 41.0633 32.6692 41.0821 32.709C41.101 32.7487 41.1338 32.7801 41.1743 32.7972C41.3355 32.8494 41.5054 32.8692 41.6742 32.8556C41.843 32.8419 42.0075 32.795 42.1582 32.7176C42.3089 32.6402 42.4428 32.5338 42.5522 32.4045C42.6616 32.2752 42.7444 32.1255 42.7958 31.9641C42.8706 31.6366 42.8706 31.2964 42.7958 30.9689C42.6113 29.6325 43.1816 29.996 43.1928 29.599C43.204 29.202 42.6728 29.5095 42.7679 28.3521C42.9188 26.8369 43.1145 25.8416 42.6225 25.2993Z" fill="black"/>
<path d="M36.9976 27.5358C36.819 27.5242 36.6406 27.5619 36.4818 27.6447C36.3231 27.7275 36.1902 27.8523 36.0974 28.0055C35.9659 28.1281 35.868 28.2825 35.8132 28.4539C35.7584 28.6252 35.7484 28.8077 35.7843 28.9839C35.9072 29.2588 36.1212 29.4829 36.3901 29.6184C36.659 29.7538 36.9664 29.7924 37.2604 29.7276C37.1318 30.2867 36.9809 30.5439 36.2596 30.3986C36.2094 30.3954 36.1598 30.4101 36.1194 30.4401C36.0791 30.4701 36.0507 30.5135 36.0393 30.5624C36.0279 30.6114 36.0343 30.6628 36.0572 30.7075C36.0801 30.7522 36.1181 30.7874 36.1645 30.8067C36.8243 30.9633 37.4505 30.8067 37.6518 30.1805C38.278 28.6093 37.6518 27.6644 36.9976 27.5358ZM36.7908 29.2132C36.4273 29.0846 36.3379 28.9336 36.3099 28.8218C36.2819 28.71 36.3602 28.5087 36.5168 28.3242C36.6733 28.1397 36.774 28.0111 36.9305 28.0726C37.5232 28.3242 37.4617 29.4648 36.7908 29.23V29.2132ZM39.6479 28.9001C38.703 28.7323 38.1215 29.8506 38.5297 30.3762C38.7258 30.5668 38.9886 30.6734 39.2621 30.6734C39.5356 30.6734 39.7984 30.5668 39.9946 30.3762C39.9946 30.516 39.9946 30.6725 40.0281 30.7564C40.0294 30.7951 40.045 30.8319 40.0718 30.8598C40.0987 30.8877 40.1349 30.9046 40.1735 30.9074C40.2126 30.9074 40.2502 30.8923 40.2783 30.8651C40.3065 30.838 40.323 30.8011 40.3245 30.762C40.3245 30.5495 40.4251 29.5878 40.4028 29.5207C40.3477 29.357 40.2477 29.212 40.1143 29.1022C39.9808 28.9925 39.8192 28.9225 39.6479 28.9001ZM39.8716 29.5766C39.8716 29.7444 39.6647 30.0128 39.5641 30.0687C39.2845 30.2196 39.0049 30.2084 38.9378 30.1078C38.8707 30.0072 39.0888 29.3865 39.4299 29.3865C39.5585 29.3865 39.8436 29.4424 39.8716 29.5766ZM72.7429 20.6864C71.9322 20.5411 71.1718 21.5754 71.4905 22.4477C71.565 22.6994 71.7257 22.917 71.9445 23.0621C72.1632 23.2073 72.4261 23.2708 72.687 23.2417C74.2302 23.0795 73.9115 20.9045 72.7429 20.6864ZM72.687 22.6769C71.9769 22.8447 71.7253 21.9445 72.1279 21.4245C72.1823 21.3461 72.2539 21.2811 72.3372 21.2346C72.4206 21.1881 72.5135 21.1612 72.6088 21.1561C72.7425 21.1802 72.8688 21.2352 72.9775 21.3167C73.0862 21.3983 73.1744 21.5041 73.235 21.6258C73.3016 21.8378 73.2813 22.0676 73.1785 22.2647C73.0758 22.4618 72.899 22.6101 72.687 22.6769ZM75.9188 20.8654C75.8685 21.2679 75.5442 22.7664 75.5386 23.1578C75.5462 23.2221 75.5751 23.282 75.6206 23.328C75.6661 23.3741 75.7257 23.4036 75.7899 23.4119C75.8541 23.4203 75.9192 23.407 75.975 23.3741C76.0307 23.3412 76.0739 23.2907 76.0977 23.2305C76.1872 22.8391 76.2431 21.2903 76.2878 20.9045C76.3326 20.6529 75.9524 20.6249 75.9188 20.8654ZM74.2191 23.046C74.1848 23.036 74.1487 23.0336 74.1134 23.0389C74.0781 23.0442 74.0444 23.0572 74.0146 23.0769C73.9848 23.0966 73.9596 23.1225 73.9409 23.1529C73.9221 23.1833 73.9102 23.2174 73.9059 23.2528C73.8556 23.7113 73.3077 23.8511 73.481 24.0915C73.5049 24.1267 73.5409 24.1518 73.5822 24.1621C73.6234 24.1724 73.667 24.1672 73.7047 24.1475C73.8693 24.0729 74.0164 23.9647 74.1368 23.8299C74.2572 23.6951 74.348 23.5366 74.4036 23.3647C74.4128 23.3316 74.4154 23.2971 74.4111 23.263C74.4068 23.229 74.3957 23.1961 74.3785 23.1664C74.3613 23.1367 74.3383 23.1108 74.311 23.0901C74.2836 23.0694 74.2523 23.0544 74.2191 23.046ZM70.3051 22.6378C70.3051 22.5132 70.2556 22.3938 70.1676 22.3057C70.0795 22.2176 69.96 22.1681 69.8355 22.1681C69.7109 22.1681 69.5914 22.2176 69.5033 22.3057C69.4153 22.3938 69.3658 22.5132 69.3658 22.6378C69.3658 22.7624 69.4153 22.8818 69.5033 22.9699C69.5914 23.058 69.7109 23.1075 69.8355 23.1075C69.96 23.1075 70.0795 23.058 70.1676 22.9699C70.2556 22.8818 70.3051 22.7624 70.3051 22.6378ZM56.7462 29.8338C56.7462 29.9584 56.7957 30.0779 56.8837 30.1659C56.9718 30.254 57.0913 30.3035 57.2159 30.3035C57.3404 30.3035 57.4599 30.254 57.548 30.1659C57.636 30.0779 57.6855 29.9584 57.6855 29.8338C57.6855 29.7093 57.636 29.5898 57.548 29.5017C57.4599 29.4136 57.3404 29.3642 57.2159 29.3642C57.0913 29.3642 56.9718 29.4136 56.8837 29.5017C56.7957 29.5898 56.7462 29.7093 56.7462 29.8338ZM28.5156 44.265C28.5228 44.1994 28.5161 44.133 28.4959 44.0702C28.4757 44.0074 28.4425 43.9495 28.3985 43.9004C28.3544 43.8512 28.3005 43.8119 28.2402 43.785C28.18 43.7581 28.1147 43.7442 28.0487 43.7442C27.9827 43.7442 27.9175 43.7581 27.8572 43.785C27.797 43.8119 27.743 43.8512 27.699 43.9004C27.6549 43.9495 27.6217 44.0074 27.6016 44.0702C27.5814 44.133 27.5747 44.1994 27.5819 44.265C27.5747 44.3306 27.5814 44.397 27.6016 44.4598C27.6217 44.5227 27.6549 44.5806 27.699 44.6297C27.743 44.6788 27.797 44.7181 27.8572 44.7451C27.9175 44.772 27.9827 44.7859 28.0487 44.7859C28.1147 44.7859 28.18 44.772 28.2402 44.7451C28.3005 44.7181 28.3544 44.6788 28.3985 44.6297C28.4425 44.5806 28.4757 44.5227 28.4959 44.4598C28.5161 44.397 28.5228 44.3306 28.5156 44.265ZM31.8145 43.868C31.8145 43.9926 31.864 44.1121 31.952 44.2002C32.0401 44.2882 32.1596 44.3377 32.2842 44.3377C32.4087 44.3377 32.5282 44.2882 32.6163 44.2002C32.7043 44.1121 32.7538 43.9926 32.7538 43.868C32.7538 43.7435 32.7043 43.624 32.6163 43.5359C32.5282 43.4479 32.4087 43.3984 32.2842 43.3984C32.1596 43.3984 32.0401 43.4479 31.952 43.5359C31.864 43.624 31.8145 43.7435 31.8145 43.868ZM53.5927 42.7721C53.4762 42.7848 53.3686 42.8401 53.2904 42.9273C53.2121 43.0145 53.1689 43.1275 53.1689 43.2446C53.1689 43.3617 53.2121 43.4748 53.2904 43.562C53.3686 43.6492 53.4762 43.7044 53.5927 43.7171C53.7091 43.7044 53.8168 43.6492 53.895 43.562C53.9732 43.4748 54.0165 43.3617 54.0165 43.2446C54.0165 43.1275 53.9732 43.0145 53.895 42.9273C53.8168 42.8401 53.7091 42.7848 53.5927 42.7721ZM59.0554 30.1022C59.1175 30.1037 59.1793 30.0926 59.2369 30.0696C59.2946 30.0465 59.347 30.012 59.3909 29.9681C59.4348 29.9241 59.4694 29.8718 59.4924 29.8141C59.5155 29.7564 59.5266 29.6946 59.5251 29.6325C59.5124 29.5161 59.4571 29.4084 59.3699 29.3302C59.2827 29.252 59.1697 29.2088 59.0526 29.2088C58.9355 29.2088 58.8225 29.252 58.7353 29.3302C58.6481 29.4084 58.5928 29.5161 58.5801 29.6325C58.5786 29.6951 58.5898 29.7574 58.6132 29.8154C58.6366 29.8735 58.6717 29.9261 58.7162 29.9702C58.7607 30.0142 58.8138 30.0486 58.8721 30.0713C58.9305 30.094 58.9928 30.1045 59.0554 30.1022ZM28.9182 17.5106C29.0189 17.4988 29.1118 17.4504 29.1792 17.3747C29.2467 17.2989 29.2839 17.201 29.2839 17.0996C29.2839 16.9982 29.2467 16.9003 29.1792 16.8245C29.1118 16.7488 29.0189 16.7004 28.9182 16.6886C28.8174 16.7004 28.7245 16.7488 28.6571 16.8245C28.5897 16.9003 28.5524 16.9982 28.5524 17.0996C28.5524 17.201 28.5897 17.2989 28.6571 17.3747C28.7245 17.4504 28.8174 17.4988 28.9182 17.5106ZM30.9814 17.5106C31.0821 17.4988 31.175 17.4504 31.2424 17.3747C31.3099 17.2989 31.3471 17.201 31.3471 17.0996C31.3471 16.9982 31.3099 16.9003 31.2424 16.8245C31.175 16.7488 31.0821 16.7004 30.9814 16.6886C30.8806 16.7004 30.7877 16.7488 30.7203 16.8245C30.6529 16.9003 30.6156 16.9982 30.6156 17.0996C30.6156 17.201 30.6529 17.2989 30.7203 17.3747C30.7877 17.4504 30.8806 17.4988 30.9814 17.5106ZM33.2123 17.505C33.313 17.4932 33.4059 17.4448 33.4734 17.3691C33.5408 17.2933 33.5781 17.1954 33.5781 17.094C33.5781 16.9926 33.5408 16.8947 33.4734 16.8189C33.4059 16.7432 33.313 16.6948 33.2123 16.683C33.1116 16.6948 33.0187 16.7432 32.9512 16.8189C32.8838 16.8947 32.8466 16.9926 32.8466 17.094C32.8466 17.1954 32.8838 17.2933 32.9512 17.3691C33.0187 17.4448 33.1116 17.4932 33.2123 17.505ZM31.1603 40.4909C31.1749 40.4613 31.1815 40.4284 31.1795 40.3954C31.1776 40.3624 31.167 40.3305 31.149 40.3029C31.1309 40.2752 31.1059 40.2528 31.0766 40.2377C31.0472 40.2226 31.0144 40.2155 30.9814 40.2169C30.836 40.2169 30.808 40.3679 30.6962 40.5859C29.919 42.1291 28.8734 44.2203 28.7952 44.4999C28.7743 44.559 28.7769 44.6239 28.8024 44.6813C28.8278 44.7386 28.8742 44.7841 28.932 44.8084C28.9899 44.8326 29.0548 44.8339 29.1135 44.8119C29.1723 44.7899 29.2204 44.7463 29.2481 44.69C29.4438 44.3824 30.9646 40.8655 31.1603 40.4909ZM32.7426 39.9765C32.726 39.9474 32.702 39.9233 32.673 39.9065C32.6441 39.8897 32.6112 39.8809 32.5777 39.8809C32.5442 39.8809 32.5113 39.8897 32.4824 39.9065C32.4534 39.9233 32.4294 39.9474 32.4128 39.9765C31.4902 41.8943 30.0812 44.6285 30.0253 44.8409C30.017 44.8804 30.0176 44.9211 30.0269 44.9603C30.0362 44.9995 30.0541 45.0361 30.0792 45.0676C30.1043 45.0991 30.136 45.1247 30.1721 45.1425C30.2082 45.1604 30.2478 45.17 30.288 45.1708C30.5061 45.1708 30.5788 45.0981 32.4798 40.776C32.7482 40.189 32.8265 40.1051 32.7426 39.9765ZM49.6564 44.662C49.1108 43.8705 48.7999 42.9409 48.7593 41.9805C48.7188 41.02 48.9503 40.0676 49.4271 39.2328C49.4538 39.1928 49.4635 39.1438 49.4541 39.0966C49.4447 39.0494 49.4169 39.0079 49.3768 38.9812C49.3368 38.9545 49.2878 38.9448 49.2406 38.9543C49.1934 38.9637 49.1519 38.9915 49.1252 39.0316C48.4776 39.8785 48.15 40.9269 48.2001 41.9918C48.2502 43.0568 48.6749 44.0698 49.3992 44.8521C49.428 44.873 49.4628 44.8842 49.4984 44.8841C49.5341 44.8839 49.5687 44.8724 49.5974 44.8512C49.6261 44.8301 49.6472 44.8003 49.6578 44.7663C49.6684 44.7323 49.6679 44.6957 49.6564 44.662Z" fill="black"/>
<path d="M54.3028 38.6402C53.9114 38.7911 54.7389 39.2552 54.6103 41.9223C54.4984 44.1588 53.6653 44.8689 53.7995 45.0925C53.8139 45.1133 53.8332 45.1303 53.8556 45.142C53.878 45.1537 53.9029 45.1598 53.9281 45.1598C53.9534 45.1598 53.9783 45.1537 54.0007 45.142C54.0231 45.1303 54.0423 45.1133 54.0567 45.0925C54.6531 44.1541 55.0095 43.0833 55.0943 41.9747C55.1792 40.866 54.9899 39.7535 54.5432 38.7352C54.5235 38.691 54.4874 38.6563 54.4424 38.6385C54.3974 38.6208 54.3473 38.6213 54.3028 38.6402ZM49.8073 41.816C48.9015 42.4646 49.6675 43.4934 50.5901 43.2362V44.7515C50.5901 44.9807 50.3553 45.0981 50.2155 44.9024C50.1886 44.8662 50.1491 44.8415 50.1048 44.8332C50.0605 44.8249 50.0146 44.8336 49.9765 44.8577C49.9383 44.8817 49.9107 44.9192 49.899 44.9628C49.8873 45.0063 49.8925 45.0527 49.9136 45.0925C49.9803 45.2021 50.0802 45.2876 50.1987 45.3365C50.3173 45.3855 50.4484 45.3955 50.573 45.3649C50.6976 45.3344 50.8092 45.265 50.8917 45.1668C50.9742 45.0685 51.0233 44.9466 51.0318 44.8186C51.0318 44.6396 51.2052 42.1906 50.9759 41.8943C50.9048 41.8117 50.818 41.7441 50.7205 41.6954C50.623 41.6467 50.5168 41.6178 50.408 41.6105C50.2993 41.6032 50.1902 41.6177 50.087 41.6529C49.9839 41.6882 49.8888 41.7437 49.8073 41.816ZM50.4615 42.1683C50.5221 42.2303 50.56 42.311 50.5691 42.3972C50.5783 42.4834 50.5581 42.5702 50.5118 42.6435C50.3888 42.7777 49.9527 42.733 49.8912 42.5093C49.8297 42.2857 50.2602 42.0285 50.4615 42.1683ZM52.1613 41.721C51.9689 41.7594 51.7943 41.8596 51.6641 42.0064C51.534 42.1532 51.4553 42.3384 51.4401 42.534C51.4249 42.7296 51.474 42.9248 51.58 43.0899C51.6859 43.255 51.8429 43.381 52.0271 43.4487C52.1794 43.5057 52.346 43.512 52.5022 43.4667C52.6583 43.4213 52.7957 43.3268 52.8937 43.1971C52.9137 43.1619 52.9216 43.1212 52.9162 43.0812C52.9108 43.0411 52.8924 43.004 52.8638 42.9754C52.8352 42.9468 52.7981 42.9284 52.758 42.923C52.718 42.9176 52.6773 42.9255 52.6421 42.9455C52.4912 43.0349 51.96 43.0349 51.9208 42.5988C51.9117 42.5123 51.9294 42.4251 51.9714 42.349C52.0134 42.2728 52.0778 42.2114 52.1558 42.173C52.2338 42.1346 52.3218 42.121 52.4077 42.1342C52.4937 42.1474 52.5736 42.1866 52.6365 42.2466C52.6758 42.2836 52.7282 42.3036 52.7823 42.302C52.8363 42.3004 52.8874 42.2775 52.9245 42.2382C52.9616 42.1989 52.9815 42.1465 52.9799 42.0925C52.9784 42.0385 52.9554 41.9873 52.9161 41.9502C52.8179 41.8542 52.6981 41.7833 52.5667 41.7434C52.4353 41.7035 52.2963 41.6958 52.1613 41.721ZM25.5242 17.6503C25.5795 17.6684 25.6391 17.6684 25.6944 17.6503C25.7497 17.6322 25.7978 17.5969 25.8317 17.5497C25.9603 17.3764 26.3294 15.7884 26.4412 15.4082C26.456 15.36 26.4511 15.3079 26.4275 15.2633C26.4039 15.2188 26.3636 15.1854 26.3154 15.1706C26.2672 15.1558 26.2151 15.1607 26.1705 15.1843C26.126 15.2079 26.0926 15.2482 26.0778 15.2964C25.541 16.8676 25.0993 17.5161 25.5242 17.6503ZM41.9963 69.1688C41.5378 69.6878 41.0486 70.1788 40.5313 70.6393C40.5028 70.6674 40.4801 70.7009 40.4646 70.7378C40.4491 70.7748 40.4411 70.8145 40.4411 70.8545C40.4411 70.8946 40.4491 70.9343 40.4646 70.9712C40.4801 71.0082 40.5028 71.0417 40.5313 71.0698C40.9619 71.4556 41.4148 71.8079 41.8285 72.1881C41.8589 72.2117 41.8963 72.2244 41.9348 72.2244C41.9732 72.2244 42.0106 72.2117 42.041 72.1881C42.0651 72.159 42.0783 72.1224 42.0783 72.0846C42.0783 72.0469 42.0651 72.0103 42.041 71.9812C41.7446 71.5954 41.4483 71.2152 41.1352 70.8629C41.5665 70.415 41.9628 69.9346 42.3206 69.426C42.4939 69.2079 42.1528 68.9675 41.9963 69.1688ZM60.9452 71.232C61.0123 71.232 60.9452 71.232 61.6665 70.7567C63.0028 69.8174 63.137 69.7558 63.0979 69.4875C63.0476 69.0961 62.5388 69.0346 61.1689 68.3692C61.117 68.3403 61.0557 68.3332 60.9986 68.3494C60.9414 68.3657 60.8931 68.404 60.8642 68.4559C60.8353 68.5078 60.8281 68.569 60.8444 68.6262C60.8606 68.6833 60.8989 68.7317 60.9508 68.7606C61.208 68.906 62.0188 69.4148 62.3319 69.6049C61.5211 70.3653 60.8334 70.9971 60.8334 70.9971C60.8187 71.0189 60.81 71.0441 60.808 71.0703C60.806 71.0965 60.8109 71.1228 60.8222 71.1465C60.8335 71.1702 60.8508 71.1906 60.8724 71.2056C60.894 71.2205 60.9191 71.2296 60.9452 71.232ZM56.9083 70.2758C57.6575 70.2758 58.3676 70.1528 59.0889 70.1193C59.1408 70.1193 59.1906 70.0987 59.2273 70.062C59.264 70.0253 59.2846 69.9755 59.2846 69.9236C59.2846 69.8717 59.264 69.8219 59.2273 69.7852C59.1906 69.7485 59.1408 69.7279 59.0889 69.7279C58.3565 69.7279 57.6575 69.6105 56.9083 69.6608C56.8267 69.6608 56.7485 69.6932 56.6909 69.7509C56.6332 69.8085 56.6008 69.8868 56.6008 69.9683C56.6008 70.0499 56.6332 70.1281 56.6909 70.1858C56.7485 70.2434 56.8267 70.2758 56.9083 70.2758ZM52.754 70.4324C53.1118 70.4324 54.655 70.2702 54.8227 70.2591C54.8732 70.2591 54.9215 70.239 54.9572 70.2034C54.9928 70.1677 55.0128 70.1194 55.0128 70.069C55.0128 70.0185 54.9928 69.9702 54.9572 69.9345C54.9215 69.8989 54.8732 69.8789 54.8227 69.8789C54.655 69.8789 53.1118 69.7782 52.754 69.8229C52.6802 69.833 52.6126 69.8693 52.5637 69.9254C52.5148 69.9814 52.4878 70.0533 52.4878 70.1277C52.4878 70.2021 52.5148 70.2739 52.5637 70.33C52.6126 70.386 52.6802 70.4224 52.754 70.4324ZM47.6882 70.0746C47.6493 70.0753 47.6109 70.0837 47.5752 70.0992C47.5396 70.1148 47.5073 70.1373 47.4803 70.1653C47.4533 70.1933 47.4321 70.2264 47.4179 70.2626C47.4037 70.2989 47.3967 70.3376 47.3975 70.3765C47.3975 70.7064 47.7385 70.6896 47.9566 70.6896C48.5986 70.6602 49.2386 70.5986 49.8744 70.5051C49.9242 70.4969 49.9694 70.4714 50.002 70.433C50.0346 70.3946 50.0525 70.3458 50.0525 70.2954C50.0525 70.245 50.0346 70.1963 50.002 70.1579C49.9694 70.1194 49.9242 70.0939 49.8744 70.0857C49.4998 70.1137 48.0461 70.0634 47.6882 70.0746ZM45.4349 70.3821C45.0212 70.3821 43.4444 70.3094 43.0418 70.3821C42.9677 70.3821 42.8966 70.4115 42.8442 70.464C42.7917 70.5164 42.7623 70.5875 42.7623 70.6616C42.7623 70.7358 42.7917 70.8069 42.8442 70.8593C42.8966 70.9118 42.9677 70.9412 43.0418 70.9412C43.4612 70.9971 45.0268 70.8406 45.4349 70.8238C45.4935 70.8238 45.5497 70.8005 45.5911 70.7591C45.6325 70.7177 45.6558 70.6615 45.6558 70.6029C45.6558 70.5444 45.6325 70.4882 45.5911 70.4468C45.5497 70.4053 45.4935 70.3821 45.4349 70.3821ZM23.8077 9.20744C23.678 9.04575 23.5095 8.91962 23.3178 8.84085C23.1261 8.76208 22.9175 8.73326 22.7117 8.75708C22.5058 8.78089 22.3093 8.85658 22.1407 8.97704C21.972 9.09749 21.8367 9.25879 21.7474 9.4458C21.6581 9.63282 21.6177 9.83945 21.6301 10.0463C21.6424 10.2532 21.707 10.4536 21.8179 10.6287C21.9288 10.8037 22.0823 10.9478 22.2641 11.0474C22.4459 11.147 22.6499 11.1988 22.8572 11.198C23.0894 11.2016 23.3178 11.1385 23.5153 11.0161C23.7127 10.8937 23.8709 10.7172 23.971 10.5076C24.0711 10.298 24.1089 10.0641 24.0799 9.83359C24.051 9.60312 23.9565 9.38579 23.8077 9.20744ZM23.5002 10.3257C23.4297 10.4572 23.3199 10.5633 23.1861 10.6294C23.0524 10.6954 22.9013 10.718 22.7541 10.6939C22.6069 10.6699 22.4709 10.6005 22.365 10.4954C22.2592 10.3903 22.1889 10.2547 22.1638 10.1076C22.137 10.0022 22.1342 9.89201 22.1556 9.7853C22.177 9.67859 22.2221 9.57805 22.2876 9.49111C22.3531 9.40417 22.4373 9.33304 22.5339 9.28298C22.6305 9.23291 22.7372 9.20519 22.846 9.20185C22.9728 9.21255 23.0951 9.25401 23.2023 9.32263C23.3094 9.39126 23.3983 9.48498 23.4611 9.59568C23.5238 9.70639 23.5587 9.83072 23.5626 9.95793C23.5665 10.0851 23.5393 10.2114 23.4834 10.3257H23.5002ZM29.0747 9.34722C28.9136 9.13657 28.6878 8.98453 28.432 8.91437C28.1763 8.8442 27.9045 8.85978 27.6584 8.95872C27.4124 9.05767 27.2055 9.23451 27.0695 9.46221C26.9334 9.6899 26.8758 9.95589 26.9053 10.2195C26.9302 10.4836 27.0388 10.7328 27.2151 10.931C27.3914 11.1291 27.6264 11.2659 27.8858 11.3214C28.1451 11.3769 28.4155 11.3482 28.6575 11.2395C28.8994 11.1309 29.1004 10.9479 29.2313 10.7171C29.3292 10.4954 29.3663 10.2517 29.3388 10.0109C29.3113 9.77017 29.2201 9.54108 29.0747 9.34722ZM27.7328 9.46464C27.8725 9.37276 28.0403 9.33356 28.2063 9.35405C28.3722 9.37454 28.5254 9.45337 28.6386 9.57647C28.7428 9.69918 28.8097 9.84912 28.8315 10.0086C28.8533 10.1681 28.829 10.3305 28.7616 10.4767C28.6902 10.6022 28.5827 10.7035 28.4532 10.7673C28.3236 10.8311 28.1778 10.8545 28.0347 10.8345C27.8864 10.8094 27.7489 10.7409 27.6395 10.6376C27.5302 10.5343 27.4539 10.4009 27.4204 10.2542C27.3869 10.1076 27.3976 9.95428 27.4512 9.81373C27.5048 9.67319 27.5989 9.5517 27.7216 9.46464H27.7328ZM34.325 9.4926C34.1955 9.3311 34.0271 9.20506 33.8357 9.12627C33.6443 9.04748 33.436 9.01851 33.2303 9.04206C33.0246 9.06562 32.8283 9.14093 32.6596 9.26096C32.491 9.381 32.3555 9.54183 32.2659 9.72843C32.1762 9.91503 32.1354 10.1213 32.1471 10.328C32.1588 10.5347 32.2228 10.735 32.333 10.9103C32.4431 11.0855 32.5959 11.23 32.7771 11.3302C32.9582 11.4304 33.1618 11.483 33.3688 11.4831C33.6016 11.4878 33.8308 11.4255 34.029 11.3036C34.2273 11.1816 34.3863 11.0052 34.4871 10.7954C34.5879 10.5856 34.6262 10.3512 34.5975 10.1202C34.5687 9.88916 34.4741 9.67131 34.325 9.4926ZM34.0119 10.6109C33.9455 10.7173 33.8529 10.8049 33.743 10.8653C33.6331 10.9257 33.5095 10.9569 33.384 10.9558C33.2586 10.9548 33.1356 10.9215 33.0267 10.8592C32.9178 10.797 32.8267 10.7078 32.7622 10.6002C32.6976 10.4927 32.6618 10.3704 32.6581 10.245C32.6544 10.1196 32.683 9.99538 32.7411 9.88421C32.7991 9.77304 32.8848 9.67865 32.9898 9.61007C33.0949 9.5415 33.2157 9.50105 33.3409 9.4926C33.4704 9.49713 33.5968 9.53398 33.7084 9.5998C33.8201 9.66562 33.9135 9.75832 33.9802 9.86945C34.0468 9.98059 34.0847 10.1066 34.0902 10.2361C34.0957 10.3656 34.0688 10.4944 34.0119 10.6109Z" fill="black"/>
<path d="M82.0079 18.8077C82.1674 18.482 82.2408 18.1209 82.2212 17.7588C82.2017 17.3967 82.0897 17.0456 81.8961 16.7389C81.4432 16.068 80.5318 16.0904 79.7993 16.1071C77.5349 16.163 24.3782 14.536 24.3223 14.5304C23.9981 14.4522 23.6563 14.5001 23.3661 14.6646C22.4771 15.3132 22.5051 17.6224 23.5059 18.2039C23.8018 18.3373 24.1301 18.3819 24.4509 18.3325L80.2746 19.8254C80.6277 19.8242 80.9742 19.7294 81.2787 19.5506C81.5832 19.3719 81.8348 19.1155 82.0079 18.8077ZM27.4814 15.2405C27.177 15.9499 26.9248 16.6806 26.7265 17.4267C26.725 17.4599 26.7303 17.4931 26.7419 17.5243C26.7536 17.5554 26.7715 17.5839 26.7945 17.6079C26.8175 17.632 26.8451 17.6511 26.8757 17.6641C26.9063 17.6772 26.9393 17.6839 26.9725 17.6839C27.2242 17.6839 27.2689 17.4546 27.6491 16.0792C27.856 15.3076 27.9119 15.2852 27.8112 15.179C35.8236 15.4306 80.2466 16.6663 80.3361 16.6718C81.0238 16.6718 81.3985 16.8843 81.5494 17.2813C81.6633 17.5491 81.6949 17.8447 81.6402 18.1305C81.5854 18.4163 81.4467 18.6793 81.2419 18.886C80.9949 19.0592 80.7161 19.182 80.4215 19.2472C80.127 19.3125 79.8224 19.3189 79.5254 19.2662C76.2656 19.1544 23.9309 17.8181 23.875 17.8069C23.1425 17.628 23.081 15.9002 23.5283 15.2237C23.6904 14.9833 23.9365 14.9945 24.3223 15.0448C27.9566 15.2237 27.5317 15.0951 27.4814 15.2405ZM45.888 48.4809C45.888 47.9217 46.3577 48.1678 25.7592 48.7213C25.641 48.7129 25.5225 48.7329 25.4136 48.7796C25.3046 48.8262 25.2084 48.8983 25.133 48.9897C24.9205 49.3084 25.2896 66.4402 25.3007 66.6023C25.3036 66.6731 25.3338 66.7399 25.3848 66.7889C25.4359 66.8379 25.5039 66.8652 25.5747 66.8651C25.5747 66.8651 27.7721 66.7869 29.6955 66.7309C46.5757 66.2445 46.3576 66.0041 46.3409 65.7748C46.2961 65.3443 45.8936 48.7772 45.888 48.4809ZM25.5971 49.3755C25.5971 49.3363 25.7033 49.3028 25.7592 49.2972C26.5029 49.2972 44.6691 48.7381 45.3288 48.7381C45.3792 50.4155 45.8488 64.6845 45.888 65.5512C43.014 65.7357 27.9454 66.2669 25.8543 66.3116C25.5244 61.7435 25.5635 49.711 25.5971 49.3755Z" fill="black"/>
<path d="M26.5532 64.8635C26.9893 64.5448 35.1806 57.6563 35.4546 57.4326C37.6184 59.1603 43.7018 64.0192 44.9989 65.0703C45.2002 65.2325 45.4574 64.9417 45.2617 64.774C42.9469 62.8506 37.0649 58.0644 35.8739 57.0803C36.433 56.6442 43.4613 50.7622 44.3559 50.0409C44.546 49.8787 44.3 49.5992 44.1043 49.7501C41.7951 51.6064 36.3436 56.0068 35.4378 56.7393C33.7045 55.3694 28.1076 51.0585 26.76 50.0856C26.7227 50.0639 26.6786 50.0564 26.6362 50.0646C26.5937 50.0728 26.5556 50.0961 26.529 50.1302C26.5024 50.1643 26.4891 50.2069 26.4915 50.2501C26.4938 50.2933 26.5118 50.3342 26.542 50.3652C28.4598 51.9307 34.8731 56.9741 35.0184 57.0748C33.1845 58.6012 26.8663 63.9185 26.2736 64.5168C26.2276 64.5539 26.1983 64.6077 26.192 64.6664C26.1857 64.7251 26.203 64.7839 26.2401 64.8299C26.2771 64.8759 26.3309 64.9052 26.3897 64.9115C26.4484 64.9178 26.5072 64.9005 26.5532 64.8635ZM66.6206 62.9009C64.7698 61.3801 60.923 58.0365 60.1906 57.3991C61.8288 55.9565 66.9001 51.2486 67.9178 50.3204C67.9556 50.2849 67.9777 50.2357 67.9793 50.1838C67.9808 50.1319 67.9617 50.0815 67.9261 50.0437C67.8906 50.0059 67.8414 49.9837 67.7895 49.9822C67.7376 49.9806 67.6872 49.9997 67.6494 50.0353C66.8945 50.7342 60.0116 56.8399 59.788 57.0412C58.8822 56.2528 51.7532 49.9514 51.4737 49.7166C51.4387 49.6895 51.3949 49.6763 51.3508 49.6796C51.3067 49.6828 51.2654 49.7023 51.2348 49.7343C51.2042 49.7663 51.1865 49.8085 51.1852 49.8527C51.1839 49.8969 51.199 49.94 51.2277 49.9738C51.6917 50.449 58.1162 56.3591 59.3407 57.4382C58.6865 57.9973 52.2061 63.7284 51.5128 64.3435C51.487 64.3639 51.4685 64.3922 51.4602 64.4241C51.4519 64.4559 51.4543 64.4897 51.467 64.5201C51.4796 64.5505 51.5019 64.5759 51.5304 64.5925C51.5588 64.6091 51.5919 64.6159 51.6246 64.6119C51.8874 64.6119 59.2121 58.2378 59.7265 57.7904C60.951 58.8248 65.2563 62.3306 66.341 63.1973C66.5647 63.3538 66.8219 63.0687 66.6206 62.9009ZM11.4846 90.2257C11.4846 90.2257 26.7097 89.3535 26.9837 89.3311C27.0273 89.3279 27.0696 89.3146 27.1072 89.2921C27.1447 89.2696 27.1765 89.2386 27.1999 89.2017C27.2233 89.1647 27.2376 89.1227 27.2419 89.0792C27.2461 89.0356 27.24 88.9917 27.2241 88.9509C27.2521 85.2606 27.6379 78.3274 27.403 77.9695C27.327 77.8763 27.2268 77.8057 27.1135 77.7653C27.0002 77.7249 26.8779 77.7162 26.76 77.7403L11.5684 78.4895C11.4972 78.4924 11.4297 78.5223 11.3799 78.5732C11.33 78.6241 11.3014 78.6922 11.3 78.7635C11.205 80.9609 11.0093 89.7896 11.0596 89.9461C11.0855 90.0357 11.1426 90.1131 11.2205 90.1643C11.2984 90.2156 11.392 90.2374 11.4846 90.2257ZM26.9334 78.4168C26.9334 78.8753 26.9054 80.8379 26.7209 88.7831C25.1833 88.8446 11.9375 89.633 11.6243 89.6498C11.6243 88.47 11.8144 80.357 11.8648 79.0263L26.7936 78.277C26.8302 78.2784 26.865 78.2936 26.8909 78.3195C26.9168 78.3454 26.932 78.3802 26.9334 78.4168ZM32.0998 88.6825C32.1724 88.9453 32.4241 88.9565 32.6868 88.9341C48.9688 87.6705 48.1301 88.1122 48.2419 87.9053C48.2866 87.8158 48.2028 88.2743 48.3985 82.4258C48.3985 81.7045 48.6165 76.9631 48.4376 76.6891C48.3623 76.5949 48.2623 76.5235 48.1487 76.483C48.0351 76.4426 47.9125 76.4345 47.7946 76.4599C47.7163 76.4599 33.3802 77.1644 32.6086 77.2091C32.5364 77.2105 32.4675 77.2399 32.4164 77.2909C32.3654 77.342 32.336 77.4109 32.3346 77.4831C32.2451 79.5463 32.0438 88.4924 32.0998 88.6825ZM32.6589 88.3694C32.6589 87.1561 32.8546 79.0263 32.8993 77.7459L47.9064 76.9966C48.035 76.9966 48.035 76.1747 47.7722 87.4915C46.2178 87.5586 32.9888 88.347 32.6421 88.3694H32.6589ZM51.5184 87.3182C51.5967 87.5754 51.8427 87.5866 52.1111 87.5642C68.393 86.295 67.5543 86.7423 67.6661 86.5354C67.7109 86.4516 67.627 86.8765 67.8227 81.0615C67.8227 80.3235 68.0408 75.6044 67.8618 75.3192C67.7866 75.225 67.6865 75.1537 67.5729 75.1132C67.4594 75.0727 67.3367 75.0647 67.2188 75.09L52.0328 75.8392C51.9606 75.8407 51.8917 75.87 51.8407 75.9211C51.7896 75.9721 51.7603 76.041 51.7588 76.1132C51.6638 78.2826 51.4681 87.1113 51.5184 87.3182ZM52.3068 76.3872L67.3139 75.6379C67.4425 75.6379 67.4369 74.8272 67.1797 86.1329C65.6421 86.1888 52.3907 86.9771 52.0831 86.9995C52.0664 86.9212 52.2565 77.7347 52.3068 76.3648V76.3872Z" fill="black"/>
<path d="M26.1338 78.6852C24.4564 79.988 20.0784 83.1024 19.4577 83.5553C18.9489 83.2478 13.2178 79.8147 12.5972 79.4289C12.5572 79.4029 12.5084 79.3939 12.4618 79.4039C12.4151 79.4139 12.3743 79.442 12.3484 79.482C12.3224 79.522 12.3134 79.5707 12.3234 79.6174C12.3334 79.6641 12.3615 79.7049 12.4015 79.7308C13.2346 80.2899 17.9034 83.2533 18.9601 83.9131C18.6246 84.1535 12.8824 88.2855 12.5413 88.5651C12.5119 88.5885 12.4906 88.6207 12.4805 88.6569C12.4704 88.6931 12.472 88.7315 12.485 88.7668C12.498 88.8021 12.5217 88.8324 12.5529 88.8534C12.5841 88.8744 12.6211 88.885 12.6587 88.8838C12.8488 88.8838 19.3683 84.3604 19.5192 84.2486C20.8332 85.0146 25.5467 87.6369 26.0667 87.9109C26.1001 87.9323 26.1401 87.9406 26.1793 87.9344C26.2184 87.9283 26.254 87.908 26.2792 87.8774C26.2956 87.8391 26.2991 87.7965 26.289 87.7561C26.2789 87.7157 26.2558 87.6797 26.2232 87.6537C24.1433 86.4236 22.0409 85.1488 20.0057 83.9131C21.219 83.0129 26.3574 79.0039 26.3574 79.0039C26.3997 78.9743 26.4284 78.9291 26.4374 78.8782C26.4463 78.8273 26.4346 78.775 26.405 78.7328C26.3753 78.6905 26.3301 78.6618 26.2792 78.6528C26.2284 78.6439 26.176 78.6556 26.1338 78.6852ZM47.4535 77.2539C47.0174 77.5614 40.3022 82.2245 39.7934 82.588C38.5801 81.7549 34.6326 79.0039 33.7436 78.3162C33.5535 78.1708 33.3242 78.4672 33.5087 78.6125C35.0128 79.7979 38.457 82.3531 39.2902 82.9514C38.0433 83.8796 33.8498 86.7759 33.0502 87.5698C33.0303 87.5891 33.0165 87.6138 33.0106 87.6409C33.0048 87.6679 33.0071 87.6961 33.0172 87.7219C33.0274 87.7477 33.045 87.7698 33.0678 87.7855C33.0906 87.8013 33.1176 87.8099 33.1453 87.8103C33.2236 87.8103 33.6317 87.581 39.7598 83.2757C41.1297 84.1815 45.558 86.8206 46.5533 87.3518C46.584 87.3647 46.6183 87.3663 46.65 87.3561C46.6818 87.346 46.7089 87.3249 46.7264 87.2965C46.7439 87.2682 46.7508 87.2345 46.7457 87.2016C46.7406 87.1687 46.7239 87.1387 46.6987 87.1169C45.8711 86.5578 40.6768 83.203 40.2686 82.9123C41.2751 82.2022 47.2466 77.8186 47.6492 77.5278C47.6855 77.5019 47.71 77.4626 47.7174 77.4185C47.7247 77.3745 47.7143 77.3293 47.6883 77.293C47.6624 77.2567 47.6231 77.2321 47.579 77.2248C47.535 77.2175 47.4898 77.2279 47.4535 77.2539ZM60.0116 80.9777C61.3982 81.9058 65.6029 84.8413 66.5087 85.5346C66.5274 85.5504 66.5491 85.5623 66.5724 85.5698C66.5958 85.5772 66.6203 85.5799 66.6447 85.5778C66.6691 85.5758 66.6929 85.5689 66.7146 85.5576C66.7364 85.5464 66.7557 85.531 66.7715 85.5122C66.7873 85.4935 66.7992 85.4719 66.8066 85.4485C66.8141 85.4252 66.8168 85.4006 66.8147 85.3762C66.8127 85.3518 66.8058 85.3281 66.7945 85.3063C66.7833 85.2846 66.7679 85.2652 66.7491 85.2494C66.0278 84.6903 61.5827 81.3691 60.5372 80.631C61.0963 80.2676 66.2459 76.7171 66.861 76.3089C66.8823 76.2957 66.9007 76.2784 66.9153 76.2581C66.93 76.2377 66.9404 76.2147 66.9461 76.1903C66.9518 76.1659 66.9527 76.1406 66.9486 76.1158C66.9446 76.0911 66.9357 76.0674 66.9225 76.0461C66.9092 76.0248 66.892 76.0064 66.8716 75.9917C66.8512 75.9771 66.8282 75.9667 66.8038 75.9609C66.7794 75.9552 66.7541 75.9544 66.7294 75.9585C66.7047 75.9625 66.681 75.9714 66.6597 75.9846C66.1565 76.3145 60.2856 80.0327 59.9501 80.2508C58.7927 79.5239 54.9179 77.2539 53.8779 76.773C53.8379 76.7538 53.7918 76.7512 53.7499 76.7659C53.708 76.7806 53.6736 76.8113 53.6543 76.8513C53.5312 77.0861 53.5592 76.9184 59.4245 80.5975C57.7862 81.7157 52.7149 85.311 52.2005 85.7135C52.1725 85.7428 52.1542 85.78 52.1482 85.82C52.1422 85.8601 52.1487 85.901 52.167 85.9372C52.1909 85.9724 52.2273 85.9972 52.2689 86.0065C52.3104 86.0159 52.3539 86.0091 52.3906 85.9875C52.9945 85.6408 60.0116 80.9777 60.0116 80.9777Z" fill="black"/>
<path d="M109.031 97.1869C108.416 97.0471 105.117 96.5998 87.8564 94.0558C87.4918 93.5433 87.2089 92.9775 87.0177 92.3784C86.945 90.701 86.5144 85.3781 86.3746 84.3381C86.0951 82.2693 85.5304 80.2005 85.5751 78.0702C86.1734 77.9416 86.766 77.8018 87.3364 77.6453C87.385 77.6298 87.4275 77.5993 87.4577 77.5581C87.4879 77.5168 87.5041 77.4671 87.5041 77.416C87.5116 75.3255 87.3583 73.2375 87.0456 71.1705C87.9849 70.1305 87.9514 68.1736 87.9179 66.58C87.9179 65.1263 87.9682 64.1087 87.9626 54.2791C89.6791 52.9316 89.2877 49.9403 89.0809 48.4194C89.5785 48.0728 89.6008 48.0728 89.6064 47.9889C89.5635 47.4437 89.4507 46.9063 89.271 46.3898C89.1525 46.1187 88.9792 45.875 88.7621 45.6741C88.9522 45.3945 88.9858 45.3722 88.9467 45.2827C88.628 44.6285 88.3875 44.1644 88.0744 43.6668V38.7632C89.0781 38.8737 90.0891 38.6348 90.9372 38.0867C90.9679 38.0704 90.9914 38.0432 91.0032 38.0105C91.015 37.9778 91.0141 37.9419 91.0009 37.9098C90.9876 37.8777 90.9628 37.8517 90.9314 37.8368C90.9 37.822 90.8642 37.8193 90.8309 37.8295C90.0705 38.014 89.5226 37.9245 89.1983 37.5555C88.3987 36.6609 89.0473 34.3013 89.366 33.4626C90.1152 31.3715 91.0434 31.2988 91.2671 29.7947C91.3941 28.7108 91.1535 27.6156 90.5836 26.6848C90.0138 25.7541 89.1479 25.0417 88.1247 24.6619C88.1247 24.6172 88.2757 16.1351 88.2813 15.8723C88.3372 13.4625 88.4099 10.1636 85.7149 9.0733C85.1068 8.86981 84.4646 8.78811 83.825 8.83288C83.7076 8.83288 24.6297 6.94301 24.2159 6.91505C23.0997 6.78677 21.9713 6.80934 20.8611 6.98215C18.0655 7.58601 18.0263 10.3369 18.0096 12.1262C18.0096 12.2771 18.0431 27.8881 18.0655 42.7442C16.1812 42.6995 8.67207 42.6883 7.10091 42.7442C5.77577 42.7442 4.61836 42.8393 3.88031 43.404C3.51995 43.6889 3.22759 44.0505 3.02448 44.4625C2.82138 44.8745 2.71262 45.3266 2.70613 45.7859C2.70613 51.2598 3.26526 84.1032 2.96333 95.0399C2.92419 96.4601 3.5616 97.5783 4.64073 97.9082C3.97536 98.8084 4.64073 99.8316 5.59125 100.257C12.955 101.844 34.3195 106.407 36.008 106.407C36.8747 106.407 80.3808 102.174 106.397 99.6639C107.896 99.6639 109.377 98.8979 109.193 97.5112C109.126 97.1757 109.126 97.2093 109.031 97.1869ZM85.7652 83.9634C86.1119 86.7088 86.2237 89.4989 86.4306 92.261C85.8544 92.4807 85.2175 92.4807 84.6413 92.261C82.964 89.0795 80.3081 84.763 80.7274 81.0112C80.856 79.8035 80.9063 79.2723 80.2186 78.2659C80.8169 78.2268 81.4263 78.1708 82.0637 78.0702C82.1812 78.0702 82.2259 78.0702 82.6229 75.8896C83.4224 78.3498 83.4224 78.5175 83.6181 78.4728L85.0607 78.1653C84.988 80.1278 85.4968 82.0456 85.7652 83.9634ZM69.3323 97.3155C70.1263 98.1766 72.3181 96.9241 73.3077 96.2811C73.3295 96.2681 73.347 96.249 73.3579 96.2261C73.3689 96.2032 73.3728 96.1776 73.3692 96.1525C73.3518 96.0362 73.3586 95.9174 73.3894 95.8039C73.4202 95.6903 73.4743 95.5843 73.5482 95.4928C73.5628 95.4708 73.5818 95.4521 73.6039 95.4377C73.626 95.4233 73.6508 95.4135 73.6768 95.4089C73.7662 95.4089 73.9396 95.571 74.0234 95.8786C74.1073 96.1861 74.9124 96.0016 75.1417 95.8786C75.2367 95.8226 75.2423 95.8338 75.1417 94.2012C77.6913 94.6764 82.7179 95.5431 84.5351 95.8786C84.591 96.119 84.6469 96.3538 84.7084 96.5775C78.558 97.1366 35.6055 100.972 34.5263 101.051C33.8945 100.905 20.9506 98.5959 20.4977 98.5177C32.273 97.5504 63.0309 95.0343 71.183 94.3354C70.0983 95.968 69.1757 96.1805 69.1366 96.3706C69.0885 96.532 69.0812 96.7028 69.1153 96.8677C69.1495 97.0327 69.224 97.1865 69.3323 97.3155ZM68.3818 74.173C65.1947 74.2793 23.8693 75.7442 21.3867 75.1292C19.385 74.8775 18.4457 73.1498 18.5911 69.9963C18.6246 68.3189 18.4848 19.3166 18.4569 12.8195C27.5484 13.2332 81.8569 14.7485 87.7389 14.7988C87.7389 15.8332 87.6439 20.9493 87.5824 24.4774C85.7149 23.9965 83.4057 24.4159 83.7411 26.2498C83.747 26.2802 83.7627 26.3077 83.7859 26.3281C83.9972 26.4933 84.1736 26.6989 84.3046 26.933C84.4355 27.1671 84.5186 27.4249 84.5488 27.6914C84.5789 27.958 84.5557 28.2279 84.4804 28.4853C84.4051 28.7428 84.2792 28.9826 84.1102 29.1909C83.976 29.3474 84.3506 30.0296 84.1717 32.4227C83.9312 35.6377 85.5807 38.014 87.465 38.6011C87.465 39.3279 87.437 42.0341 87.437 42.6716C85.4744 39.6131 84.44 39.0819 81.1747 36.9628C81.007 36.851 81.0014 37.1473 81.6053 34.8493C81.9917 34.7253 82.3455 34.5163 82.6406 34.2376C82.9357 33.959 83.1647 33.6177 83.3106 33.239C83.434 31.9373 83.434 30.6268 83.3106 29.3251C83.4597 28.8272 83.4944 28.3021 83.4121 27.789C83.3298 27.2758 83.1327 26.7879 82.8353 26.3617C82.3247 25.4989 81.5561 24.8183 80.638 24.4159C78.8543 23.6667 77.1993 24.4159 75.7344 25.0589C74.057 25.8473 74.1576 26.3225 74.3645 28.1453C74.3669 28.2907 74.403 28.4335 74.4699 28.5625C74.5368 28.6916 74.6328 28.8033 74.7503 28.8889C74.3589 30.2029 73.7942 32.6239 74.2191 33.9211C74.3819 34.3865 74.6366 34.8143 74.9679 35.1793C75.2993 35.5443 75.7006 35.839 76.1481 36.0458C76.109 36.2136 76.0251 36.5267 75.9636 36.7615C75.6896 36.6888 75.1864 36.5658 74.8901 36.4987C73.0058 35.6209 71.2949 34.62 69.3603 34.8213C69.2107 34.8425 69.0686 34.9001 68.9465 34.9891C68.6634 34.7169 68.3314 34.5007 67.968 34.3517C67.6661 33.7925 62.6451 25.741 62.5836 25.646C62.332 25.249 62.1195 24.9023 62.304 24.4998C62.4885 24.0972 62.9806 23.3815 62.9246 22.7888L67.5095 22.7609C67.6578 22.7609 67.8 22.7019 67.9049 22.5971C68.0098 22.4922 68.0687 22.35 68.0687 22.2017V20.6585C68.0687 20.5102 68.0098 20.368 67.9049 20.2632C67.8 20.1583 67.6578 20.0994 67.5095 20.0994H50.881C50.7327 20.0994 50.5904 20.1583 50.4856 20.2632C50.3807 20.368 50.3218 20.5102 50.3218 20.6585V22.4589C50.3218 22.6072 50.3807 22.7494 50.4856 22.8543C50.5904 22.9591 50.7327 23.0181 50.881 23.0181L57.1935 22.9566C57.8082 24.0195 58.7248 24.8758 59.8271 25.4167C60.0619 25.5397 60.0395 25.5565 60.4924 27.9552C61.2305 31.8188 61.9909 35.8166 64.4064 39.0092C64.3616 39.1211 64.3281 39.2329 64.2889 39.3447C64.2774 39.382 64.2749 39.4214 64.2816 39.4598C64.2883 39.4982 64.3041 39.5345 64.3275 39.5656C64.351 39.5967 64.3816 39.6218 64.4167 39.6389C64.4517 39.6559 64.4904 39.6643 64.5294 39.6634C64.7142 39.6582 64.8981 39.6924 65.0688 39.7637C65.2394 39.8351 65.3929 39.9419 65.519 40.0772C65.424 41.1675 65.6364 41.7546 66.928 42.7219C67.2523 42.9623 69.4385 44.1532 70.0145 44.4552C69.7572 45.4728 69.5392 46.5128 69.3323 47.5584C63.467 47.7541 50.6349 47.8715 50.3218 48.1175C50.2285 48.1913 50.1536 48.2858 50.1032 48.3935C50.0527 48.5012 50.028 48.6192 50.0311 48.7381C49.9416 50.9747 49.7515 63.7452 49.7683 64.3323C49.7683 65.4506 49.9528 66.1327 51.1437 66.0097C52.0104 66.0097 62.7234 65.7357 67.1181 65.6239C67.051 66.362 67.0287 66.3732 67.1181 66.4347C67.6209 66.8164 68.1894 67.1026 68.7955 67.2789C68.3978 69.554 68.2571 71.8666 68.3762 74.173H68.3818ZM78.2784 40.2393C76.9421 40.3959 74.823 40.1834 74.4428 38.9533C74.2974 38.3942 74.8286 37.3933 75.1137 37.0467L76.0866 37.2759C76.1459 37.2896 76.2081 37.2798 76.2603 37.2485C76.3124 37.2172 76.3504 37.1669 76.3662 37.1082C76.4389 36.7951 76.5283 36.4596 76.5898 36.2136C76.8079 36.2863 77.0427 36.3757 77.0931 36.1688C77.099 36.1468 77.1005 36.1238 77.0975 36.1012C77.0945 36.0786 77.0871 36.0568 77.0757 36.0371C77.0642 36.0173 77.049 36 77.0309 35.9862C77.0128 35.9723 76.9921 35.9622 76.9701 35.9564C75.2927 35.4923 74.3813 33.8429 74.7335 31.925C74.9092 30.6608 75.1594 29.408 75.4828 28.1733C75.9695 28.7193 76.6213 29.0913 77.339 29.2326C78.0566 29.3739 78.8008 29.2768 79.4582 28.956C79.3189 29.9798 79.3994 31.0215 79.6945 32.0117C79.9895 33.0019 80.4922 33.9178 81.1691 34.6983C80.5149 36.9349 80.4926 36.9349 80.6603 37.1809C80.8281 37.4269 81.3928 37.6617 82.0358 38.1538C81.0748 39.2781 79.7409 40.0185 78.2784 40.2393ZM78.2784 41.2458C77.9877 41.2458 78.2784 40.7146 78.5188 40.7146C78.7593 40.7146 78.4685 41.229 78.2784 41.2458ZM76.5619 41.106C76.5619 41.3967 76.0028 41.6148 75.8015 41.4694C75.6002 41.324 75.9077 40.983 76.2096 40.9103C76.2815 40.8913 76.358 40.9011 76.4228 40.9376C76.4875 40.9742 76.5354 41.0346 76.5563 41.106H76.5619ZM74.6832 40.5972C74.6603 40.6172 74.6329 40.6315 74.6034 40.6388C74.5739 40.6461 74.543 40.6461 74.5134 40.639C74.4838 40.6319 74.4564 40.6178 74.4334 40.5978C74.4104 40.5779 74.3925 40.5528 74.3813 40.5245C74.3198 40.2281 74.7615 40.066 74.8509 40.1834C74.9404 40.3008 74.8733 40.435 74.6776 40.5972H74.6832ZM82.9751 49.1519C83.0113 49.1668 83.042 49.1925 83.063 49.2256C83.084 49.2586 83.0944 49.2973 83.0925 49.3364C83.0823 49.3741 83.0608 49.4078 83.0307 49.4328C83.0007 49.4578 82.9637 49.4729 82.9248 49.4762C81.2474 49.3252 79.9894 48.2349 79.6427 46.1605C79.6338 46.1138 79.6438 46.0655 79.6706 46.0262C79.6973 45.9868 79.7386 45.9598 79.7853 45.9509C79.832 45.942 79.8803 45.952 79.9196 45.9787C79.959 46.0055 79.9861 46.0467 79.995 46.0934C80.1761 46.8207 80.5468 47.487 81.0693 48.0242C81.5919 48.5615 82.2476 48.9506 82.9695 49.1519H82.9751ZM61.0572 22.923C61.0907 23.0628 60.6937 23.1131 60.347 24.0692C60.3382 24.1132 60.3457 24.1589 60.3681 24.1978C60.3905 24.2366 60.4263 24.266 60.4687 24.2804C60.5112 24.2948 60.5575 24.2932 60.5989 24.2759C60.6403 24.2587 60.674 24.2269 60.6937 24.1866C60.9901 23.3815 61.6834 23.5325 61.5492 22.8783C61.2864 21.609 61.5995 20.9549 62.0356 21.0835C62.1195 21.0835 62.0748 22.2017 62.3487 22.4869C62.8352 23.046 61.9518 23.8847 61.7896 24.5053C61.7448 24.7077 61.7467 24.9176 61.7952 25.1191C61.8436 25.3206 61.9373 25.5085 62.0692 25.6683C62.1754 25.8305 67.1908 33.9323 67.5263 34.4579C66.3446 35.6202 65.3539 36.9619 64.5909 38.4333C61.8847 34.6145 61.3535 29.8115 60.4421 25.4279C60.3291 25.1907 60.1288 25.0064 59.883 24.9135C59.0151 24.4634 58.2849 23.7873 57.7695 22.9566L61.0572 22.923ZM67.5599 35.1177C67.8115 34.8381 67.8394 34.7822 67.9345 34.8046C68.1634 34.9199 68.3774 35.0626 68.5719 35.2295C67.9121 35.7495 66.1061 37.8462 65.6308 39.4509C65.3926 39.2891 65.1178 39.1892 64.8313 39.1602C65.3457 37.6058 66.4751 36.3422 67.5599 35.1177ZM67.1685 65.1319C62.6395 65.2102 51.2444 65.5289 50.5287 65.4226C50.3218 65.2381 50.333 64.83 50.3386 64.5001C50.3386 64.4386 50.4951 49.616 50.579 48.6654C50.579 48.4753 49.1924 48.5592 69.2093 48.0672C68.214 53.4628 67.722 59.3225 67.1685 65.1319ZM69.2261 67.4131C69.8323 67.5245 70.4538 67.5245 71.06 67.4131C71.0896 67.4087 71.1169 67.3949 71.1381 67.3738C71.1592 67.3526 71.173 67.3253 71.1774 67.2957C72.3293 61.0334 71.2557 60.5861 72.2957 49.219C72.8548 42.8505 73.6935 40.7481 73.5258 40.5413C72.62 39.423 73.1791 38.2097 74.3309 37.3877C73.7718 38.3942 73.9284 39.2105 74.3757 39.7193C74.236 39.7712 74.1168 39.8667 74.0356 39.9916C73.9544 40.1166 73.9157 40.2644 73.9251 40.4131C73.9345 40.5618 73.9916 40.7035 74.0879 40.8172C74.1841 40.9309 74.3144 41.0106 74.4595 41.0445C74.662 41.0576 74.8618 40.9932 75.0186 40.8645C75.1753 40.7358 75.2773 40.5523 75.3038 40.3512C75.477 40.4217 75.6544 40.4814 75.835 40.5301C75.0802 40.9774 75.1025 41.9614 75.986 41.9614C76.2362 41.9779 76.4833 41.8987 76.6774 41.7399C76.8715 41.5811 76.9981 41.3545 77.0316 41.106C77.0316 40.5077 76.4053 40.7481 77.7976 40.7146C77.2664 41.7937 78.7257 42.0509 79.0221 41.0053C79.0737 40.8607 79.0737 40.7027 79.0221 40.558C81.6053 39.9989 80.1907 38.9869 79.0221 43.3872C78.0995 46.8203 78.4629 50.9132 78.9494 53.7703C78.3057 54.2768 77.7071 54.838 77.1602 55.4477C76.5227 54.1114 76.2488 53.5075 76.109 53.2447C75.9692 52.9819 75.9636 53.0434 75.8853 53.0658C75.589 53.1665 74.795 53.4796 74.0346 53.7983C74.3533 50.382 74.5378 48.2852 75.1529 43.281C75.1566 43.2375 75.1437 43.1942 75.1169 43.1598C75.0901 43.1253 75.0513 43.1023 75.0082 43.0952C74.9651 43.0882 74.921 43.0976 74.8846 43.1217C74.8482 43.1458 74.8222 43.1827 74.8118 43.2251C74.3254 46.2109 73.7495 50.0745 73.509 54.0275C72.9499 54.2624 72.6591 54.3798 72.5138 54.4636C72.3684 54.5475 72.3796 54.5867 72.4075 54.6593C72.5305 54.9557 72.8884 55.7776 73.3301 56.7896C72.771 61.1005 71.4067 74.1898 71.2725 76.0853C70.3968 75.6201 69.5864 75.041 68.8626 74.3632C68.7201 72.0402 68.842 69.7086 69.2261 67.4131ZM78.3287 58.0085C78.6419 57.7402 79.1339 57.2705 79.447 56.963C80.2466 63.9689 80.8001 60.5806 80.1683 72.3559C80.0397 74.7378 79.9279 76.8289 80.0005 77.7515C78.6942 77.8387 77.3823 77.7881 76.0866 77.6005C76.1537 76.1747 76.7799 63.4936 76.8918 62.1573C77.737 61.8228 78.5557 61.4247 79.3408 60.9664C79.4526 60.8657 79.4246 60.9887 78.3287 58.0085ZM84.2444 92.6747V93.5302C80.0844 92.9152 76.6066 92.4119 75.0299 92.1547C75.0019 91.8193 74.9795 91.5453 74.9628 91.3775C76.0363 87.8159 77.6242 83.0856 76.1705 79.6358C75.9748 79.1661 75.8182 79.5854 76.5116 78.1988C77.5639 78.3169 78.6238 78.3542 79.6818 78.3106C80.6715 79.6693 80.2689 79.8762 80.1795 81.1063C79.8663 85.2383 82.2203 88.9621 84.2444 92.6747ZM84.2779 94.1117C84.3115 94.5255 84.373 94.956 84.4456 95.3809L75.1249 93.7427C75.1249 93.3848 75.0858 93.027 75.0634 92.6915C76.9253 93.0046 80.3248 93.5246 84.2779 94.1117ZM75.5387 77.5111C74.2276 77.2895 72.9536 76.8868 71.7533 76.3145C71.8093 75.8001 73.386 60.5582 73.6991 57.6675C75.2367 61.162 75.6561 62.1405 75.8071 62.3865C75.8797 62.504 75.8909 62.476 75.9301 62.476C76.0808 62.4488 76.2287 62.4076 76.3718 62.353C76.0083 66.4235 75.5666 76.0294 75.5387 77.5111ZM75.9804 78.1093C75.3821 79.1605 75.3262 79.2276 75.6058 79.7085C76.1649 80.6758 76.1984 82.465 76.1649 83.5776C76.0698 85.6297 74.5546 90.6954 74.4036 91.193C74.1705 91.399 73.8824 91.5325 73.5745 91.5772C73.2666 91.6219 72.9524 91.5758 72.6703 91.4446C72.5529 91.3999 72.592 91.5285 72.525 90.6395C72.3069 87.6873 71.7366 80.0495 71.4067 76.7506C72.8555 77.4277 74.3969 77.8856 75.9804 78.1093ZM83.7132 68.7774C83.9704 70.9804 84.8035 76.6835 84.9489 77.6564L83.7859 77.9472C83.6014 77.3881 83.0087 75.2969 82.7794 74.8105C82.7546 74.765 82.7166 74.7282 82.6704 74.7047C82.6243 74.6812 82.5721 74.6722 82.5208 74.6788C82.4694 74.6855 82.4213 74.7075 82.3826 74.7419C82.344 74.7764 82.3166 74.8217 82.3042 74.872C82.1364 75.7778 81.9743 76.6891 81.8121 77.5949C81.3369 77.6397 80.9063 77.6732 80.5094 77.7012C80.5094 74.872 80.61 71.9813 80.7777 69.1129C81.7115 69.0402 83.2267 68.8669 83.7132 68.7774ZM81.5941 60.8098C81.5909 60.7736 81.602 60.7375 81.625 60.7094C81.6479 60.6812 81.681 60.6631 81.7171 60.6588C85.631 60.1892 85.4744 60.15 85.5304 60.3066C85.6544 60.7194 85.6962 61.1525 85.6534 61.5814C85.6534 61.7324 85.8155 61.6429 81.8736 62.1405C81.6779 62.1908 81.7115 62.0007 81.5941 60.8098ZM85.4633 77.5278C84.7699 73.8767 84.5966 72.4621 84.1381 68.7047C84.7643 68.6499 85.3862 68.5547 86 68.4196C86.6674 71.2944 87.0069 74.2355 87.0121 77.1868C86.4753 77.293 85.9385 77.416 85.4633 77.5278ZM87.4202 60.9719C87.3643 68.6041 87.56 69.152 86.917 70.438C86.7884 69.6888 86.643 68.934 86.4753 68.2015C86.6516 68.0767 86.8096 67.9281 86.945 67.7598C87.1071 67.5641 86.5088 60.4911 85.5415 55.375C86.0112 55.1961 86.945 54.8159 87.4482 54.5587C87.4538 56.689 87.437 58.864 87.4202 60.9719ZM88.4994 52.4955C88.3746 53.0324 88.056 53.5042 87.6047 53.8206C85.2172 55.3638 79.5309 56.1243 79.475 56.1299C79.4483 56.135 79.4235 56.147 79.403 56.1647C79.3824 56.1823 79.3667 56.205 79.3575 56.2305C78.9709 56.7728 78.5182 57.2649 78.01 57.6954C77.713 58.0392 77.3256 58.293 76.8918 58.4279C76.5507 58.4782 75.7232 58.0645 76.6402 57.9806C76.8838 57.9884 77.1236 57.9183 77.3247 57.7806C77.5257 57.6428 77.6777 57.4446 77.7584 57.2146C77.7713 57.1786 77.7711 57.1393 77.7578 57.1035C77.7445 57.0677 77.719 57.0377 77.6857 57.0189C77.3614 56.8679 77.6298 57.6339 76.081 57.578C75.7064 57.578 75.2256 57.0972 75.8406 57.1419C76.8359 57.2202 77.518 56.538 77.272 56.3535C77.246 56.3322 77.2134 56.3205 77.1797 56.3205C77.1461 56.3205 77.1135 56.3322 77.0875 56.3535C76.6569 56.812 76.0139 56.7002 75.3653 56.6219C75.0466 56.5828 74.8062 56.2417 75.2256 56.1746C75.7847 56.0851 77.1546 56.0907 77.3111 55.9342C78.9885 54.0723 81.404 52.8366 83.3721 51.8469C85.1889 50.9538 86.9298 49.9141 88.5776 48.7381C88.7782 49.9851 88.7517 51.258 88.4994 52.4955ZM88.3708 46.1549C88.6798 46.619 88.8469 47.163 88.8516 47.7205C87.3792 48.8211 85.8426 49.833 84.2499 50.751C84.2052 50.4323 84.1269 49.8452 84.1158 49.6327C86.2349 48.4306 87.7333 47.1949 88.3708 46.1549ZM21.1575 7.4015C39.5362 7.82644 83.3721 9.28577 83.3721 9.28577C84.1717 9.28577 84.5742 9.32491 84.7699 9.31373H84.8203C86.3802 9.53179 87.2693 10.9911 87.56 12.1653C87.7035 12.8715 87.7635 13.5921 87.7389 14.3124C78.0492 14.1502 45.1219 13.401 18.4513 12.2548C18.4513 9.7834 18.6861 7.73139 21.1575 7.4015ZM18.4513 73.3399C17.0311 73.3399 12.5636 73.3399 11.1434 73.407C11.1434 71.6625 11.0428 59.6077 11.026 57.8576C12.0828 57.8967 16.936 57.7737 18.0487 57.7457C18.0599 71.8247 17.8922 71.8471 18.4513 73.3399ZM18.0375 52.6521C16.4887 52.6521 11.7808 52.6521 10.7129 52.7024C10.7464 52.065 10.7688 50.4659 10.7856 49.6998C11.8256 49.6998 16.444 49.5712 18.0543 49.4818C18.0319 50.5162 18.0319 51.5785 18.0319 52.6129L18.0375 52.6521ZM18.0375 48.9786C17.2659 48.9786 10.8862 49.1743 10.5619 49.2022C10.2376 49.2302 10.2991 49.5321 10.2824 50.0912C10.2209 51.942 10.2041 52.6912 10.2376 52.9987C10.2656 53.2056 10.3103 53.2112 10.3886 53.2168C11.1155 53.2671 17.3051 53.1665 18.0431 53.1553V57.2425C10.3439 57.332 10.5563 57.3208 10.5563 57.6283C10.5563 57.7737 10.5563 72.5068 10.6178 73.7872C10.6178 74.05 11.2776 73.9829 18.7085 73.9214C19.5975 75.5988 21.0233 75.733 22.9188 75.8672C24.8142 76.0014 66.5758 74.7825 68.5048 74.7154C69.1891 75.4761 70.0129 76.0986 70.9314 76.5494C71.2054 79.6973 71.6024 85.4955 71.8484 89.1969C68.3315 89.4318 9.78474 93.765 7.70477 93.916C7.70477 92.5238 7.45316 46.4233 7.45316 46.4233C8.37014 46.4233 16.9584 46.2835 18.0264 46.25V48.9394L18.0375 48.9786ZM5.03212 97.4553C4.38912 96.7899 4.66309 98.814 4.66309 45.456C4.66309 43.7786 5.78136 43.3425 7.08413 43.2698C8.76153 43.1748 11.8368 43.3425 18.0264 43.1636V45.6964C16.7403 45.6964 7.19037 45.853 7.19037 45.853C7.15346 45.8543 7.11716 45.8628 7.08357 45.8782C7.04998 45.8935 7.01977 45.9154 6.99467 45.9425C6.88285 46.0655 7.1736 94.2291 7.19596 94.285C7.20687 94.31 7.22486 94.3313 7.24772 94.3462C7.27057 94.3611 7.29728 94.369 7.32456 94.3689C7.32456 94.3689 66.2179 90.1083 71.882 89.6442C71.882 90.0021 72.0385 92.0205 72.0609 92.2945C64.5014 92.9096 5.59125 97.3826 5.03212 97.4553ZM35.6949 103.891L6.37963 97.8076C17.1038 97.1086 63.5229 93.5526 71.9323 92.8257C71.8355 93.1403 71.7101 93.4454 71.5576 93.7371C66.2403 94.1452 18.5631 98.1486 18.5631 98.1486C18.2109 98.1822 18.2388 98.7078 18.5631 98.7078L34.476 101.604C34.5207 101.604 35.6781 101.509 84.8985 97.131C84.8985 97.2037 84.9321 97.254 84.988 97.2932C85.48 97.6007 86.2628 97.2932 86.2628 97.0639C86.2496 96.7678 86.2836 96.4715 86.3635 96.1861C86.3635 96.1861 86.5256 96.2588 86.822 97.1366C86.8276 97.1557 86.8376 97.1732 86.8512 97.1877C86.8648 97.2023 86.8816 97.2135 86.9002 97.2205C87.9294 97.588 88.9882 97.8667 90.0649 98.0536C90.2679 98.0568 90.4686 98.0107 90.6498 97.9191C90.8309 97.8275 90.9871 97.6933 91.1049 97.528C91.1734 97.3693 91.1934 97.1939 91.1626 97.0238C91.1318 96.8537 91.0514 96.6965 90.9316 96.5719C89.9256 96.1706 89.0331 95.5295 88.3316 94.7044C95.8743 95.8226 104.099 96.9409 107.202 97.3938L35.6949 103.891Z" fill="black"/>
</svg>
