<svg width="113" height="113" viewBox="0 0 113 113" fill="none" xmlns="http://www.w3.org/2000/svg">
<path d="M95.9795 36.7054C95.7 37.8237 94.0058 37.2646 93.3852 37.0577C93.3325 37.0377 93.2741 37.0394 93.2227 37.0625C93.1713 37.0856 93.1312 37.1281 93.1112 37.1807C93.1112 37.2422 92.9379 37.8349 92.7142 38.6959C92.7003 38.7445 92.7032 38.7964 92.7224 38.8431C92.7417 38.8898 92.7763 38.9286 92.8204 38.9531C93.5563 39.3355 94.368 39.5494 95.1968 39.5794C95.247 39.5824 95.2947 39.6022 95.3322 39.6357C95.3698 39.6692 95.3949 39.7144 95.4036 39.7639L95.521 40.3957C95.5251 40.4245 95.5349 40.4522 95.5498 40.4771C95.5648 40.5021 95.5846 40.5238 95.608 40.541C95.6314 40.5581 95.6581 40.5705 95.6864 40.5772C95.7146 40.584 95.744 40.585 95.7727 40.5802L97.4501 40.3398C97.4802 40.3347 97.5089 40.3233 97.5344 40.3063C97.5598 40.2894 97.5814 40.2673 97.5977 40.2414C97.6141 40.2156 97.6248 40.1866 97.6292 40.1563C97.6336 40.1261 97.6317 40.0953 97.6234 40.0658C97.5675 39.8478 97.4836 39.5067 97.4109 39.1992C97.4003 39.1583 97.402 39.1152 97.416 39.0754C97.4299 39.0356 97.4554 39.0008 97.4892 38.9755C97.9329 38.6256 98.2508 38.1409 98.395 37.5945C99.0827 34.9889 96.1585 33.3059 96.1585 33.3059C94.3581 32.2547 92.703 31.6844 93.0553 30.6612C93.4746 29.4367 95.2918 30.4264 95.8509 30.7954C95.899 30.8242 95.9562 30.8338 96.0111 30.8224C96.066 30.811 96.1146 30.7794 96.1473 30.7339L96.9972 29.3529C97.0257 29.3032 97.0346 29.2447 97.0222 29.1889C97.0098 29.133 96.9769 29.0838 96.9301 29.0509C95.3477 27.9718 94.5482 28.3017 94.4866 27.9327L94.3469 27.0045C94.3385 26.946 94.3074 26.8932 94.2603 26.8576C94.2131 26.8219 94.1538 26.8064 94.0953 26.8144L92.457 27.066C92.4277 27.0705 92.3997 27.0812 92.3747 27.0972C92.3498 27.1132 92.3284 27.1342 92.3121 27.159C92.2958 27.1837 92.2848 27.2116 92.2799 27.2409C92.275 27.2701 92.2763 27.3001 92.2837 27.3288C92.485 28.1507 92.5688 28.2961 92.3676 28.3967C91.9551 28.6039 91.6004 28.9099 91.3351 29.2874C91.0697 29.665 90.9019 30.1024 90.8467 30.5606C90.5 34.6143 96.6114 34.2341 95.9795 36.7054ZM26.9994 44.0357C26.8093 45.2881 24.6958 45.1539 23.9633 45.0756C23.8926 45.0691 23.822 45.0897 23.7659 45.1334C23.7098 45.177 23.6725 45.2403 23.6614 45.3105L23.516 47.1053C23.5054 47.1585 23.5149 47.2138 23.5429 47.2603C23.5708 47.3068 23.615 47.3413 23.667 47.3569C24.5771 47.571 25.5245 47.571 26.4347 47.3569C26.4873 47.3428 26.5433 47.3494 26.5912 47.3754C26.6391 47.4015 26.6751 47.4449 26.6919 47.4967L26.91 48.3298C26.9194 48.3578 26.9343 48.3836 26.9538 48.4058C26.9732 48.428 26.9969 48.4461 27.0234 48.4591C27.0499 48.4721 27.0787 48.4797 27.1082 48.4815C27.1377 48.4833 27.1672 48.4793 27.1951 48.4696C27.808 48.1744 28.4415 47.924 29.0906 47.7203C29.1564 47.6951 29.2102 47.6459 29.2413 47.5827C29.2724 47.5195 29.2785 47.4468 29.2583 47.3793C29.1689 47.1612 29.0123 46.6356 28.9005 46.3169C28.8854 46.2717 28.8831 46.2232 28.894 46.1768C28.9048 46.1304 28.9284 46.0879 28.962 46.0541C29.4263 45.5762 29.7327 44.9673 29.8398 44.3096C30.3542 41.2959 26.8373 40.3007 26.8373 40.3007C24.6734 39.6744 22.7277 39.5235 23.0128 38.3213C23.3539 36.8788 25.4954 37.4659 26.2055 37.6783C26.2715 37.696 26.3418 37.6894 26.4033 37.6596C26.4649 37.6299 26.5138 37.579 26.5409 37.5162L27.3293 35.7941C27.343 35.7687 27.3516 35.741 27.3545 35.7124C27.3574 35.6837 27.3546 35.6548 27.3463 35.6273C27.338 35.5997 27.3243 35.5741 27.306 35.5518C27.2877 35.5296 27.2653 35.5112 27.2398 35.4977C26.3856 35.1611 25.4655 35.0253 24.5504 35.1007C24.4998 35.107 24.4486 35.0953 24.4057 35.0678C24.3628 35.0402 24.3309 34.9984 24.3156 34.9498L24.0304 33.9433C24.0215 33.9126 24.006 33.8841 23.9848 33.8601C23.9637 33.836 23.9375 33.8169 23.9082 33.8041C23.8788 33.7912 23.847 33.7851 23.815 33.7859C23.7829 33.7868 23.7515 33.7947 23.7229 33.8091L21.9001 34.3291C21.8337 34.3521 21.7787 34.3998 21.7464 34.4622C21.7142 34.5247 21.7072 34.5971 21.7268 34.6646C22.0679 35.7829 22.1629 35.8947 21.9616 36.0513C21.52 36.373 21.1592 36.7931 20.9078 37.2783C20.6565 37.7635 20.5215 38.3005 20.5135 38.8469C20.5638 43.32 27.4467 41.1841 26.9994 44.0357ZM53.4687 18.7909C53.7763 18.9586 53.1277 19.6072 53.4687 19.7414L54.8051 20.1272C54.8297 20.1347 54.8556 20.137 54.8811 20.1339C54.9067 20.1308 54.9313 20.1225 54.9534 20.1093C54.9755 20.0961 54.9947 20.0785 55.0096 20.0575C55.0244 20.0365 55.0348 20.0126 55.0399 19.9874C55.2356 19.227 55.2412 19.1487 55.3866 19.1151C55.8628 18.9985 56.292 18.739 56.6166 18.3715C58.1766 16.6494 56.7229 14.3905 56.7229 14.3905C55.8339 12.9871 54.8498 11.9974 55.5207 11.3488C56.3259 10.566 57.2317 11.9079 57.5168 12.4C57.5288 12.4196 57.5446 12.4366 57.5633 12.45C57.5819 12.4634 57.603 12.473 57.6254 12.4782C57.6477 12.4834 57.6709 12.4841 57.6936 12.4803C57.7162 12.4765 57.7379 12.4682 57.7573 12.4559L58.9314 11.7011C58.9528 11.6894 58.9716 11.6736 58.9869 11.6546C59.0021 11.6356 59.0134 11.6138 59.0202 11.5904C59.0269 11.567 59.029 11.5425 59.0262 11.5183C59.0235 11.4941 59.016 11.4707 59.0041 11.4494C58.6976 10.8712 58.2636 10.3703 57.7349 9.98452C57.5951 9.87829 57.6566 9.78323 57.953 9.034C57.9626 9.01176 57.9674 8.9877 57.9668 8.96346C57.9663 8.93923 57.9605 8.91539 57.9499 8.8936C57.9393 8.87181 57.924 8.85259 57.9053 8.83725C57.8865 8.82191 57.8646 8.81082 57.8411 8.80475L56.544 8.43572C56.4943 8.42378 56.442 8.43172 56.3981 8.45783C56.3542 8.48395 56.3223 8.52618 56.3091 8.57551L56.1134 9.26324C56.1028 9.30329 56.0798 9.33895 56.0476 9.36507C56.0155 9.39119 55.9759 9.40644 55.9345 9.40861C55.537 9.4285 55.1497 9.54159 54.8039 9.73876C54.4581 9.93593 54.1636 10.2116 53.944 10.5437C52.0374 13.4623 56.667 15.2627 55.1964 16.901C54.5479 17.6279 53.519 16.655 53.1556 16.2803C53.1212 16.2469 53.075 16.2281 53.027 16.2281C52.979 16.2281 52.9329 16.2469 52.8984 16.2803L51.9982 17.2756C51.9709 17.3087 51.956 17.3502 51.956 17.393C51.956 17.4359 51.9709 17.4774 51.9982 17.5104C52.3834 18.0446 52.8866 18.4828 53.4687 18.7909ZM63.9245 33.3786C63.9283 33.4233 63.9478 33.4652 63.9795 33.4969C64.0112 33.5287 64.0531 33.5481 64.0978 33.5519C76.5217 34.6199 77.0529 35.2852 77.2598 35.0448C77.4667 34.8044 77.7574 33.9266 77.3604 33.8483C73.1079 32.9397 68.7804 32.4269 64.4333 32.3163C64.0866 32.3163 63.8965 33.0096 63.9245 33.3786ZM51.1987 28.9223C50.7402 28.9223 52.9096 29.3473 63.712 31.6006C67.8493 31.8448 71.9693 32.3246 76.0521 33.0375C76.0572 33.0394 76.0627 33.0402 76.0681 33.0399C76.0736 33.0396 76.0789 33.0383 76.0838 33.036C76.0888 33.0336 76.0932 33.0303 76.0969 33.0263C76.1005 33.0222 76.1034 33.0175 76.1052 33.0124C76.107 33.0072 76.1078 33.0018 76.1076 32.9963C76.1073 32.9909 76.1059 32.9855 76.1036 32.9806C76.1013 32.9757 76.098 32.9712 76.0939 32.9676C76.0899 32.9639 76.0852 32.9611 76.08 32.9593C70.0246 30.0518 58.417 28.5924 51.1987 28.9223Z" fill="black"/>
<path d="M95.7952 44.606C98.5237 44.606 102.365 43.2976 103.657 40.6921C107.269 33.3842 103.835 25.0364 99.1835 22.9899C97.6682 22.3302 96.125 22.1792 93.5083 22.4308C92.5429 22.5441 91.61 22.8499 90.7649 23.3301C89.9197 23.8103 89.1795 24.4551 88.5879 25.2265C83.4439 31.6118 87.0615 44.606 95.7952 44.606ZM86.849 30.0685C88.2636 22.5706 94.7552 20.8932 99.1164 24.9413C105.58 30.9352 103.36 43.4989 95.9853 44.1307C90.1423 44.6507 85.4512 37.4603 86.8434 30.1133L86.849 30.0685Z" fill="black"/>
<path d="M92.6527 41.8215C93.4459 42.2407 94.3276 42.465 95.2247 42.4756C98.6746 42.4756 102.046 38.612 101.375 32.8642C100.531 25.4948 93.6592 21.9331 89.8235 26.6578C86.2619 31.047 87.7156 39.2718 92.6527 41.8215ZM93.6815 24.9413C96.7624 24.6505 100.458 27.6195 101.068 32.9089C101.772 39.0593 97.3998 43.8287 92.8372 41.4524C90.9642 40.4795 88.8115 38.0305 88.3642 34.0663C87.9169 30.1021 89.7285 25.3103 93.6815 24.9413ZM52.6916 22.1176C53.2374 22.3417 53.8236 22.4504 54.4135 22.4369C55.0033 22.4235 55.584 22.2881 56.119 22.0394C61.8166 19.6071 63.7456 9.17933 58.6072 7.03226C55.2524 5.62884 51.769 9.006 50.4327 12.4111C49.0069 16.0455 49.471 20.7869 52.6916 22.1176ZM57.0696 7.08818C60.3573 7.08818 61.6656 10.7449 61.1792 14.15C60.7431 17.1861 58.9427 20.0992 56.6279 21.4187C54.3131 22.7383 52.0709 22.0561 50.9079 20.0321C48.2409 15.3577 52.2666 7.08818 57.0696 7.08818Z" fill="black"/>
<path d="M52.8258 23.8901C53.8225 24.3643 54.9045 24.6324 56.0073 24.6785C59.1496 24.6785 62.3702 21.9723 63.9525 17.9689C65.697 13.4958 64.8304 8.69848 61.9341 6.78625C61.1068 6.36395 60.2555 5.99056 59.3844 5.66799C54.0727 3.45382 47.5141 10.7896 48.6379 18.3715C49.0684 21.2342 50.5893 23.2527 52.8258 23.8901ZM49.6947 12.1036C50.5095 9.88261 51.9945 7.96976 53.9441 6.62969C55.7501 5.46111 57.6455 5.19273 59.2838 5.86928C64.8751 8.18967 63.6115 18.9082 57.735 22.6992C51.6293 26.6354 46.6754 19.7637 49.6947 12.1036ZM23.5273 54.3963C26.4981 54.5748 29.4218 53.5903 31.6794 51.651C37.5895 47.8098 38.2716 39.3501 33.6084 33.8259C30.1083 29.6771 24.4555 28.2346 19.8706 30.3145C7.36838 34.2229 11.0307 53.3843 23.5273 54.3963ZM25.6296 29.7945C35.599 31.0694 39.9658 44.0915 32.6076 50.5271C25.406 56.8062 13.5971 50.7173 13.7593 40.3901C13.8655 33.988 19.1325 28.995 25.6296 29.8001V29.7945Z" fill="black"/>
<path d="M20.9887 49.8674C22.1118 50.5135 23.3581 50.9165 24.6468 51.0504C25.9355 51.1843 27.238 51.046 28.4699 50.6446C33.8376 48.8442 36.2251 42.2576 33.0884 36.7725C29.9516 31.2874 23.024 30.007 18.7131 33.742C13.6865 38.1256 15.0508 46.5182 20.9887 49.8674ZM24.3883 32.0702C28.9676 32.0702 33.0604 35.6095 33.8935 40.3845C35.2913 48.3298 26.7646 53.8596 20.0829 48.8386C18.8039 47.8798 17.7692 46.6327 17.0629 45.1987C16.3565 43.7647 15.9986 42.1842 16.0181 40.5858C16.1187 35.822 19.7531 32.0702 24.3883 32.0702ZM63.2368 50.9745C63.1935 50.9749 63.1518 50.9904 63.1189 51.0185C63.086 51.0465 63.064 51.0851 63.0566 51.1277C63.0493 51.1703 63.0572 51.2141 63.0789 51.2515C63.1005 51.2889 63.1347 51.3175 63.1753 51.3323C64.9142 51.8915 65.1546 50.6614 64.4221 49.0287C64.408 48.9864 64.3777 48.9515 64.3379 48.9316C64.298 48.9117 64.2519 48.9084 64.2096 48.9225C64.1674 48.9366 64.1324 48.9669 64.1125 49.0067C64.0926 49.0465 64.0893 49.0927 64.1034 49.1349C64.2196 49.6358 64.2833 50.1473 64.2935 50.6614C64.2712 50.9018 64.26 50.9857 63.2368 50.9745ZM59.4291 51.1087C59.211 52.7861 61.1736 54.1839 62.5602 53.5241C62.5972 53.505 62.6261 53.4732 62.6416 53.4346C62.657 53.3959 62.6581 53.353 62.6445 53.3136C62.6309 53.2743 62.6037 53.2411 62.5676 53.2202C62.5316 53.1993 62.4893 53.1921 62.4484 53.1998C62.1309 53.2478 61.807 53.2315 61.4959 53.1519C61.1848 53.0724 60.8928 52.9312 60.6373 52.7367C60.3818 52.5422 60.1679 52.2983 60.0084 52.0196C59.8489 51.741 59.7469 51.4331 59.7086 51.1143C59.7094 51.0772 59.6954 51.0413 59.6697 51.0146C59.644 50.9879 59.6087 50.9724 59.5716 50.9717C59.5346 50.9709 59.4987 50.985 59.472 51.0106C59.4452 51.0363 59.4298 51.0716 59.4291 51.1087ZM61.3357 48.2962C61.8948 48.3857 62.1912 46.6524 61.6209 46.5629C61.0506 46.4735 60.7598 48.2012 61.3357 48.2962ZM66.6531 47.0494C66.0939 46.9543 65.7808 48.7883 66.4182 48.7883C66.955 48.7883 67.2178 47.1444 66.6531 47.0494ZM62.6385 44.6507C62.1576 43.6946 60.6536 43.6498 59.9658 44.6507C59.9388 44.687 59.9256 44.7318 59.9286 44.7771C59.9316 44.8223 59.9507 44.8649 59.9824 44.8973C60.0141 44.9297 60.0564 44.9496 60.1015 44.9536C60.1467 44.9576 60.1917 44.9454 60.2286 44.9191C60.5215 44.6731 60.8896 44.5345 61.2719 44.5264C61.6543 44.5183 62.0279 44.641 62.331 44.8743C62.3653 44.8982 62.4062 44.9108 62.448 44.9103C62.4898 44.9099 62.5304 44.8964 62.5642 44.8719C62.5981 44.8473 62.6234 44.8128 62.6367 44.7731C62.65 44.7335 62.6506 44.6907 62.6385 44.6507ZM68.0565 45.5789C68.0817 45.6138 68.1181 45.6391 68.1596 45.6506C68.2012 45.6621 68.2454 45.6592 68.285 45.6423C68.3247 45.6254 68.3574 45.5955 68.3779 45.5576C68.3983 45.5197 68.4052 45.4759 68.3975 45.4335C68.3173 45.2066 68.1846 45.002 68.0103 44.8362C67.8359 44.6704 67.6248 44.5482 67.3942 44.4795C67.1636 44.4108 66.9201 44.3976 66.6834 44.441C66.4467 44.4843 66.2237 44.583 66.0324 44.729C65.9996 44.755 65.9765 44.7915 65.9672 44.8323C65.9578 44.8732 65.9626 44.916 65.9808 44.9538C65.9991 44.9916 66.0296 45.022 66.0675 45.0401C66.1053 45.0582 66.1481 45.0628 66.189 45.0533C66.5136 44.9151 66.8756 44.8919 67.2152 44.9874C67.5548 45.083 67.8516 45.2917 68.0565 45.5789ZM19.7419 85.0592C19.7144 86.2781 19.979 87.4859 20.5135 88.5817C20.5268 88.6156 20.5528 88.6429 20.586 88.6578C20.6192 88.6728 20.6569 88.6743 20.6911 88.6619C20.7253 88.6495 20.7533 88.6243 20.7692 88.5916C20.7852 88.5588 20.7877 88.5212 20.7763 88.4866C20.4137 87.3838 20.2251 86.2312 20.2171 85.0703C20.2171 84.4721 20.3681 83.7843 20.6309 83.7005C20.7595 83.6613 21.0726 83.734 21.7156 84.6734C21.7349 84.7052 21.766 84.7282 21.8022 84.7371C21.8384 84.746 21.8766 84.7402 21.9085 84.7209C21.9404 84.7016 21.9633 84.6705 21.9722 84.6343C21.9811 84.5981 21.9753 84.5599 21.956 84.528C20.9552 82.5095 19.7978 83.0519 19.7419 85.0592ZM26.116 100.754C25.3307 100.66 24.5856 100.355 23.9595 99.8715C23.3335 99.3882 22.8498 98.7445 22.5599 98.0087C22.5392 97.9675 22.5046 97.935 22.4622 97.9168C22.4199 97.8987 22.3725 97.896 22.3284 97.9094C22.2843 97.9228 22.2463 97.9513 22.2211 97.9899C22.196 98.0285 22.1853 98.0748 22.1909 98.1205C22.377 99.0086 22.8729 99.8016 23.5899 100.358C24.3069 100.914 25.1983 101.197 26.1048 101.157C26.1312 101.157 26.1575 101.153 26.1823 101.143C26.207 101.134 26.2296 101.12 26.2488 101.102C26.268 101.083 26.2834 101.062 26.2942 101.037C26.305 101.013 26.3109 100.987 26.3117 100.961C26.3124 100.934 26.3079 100.908 26.2985 100.883C26.2891 100.859 26.2748 100.836 26.2567 100.817C26.2385 100.798 26.2167 100.782 26.1926 100.771C26.1684 100.761 26.1424 100.755 26.116 100.754ZM25.8085 87.4523C25.3108 87.7821 26.0712 89.0122 26.6024 89.0122C26.6562 89.0108 26.7091 88.9977 26.7573 88.9737C26.8055 88.9497 26.8479 88.9155 26.8814 88.8734C26.915 88.8313 26.9389 88.7824 26.9516 88.7301C26.9642 88.6778 26.9653 88.6233 26.9547 88.5705C26.9267 88.0449 26.2446 87.1447 25.8085 87.4523ZM28.1344 86.8148C27.7598 86.5912 27.4914 86.8148 27.5082 87.1503C27.5362 87.6759 28.2015 88.5649 28.6265 88.2686C29.0514 87.9722 28.66 87.1447 28.1344 86.8148ZM15.6994 85.6463C13.2 85.2884 11.2263 85.6463 9.63277 86.6471C9.57605 86.6834 9.53435 86.739 9.51535 86.8037C9.38532 87.223 9.40911 87.6751 9.58245 88.0785C9.59537 88.1059 9.61385 88.1303 9.63672 88.1501C9.65958 88.17 9.68633 88.1848 9.71526 88.1938C9.74419 88.2027 9.77467 88.2055 9.80475 88.202C9.83483 88.1986 9.86385 88.1889 9.88997 88.1735C11.6306 87.2677 13.6208 86.9592 15.554 87.2957C15.5764 87.3014 15.5998 87.3025 15.6227 87.2987C15.6455 87.295 15.6674 87.2865 15.6868 87.2739C15.7062 87.2613 15.7229 87.2448 15.7356 87.2255C15.7483 87.2061 15.7569 87.1843 15.7609 87.1615C15.8507 86.7221 15.8845 86.2731 15.8615 85.8252C15.8594 85.7812 15.8421 85.7393 15.8125 85.7067C15.7829 85.674 15.7429 85.6527 15.6994 85.6463ZM31.7129 93.2952C30.8462 93.2952 30.9245 95.7777 31.7688 95.7554C32.6131 95.733 32.5572 93.2952 31.7129 93.2952ZM34.0277 93.8543C33.8991 93.3399 33.5021 93.2616 33.189 93.6866C32.7305 94.296 32.697 95.6547 33.2952 95.6547C33.8935 95.6547 34.1954 94.4973 34.0277 93.8543ZM55.4481 99.6301H53.7707C53.7037 99.6327 53.6399 99.6597 53.5915 99.706C53.543 99.7524 53.5133 99.8149 53.5079 99.8818L53.3849 100.961C53.38 101.045 53.4074 101.127 53.4614 101.192C53.5155 101.256 53.5921 101.298 53.6756 101.308C54.3187 101.375 54.9671 101.375 55.6102 101.308C55.6909 101.299 55.765 101.259 55.8163 101.196C55.8676 101.133 55.892 101.053 55.8842 100.972L55.7723 99.9377C55.7632 99.8564 55.7257 99.7809 55.6664 99.7247C55.607 99.6684 55.5297 99.6349 55.4481 99.6301ZM56.6278 99.8929L56.5384 100.961C56.5352 101.047 56.5654 101.131 56.6226 101.196C56.6799 101.26 56.7599 101.3 56.8459 101.308C57.5137 101.366 58.1854 101.366 58.8532 101.308C58.9362 101.298 59.0123 101.256 59.0654 101.192C59.1185 101.127 59.1447 101.044 59.1383 100.961C58.9929 100.228 59.1383 99.6413 58.6686 99.6301C58.199 99.619 57.5112 99.6301 56.8962 99.6301C56.8268 99.6328 56.7609 99.6612 56.7113 99.7098C56.6617 99.7583 56.6319 99.8236 56.6278 99.8929ZM59.9435 101.308C60.5962 101.369 61.2533 101.369 61.906 101.308C61.9871 101.299 62.0617 101.259 62.1139 101.197C62.1662 101.134 62.1919 101.053 62.1856 100.972L62.0738 99.9377C62.0629 99.8532 62.0219 99.7754 61.9581 99.7189C61.8944 99.6623 61.8123 99.6308 61.7271 99.6301H59.9938C59.9262 99.6325 59.8617 99.6593 59.8124 99.7056C59.763 99.7519 59.7321 99.8144 59.7254 99.8818L59.6415 100.95C59.6377 100.993 59.6425 101.037 59.6556 101.078C59.6687 101.12 59.6899 101.158 59.718 101.191C59.7461 101.225 59.7804 101.252 59.8191 101.272C59.8578 101.292 59.9001 101.304 59.9435 101.308ZM63.0299 101.308C63.7204 101.358 64.4137 101.358 65.1043 101.308C65.1454 101.305 65.1856 101.294 65.2225 101.275C65.2594 101.257 65.2923 101.231 65.3194 101.2C65.3464 101.169 65.367 101.133 65.38 101.094C65.3929 101.055 65.3981 101.013 65.395 100.972L65.2776 99.9321C65.2619 99.8472 65.2169 99.7705 65.1505 99.7153C65.0841 99.6602 65.0005 99.63 64.9142 99.6301H63.0802C63.011 99.631 62.9445 99.657 62.8931 99.7033C62.8416 99.7496 62.8088 99.813 62.8006 99.8818L62.7168 100.95C62.713 100.994 62.7181 101.038 62.7319 101.081C62.7457 101.123 62.7679 101.162 62.7972 101.195C62.8264 101.229 62.8621 101.256 62.9021 101.275C62.9421 101.294 62.9855 101.305 63.0299 101.308ZM83.578 96.7394C81.9006 96.3872 76.0241 99.0542 75.834 99.2611C75.3755 99.7476 75.588 101.224 75.9738 101.654C76.3596 102.085 86.9328 106.63 90.5112 107.38C91.5009 107.452 94.9843 105.842 95.9069 105.412C97.0251 104.852 98.2272 104.405 98.4285 103.304C98.4285 103.304 98.6354 101.928 98.1098 101.548C94.9507 99.5575 88.5207 97.7682 83.578 96.7394ZM83.5165 97.0917C87.2291 97.8018 94.5426 99.9768 97.6849 101.8C96.7959 102.504 91.5344 104.942 90.7628 105.071C87.8553 103.511 79.6193 100.597 76.1359 99.5463C76.354 99.3282 81.9397 96.7953 83.4885 97.0917H83.5165ZM90.7461 106.843C89.0239 106.843 77.9307 102.258 76.3931 101.442C76.0744 101.274 75.9402 100.323 76.0297 99.8203C78.6576 100.804 90.1142 104.97 90.6231 105.507C90.7535 105.702 90.8309 105.928 90.8476 106.162C90.8642 106.397 90.8196 106.631 90.7181 106.843H90.7461ZM98.0148 103.22C97.875 103.969 97.1928 104.293 95.8342 104.936C94.3429 105.662 92.7968 106.27 91.2101 106.754C91.3371 106.311 91.2973 105.838 91.0983 105.423C92.4458 105.071 97.0307 103.035 98.0036 102.102C98.0426 102.474 98.0313 102.85 97.97 103.22H98.0148Z" fill="black"/>
<path d="M95.879 101.565C95.6554 101.117 83.5446 97.3657 83.0525 97.4719C81.7442 97.7627 80.816 98.0311 78.1769 99.3562C78.1483 99.369 78.1239 99.3897 78.1068 99.416C78.0897 99.4423 78.0806 99.473 78.0806 99.5044C78.0806 99.5357 78.0897 99.5664 78.1068 99.5927C78.1239 99.619 78.1483 99.6398 78.1769 99.6526C81.2913 100.804 90.6008 104.126 90.7798 104.092C95.9126 101.716 96.03 101.861 95.879 101.565ZM79.2728 99.6749C80.4487 99.0189 81.7092 98.5278 83.019 98.2156C87.3187 99.2723 91.5066 100.698 94.7216 101.844C93.3315 102.355 91.9788 102.962 90.6735 103.662C88.1351 102.694 83.3209 100.916 79.2728 99.6749Z" fill="black"/>
<path d="M98.205 91.668C98.1931 91.4973 98.1394 91.3322 98.0484 91.1872C98.2069 91.1844 98.3622 91.142 98.5001 91.0639C98.638 90.9858 98.7542 90.8745 98.8381 90.74C98.922 90.6055 98.971 90.4522 98.9805 90.294C98.99 90.1358 98.9599 89.9777 98.8927 89.8341C103.958 85.2939 110.271 77.5332 109.936 76.605C109.706 75.9844 109.706 77.4717 89.8068 74.279C85.6413 65.1093 80.6091 56.1352 69.2084 55.783C69.1605 55.7818 69.1136 55.7974 69.0759 55.827C69.0382 55.8565 69.0119 55.8983 69.0015 55.9451C68.2858 59.0651 66.0269 66.2331 60.5195 65.3721C56.3931 64.7235 53.4576 59.9988 52.3617 55.5649C53.4805 55.6119 54.6012 55.5857 55.7165 55.4866C55.7547 55.4831 55.7909 55.4677 55.82 55.4426C55.849 55.4176 55.8695 55.3841 55.8787 55.3468C56.3385 53.4302 56.4314 51.4439 56.1527 49.4927C56.1496 49.4688 56.1413 49.4458 56.1285 49.4253C56.1157 49.4048 56.0987 49.3874 56.0785 49.3741C56.0583 49.3608 56.0355 49.352 56.0116 49.3484C55.9878 49.3447 55.9634 49.3463 55.9402 49.3529C54.4417 49.7443 53.972 47.5805 54.4249 46.5573C54.4896 46.3954 54.6075 46.2605 54.7592 46.1747C54.911 46.0889 55.0874 46.0574 55.2594 46.0854C55.4315 46.1134 55.5888 46.1993 55.7054 46.3288C55.8221 46.4583 55.8911 46.6237 55.901 46.7977C55.901 47.5302 57.5784 45.8304 57.3548 44.0971C57.5896 44.0971 57.8189 44.0971 58.0425 44.058C58.3724 44.0188 57.9642 42.744 59.2502 41.5586C59.1161 41.9746 59.0987 42.4194 59.1999 42.8446C59.2726 43.0795 60.3182 43.1018 60.9221 42.9341C61.1401 42.8782 61.0395 42.3023 61.9732 40.5522C63.5359 40.8834 65.1284 41.0539 66.7258 41.061C67.3772 41.5505 67.97 42.1134 68.4927 42.7384C70.9529 45.685 67.8944 54.5249 64.3887 56.4986C62.9741 57.2926 61.593 57.0578 60.1952 56.2247C60.0442 56.1296 59.9324 56.0569 59.8485 56.1743C59.8245 56.2002 59.8112 56.2341 59.8112 56.2694C59.8112 56.3047 59.8245 56.3386 59.8485 56.3644C62.0179 58.1537 64.5956 57.8965 66.6643 55.0449C66.9942 55.0952 68.1908 55.2015 68.3417 54.8995C68.569 54.3813 68.7214 53.8335 68.7946 53.2724C69.2531 54.4634 68.8282 55.3412 69.2643 55.2965C69.7937 55.2743 70.3065 55.1059 70.746 54.8101C70.7636 54.7948 70.7777 54.7759 70.7874 54.7547C70.797 54.7334 70.802 54.7104 70.8019 54.6871C70.8159 53.9615 70.7427 53.2369 70.5839 52.5288C71.361 53.6471 71.389 54.1223 71.54 54.1391C71.8587 54.1894 72.9378 53.3899 72.921 53.1718C72.7475 52.3156 72.4177 51.4987 71.9481 50.7619C71.7024 50.1679 71.6326 49.5158 71.7468 48.8833C72.2108 49.7874 72.5494 50.7505 72.7533 51.746C72.7868 51.9249 72.798 52.0256 72.9769 52.02C73.2957 51.9941 73.6061 51.9051 73.8903 51.7582C74.1744 51.6114 74.4265 51.4096 74.632 51.1645C74.6535 51.1418 74.6689 51.114 74.6768 51.0836C74.6846 51.0533 74.6846 51.0215 74.6767 50.9912C74.5775 50.554 74.4371 50.1271 74.2574 49.7164C75.124 50.1581 76.0689 49.7164 76.0801 49.4424C76.1528 47.3121 75.644 46.4287 75.001 45.7577C75.1743 45.8528 76.3373 45.8024 76.6113 45.165C76.658 44.9401 76.658 44.7079 76.6113 44.4829C76.5339 44.0157 76.3596 43.5699 76.0996 43.1742C75.8396 42.7784 75.4997 42.4414 75.1016 42.1849C74.1623 41.5363 73.3571 41.2343 73.0832 40.1999C74.4866 40.6473 74.453 41.8773 76.0801 42.6266C76.0989 42.6398 76.1214 42.6469 76.1444 42.6469C76.1674 42.6469 76.1899 42.6398 76.2087 42.6266C77.0027 42.2072 77.1425 41.184 76.9524 41.0778C75.644 40.3677 75.4595 38.1982 72.8763 37.8348C74.0784 37.5329 74.5537 37.7286 74.5928 37.4322C74.6359 37.1731 74.6163 36.9073 74.5356 36.6573C74.4548 36.4073 74.3153 36.1803 74.1288 35.9953C72.9274 35.7416 71.6837 35.7684 70.4944 36.0735C70.6342 35.4305 70.7292 34.9553 70.7292 34.9553C70.7292 34.8211 71.3331 34.9161 63.2536 34.206C56.723 32.6181 57.1367 32.674 57.1032 32.8194C57.1032 32.8474 56.9075 35.6486 57.0025 37.7733C57.0696 39.2103 59.8485 40.0658 61.593 40.4571C61.1347 41.1026 60.8375 41.8484 60.7264 42.6322C60.3038 42.6012 59.8796 42.6012 59.4571 42.6322C59.4877 42.1864 59.5512 41.7434 59.6472 41.307C59.692 41.0778 59.7087 41.0051 59.6472 40.9548C59.4515 40.7982 57.8301 41.7767 57.8524 43.7504C57.2374 43.7504 57.0193 43.6889 56.5161 43.6554C56.43 42.5069 56.7463 41.3643 57.4107 40.4236L57.4498 40.3677C57.4616 40.3534 57.4704 40.3369 57.4758 40.3191C57.4812 40.3014 57.483 40.2828 57.4812 40.2644C57.4793 40.246 57.4739 40.2281 57.4652 40.2117C57.4565 40.1954 57.4446 40.1809 57.4303 40.1692C57.416 40.1574 57.3995 40.1486 57.3817 40.1433C57.364 40.1379 57.3454 40.1361 57.327 40.1379C57.3085 40.1397 57.2906 40.1451 57.2743 40.1538C57.258 40.1626 57.2435 40.1744 57.2318 40.1888C56.7914 40.6893 56.4684 41.2819 56.2866 41.9233C56.1047 42.5647 56.0685 43.2386 56.1806 43.8958C56.1871 43.935 56.2057 43.9712 56.2337 43.9992C56.2618 44.0273 56.298 44.0459 56.3372 44.0524C56.5608 44.0859 56.7901 44.1027 57.0193 44.1139C56.9443 44.9487 56.6427 45.7471 56.1471 46.4231C56.0705 46.2217 55.9396 46.0455 55.7688 45.9142C55.598 45.7829 55.3941 45.7016 55.1798 45.6794C53.0886 45.4614 53.452 50.2084 55.8116 49.7331C55.8116 50.9073 55.8116 51.651 55.7277 52.9537L54.9841 53.3787C54.6844 52.6795 54.2872 52.0262 53.8043 51.4385C53.7923 51.4253 53.7776 51.4147 53.7612 51.4075C53.7448 51.4003 53.7271 51.3965 53.7093 51.3965C53.6914 51.3965 53.6737 51.4003 53.6573 51.4075C53.6409 51.4147 53.6263 51.4253 53.6142 51.4385C53.4055 52.2676 53.3505 53.128 53.452 53.977C53.019 53.9778 52.5905 53.8883 52.194 53.7142C51.986 52.4896 51.9465 51.2424 52.0766 50.0071C52.0804 49.9719 52.0734 49.9364 52.0565 49.9053C52.0395 49.8742 52.0135 49.8491 51.9818 49.8333C51.9501 49.8174 51.9144 49.8117 51.8793 49.8168C51.8443 49.8219 51.8117 49.8376 51.7858 49.8617C50.9893 50.5867 50.345 51.4629 49.8904 52.4393C49.4069 52.3254 48.9803 52.0417 48.6882 51.6398C49.5158 49.543 50.7626 49.0678 50.8129 46.7977C50.8153 46.7656 50.8081 46.7336 50.7923 46.7056C50.7764 46.6776 50.7525 46.655 50.7238 46.6406C50.695 46.6262 50.6626 46.6207 50.6307 46.6248C50.5988 46.6289 50.5688 46.6423 50.5446 46.6635C49.7955 47.26 49.0876 47.9064 48.4254 48.5981C48.0704 48.2677 47.8295 47.833 47.7377 47.3568C49.102 46.3839 50.1476 45.4949 50.2985 43.7504C50.2985 43.7113 50.2985 43.5995 50.2314 43.5603C50.1644 43.5212 50.1532 43.5603 49.3592 44.1195C48.8763 44.416 48.4487 44.7944 48.0956 45.2377C47.7281 44.855 47.5271 44.3424 47.5364 43.8119C48.979 42.6154 50.265 42.5371 50.5446 40.4571C50.5489 40.4321 50.5463 40.4063 50.5371 40.3826C50.5278 40.359 50.5123 40.3382 50.4922 40.3227C50.4721 40.3072 50.4481 40.2974 50.4228 40.2945C50.3976 40.2916 50.372 40.2956 50.3489 40.3062C49.464 40.703 48.6485 41.2391 47.9334 41.8941C47.7002 41.5826 47.5328 41.2268 47.4414 40.8485C50.3377 39.4898 50.8521 37.6335 52.7587 36.9849C52.9153 36.9346 52.9097 36.8172 52.8146 36.7557C52.5351 36.5879 50.4607 36.4929 48.61 37.7006C48.3605 37.2942 48.2343 36.8242 48.2465 36.3475C51.5119 35.1118 52.6189 35.2628 54.492 35.5591C53.7396 37.3428 53.2499 39.2262 53.0383 41.1505C53.1837 41.4636 54.0335 41.4133 54.0335 41.4133C54.1206 39.8961 54.3871 38.3946 54.8275 36.9402C54.7134 38.2883 54.6686 39.6413 54.6933 40.9939C55.0278 41.0058 55.3624 40.9738 55.6886 40.8989C55.6215 38.7406 55.6215 34.9497 56.7397 31.9583L62.8902 33.3562C62.9086 33.3596 62.9275 33.3588 62.9456 33.3538C62.9636 33.3488 62.9803 33.3398 62.9943 33.3274C63.0083 33.315 63.0193 33.2995 63.0265 33.2822C63.0336 33.265 63.0367 33.2462 63.0356 33.2276C63.0011 32.8843 63.0733 32.5387 63.2424 32.2379C63.3487 32.0534 63.8351 32.2379 50.4719 29.3192C50.4032 29.3065 50.3323 29.3194 50.2725 29.3555C50.2128 29.3915 50.1683 29.4483 50.1476 29.5149C49.8904 30.3648 50.3321 30.5046 50.3321 30.5046L55.8395 31.757C55.7173 32.3404 55.5471 32.9126 55.3307 33.468C54.5591 32.8474 53.4129 32.5342 53.2172 32.7299C52.6581 33.2891 52.6078 34.1334 52.7699 34.2452C53.1809 34.5065 53.5733 34.7961 53.9441 35.1118C51.8641 34.6869 50.0973 35.1118 47.9614 35.9841C47.925 36.001 47.8942 36.0278 47.8724 36.0614C47.8507 36.095 47.8389 36.1341 47.8384 36.1742C47.8298 36.8358 48.0467 37.4806 48.4534 38.0026C48.6994 38.3157 49.5325 37.2086 51.8809 37.0073C50.5334 37.695 49.6444 39.2942 47.4078 40.4851C47.1842 40.6081 47.0835 40.664 47.0891 40.7759C47.0973 41.0688 47.1672 41.3567 47.2944 41.6207C47.4216 41.8848 47.6032 42.1189 47.8272 42.3079C48.09 42.4197 47.8272 42.2296 50.1476 40.7479C49.5884 42.4588 48.5429 42.3191 47.1674 43.5436C46.9885 43.7001 47.0388 44.8128 47.9446 45.6627C47.9812 45.6985 48.0304 45.7186 48.0816 45.7186C48.1328 45.7186 48.182 45.6985 48.2186 45.6627C48.7144 45.09 49.2776 44.5793 49.896 44.1418C49.2865 46.2945 47.2345 46.8872 47.3128 47.2562C47.3256 47.6147 47.4274 47.9644 47.6089 48.2738C47.7905 48.5831 48.0461 48.8426 48.3528 49.0286C48.6882 49.1572 48.5317 48.8497 50.4719 47.1835C50.237 49.2355 48.7106 49.8226 48.3024 51.6006C48.2242 51.8187 48.8168 52.663 49.9798 52.937C50.4439 53.0376 50.1028 52.2381 51.6572 50.4824C51.5435 51.5997 51.5717 52.7269 51.7411 53.8372C51.825 54.3068 53.0662 54.3963 53.6813 54.3292C54.0503 54.2789 53.6813 54.0944 53.7931 51.9976C54.9561 54.1727 54.4305 54.1391 55.6662 53.4122C55.6215 53.9714 55.5712 54.5305 55.5041 55.0896C52.9768 54.9387 52.2499 55.1623 52.2276 55.0561C52.2052 54.9498 52.1716 54.7653 52.0207 54.7597C36.365 54.2845 25.7415 68.4193 23.1024 83.8011C20.8435 80.9942 18.5175 81.5533 17.6005 83.5886C10.3318 82.6157 4.9082 85.9593 3.80671 92.1265C3.06307 96.2865 3.91854 99.3953 6.60237 102.191C6.24453 106.295 7.16151 106.463 8.8389 106.776C10.0484 106.994 11.2932 106.909 12.4621 106.53C12.5687 106.507 12.6644 106.449 12.7334 106.364C12.8025 106.28 12.8409 106.175 12.8423 106.066C13.3623 106.066 14.4246 106.032 14.7937 105.59C14.9074 105.386 14.9543 105.152 14.9278 104.919C16.7338 105.154 16.007 104.629 16.4319 106.178C16.6332 106.921 16.8009 107.106 17.4272 107.296C18.8641 107.693 23.5776 107.821 23.9299 106.25C24.6512 106.306 26.6305 106.373 27.0386 105.484C27.17 104.926 27.219 104.351 27.184 103.779C30.3823 103.002 32.7418 101.145 34.011 98.4C40.5193 98.0589 45.3838 96.6275 48.8783 94.0276C50.3097 96.5325 51.8865 96.3256 51.1149 94.3798C52.3729 95.7441 53.4297 94.939 52.3897 93.0267C52.6719 93.308 53.0398 93.4871 53.4353 93.5355L55.3084 97.3936H54.4193C54.2628 97.3936 54.246 97.4942 54.2348 97.6004C54.231 97.6581 54.231 97.7161 54.2348 97.7738C54.222 97.7707 54.2086 97.7707 54.1957 97.7738H52.5183C52.0934 97.8185 51.7802 98.646 51.4 99.6021C50.7626 101.28 50.757 101.766 50.7458 102.32C50.7115 102.74 50.7698 103.162 50.9166 103.557C51.0635 103.953 51.2953 104.311 51.5957 104.606C51.9703 104.981 66.6476 105.205 66.9439 104.83C67.3188 104.421 67.5703 103.914 67.6693 103.368C67.7682 102.821 67.7106 102.258 67.503 101.744C67.503 101.71 66.094 98.3888 65.8256 98.154C65.4217 97.9619 64.9744 97.879 64.5285 97.9136H64.439V97.7179C64.4322 97.6555 64.4029 97.5979 64.3565 97.5557C64.3102 97.5135 64.2501 97.4896 64.1874 97.4886C63.6282 97.4886 63.2313 97.4607 62.7728 97.4886C62.5491 97.4886 62.5827 97.7626 62.5715 97.8968H61.9173C61.9173 97.8017 61.9173 97.5445 61.6489 97.5389H59.9715C59.7646 97.5389 59.7926 97.7905 59.7814 97.8465H59.2223C59.2223 97.8129 59.2223 97.483 58.9539 97.4774C58.6855 97.4718 58.2047 97.4774 57.9251 97.4774C57.9283 97.429 57.9283 97.3805 57.9251 97.3321C57.8804 96.9518 55.5376 92.3558 55.3363 91.9756H78.7024C83.8017 92.6633 87.1398 92.9708 92.9547 93.2728C93.6369 94.5196 95.0962 94.4525 95.2975 93.6138C96.2928 93.9214 96.9749 93.653 96.9749 92.6298C97.2019 92.6669 97.4348 92.6332 97.6419 92.5331C97.8491 92.433 98.0203 92.2715 98.1323 92.0706C108.577 92.0706 108.364 92.1657 108.359 91.8805C108.353 91.5954 108.61 91.668 98.205 91.668ZM69.2867 40.446C69.7586 39.1832 70.1325 37.8859 70.4049 36.5656C71.3778 36.1406 72.8819 36.2077 73.989 36.409C74.167 36.6524 74.263 36.9462 74.2629 37.2477C73.4933 37.2463 72.7357 37.4385 72.06 37.8069C72.0434 37.8152 72.0288 37.827 72.0172 37.8415C72.0057 37.8559 71.9973 37.8727 71.9929 37.8907C71.9425 38.0752 72.183 38.0864 72.3731 38.1088C75.3197 38.4722 75.1687 40.5466 76.7343 41.2847C76.6264 41.674 76.4248 42.0311 76.1472 42.3246C74.604 41.3573 74.6096 40.0266 72.9098 39.8533C72.8904 39.8521 72.871 39.8554 72.8531 39.8628C72.8351 39.8703 72.819 39.8817 72.8061 39.8962C72.7932 39.9108 72.7838 39.928 72.7785 39.9467C72.7732 39.9654 72.7722 39.9851 72.7756 40.0042C72.9713 42.4924 76.0186 41.827 76.3485 45.0364C76.0248 45.2462 75.6494 45.3623 75.2638 45.3719C75.1649 44.7766 74.8933 44.2234 74.4828 43.7811C74.0723 43.3388 73.5409 43.0268 72.9546 42.8838C72.9329 42.8764 72.9098 42.8745 72.8873 42.8782C72.8648 42.8818 72.8434 42.8909 72.8252 42.9047C72.807 42.9185 72.7925 42.9366 72.7829 42.9573C72.7732 42.978 72.7688 43.0008 72.7701 43.0236C72.8169 43.5325 72.9725 44.0255 73.2262 44.4692C73.4798 44.9129 73.8258 45.297 74.2406 45.5956C75.2526 46.507 75.767 47.2226 75.7111 49.3306C75.5235 49.428 75.3176 49.4849 75.1066 49.4974C74.8956 49.5099 74.6844 49.4779 74.4866 49.4033C74.7214 47.1667 73.1782 45.5285 73.0384 46.0485C72.4514 48.2235 73.7933 48.9168 74.2574 50.9576C73.9512 51.2549 73.5606 51.4502 73.1391 51.5168C72.8962 50.3629 72.4392 49.2648 71.7916 48.2794C71.7808 48.2542 71.7629 48.2327 71.7401 48.2176C71.7172 48.2025 71.6904 48.1944 71.663 48.1944C71.6356 48.1944 71.6088 48.2025 71.5859 48.2176C71.563 48.2327 71.5451 48.2542 71.5344 48.2794C70.8746 50.5942 71.8307 50.9576 72.58 53.0823C72.304 53.3229 71.9976 53.5259 71.6686 53.6862C71.2101 52.3834 69.8849 50.9968 70.0583 51.7572C70.2531 52.6793 70.3876 53.6132 70.4608 54.5529C70.1373 54.7086 69.7892 54.8069 69.432 54.8436C69.4979 54.048 69.2778 53.255 68.8114 52.6071C68.7995 52.5865 68.7824 52.5695 68.7618 52.5577C68.7411 52.5459 68.7177 52.5398 68.694 52.54C68.3976 52.54 68.7499 53.0432 67.9951 54.5696C67.6502 54.6465 67.295 54.6654 66.9439 54.6255C68.1941 52.6873 69.0844 50.5394 69.5718 48.285C70.3658 44.3431 69.4097 42.6434 67.3353 41.0163C68.1125 41.0275 69.0407 40.9045 69.2867 40.446ZM74.9059 45.6794C74.2574 45.0253 73.5081 44.5612 73.1223 43.264C73.5997 43.4828 74.0138 43.8192 74.3257 44.2416C74.6377 44.6641 74.8373 45.1588 74.9059 45.6794ZM74.1064 49.4312C73.5864 48.3689 73.0776 47.8097 73.2677 46.4175C73.9009 47.2884 74.1987 48.3584 74.1064 49.4312ZM53.0047 34.0271C53.0778 33.691 53.2291 33.3768 53.4465 33.1102C54.0727 33.2297 54.667 33.4792 55.191 33.8426C55.012 34.3067 54.8163 34.7931 54.6318 35.3019C54.2578 34.6975 53.6811 34.2457 53.0047 34.0271ZM23.2813 104.17C23.1471 104.757 23.3931 105.484 23.3819 106.021C23.3484 107.229 18.7803 107.167 17.5278 106.843C17.265 106.77 17.019 106.709 16.8457 106.077C16.7562 105.753 16.7115 105.518 16.6723 105.294C16.4207 103.919 16.4487 105.395 11.2488 103.706C11.0311 103.619 10.8041 103.557 10.5722 103.522C10.5407 103.52 10.5094 103.529 10.484 103.548C10.4585 103.566 10.4406 103.594 10.4332 103.624C10.4258 103.655 10.4296 103.687 10.4438 103.716C10.458 103.744 10.4817 103.766 10.5107 103.779C11.1183 104.072 11.7557 104.299 12.4118 104.455C12.3447 106.071 12.4844 106.099 12.3055 106.133C11.2009 106.472 10.0303 106.538 8.89481 106.323C7.25097 106.01 6.68624 105.842 7.03291 102.129C7.08882 101.537 3.18049 99.194 4.38262 92.2104C5.39465 86.3787 10.3877 83.2307 17.4216 83.9912C16.9187 85.7426 17.0232 87.6127 17.7179 89.2973C17.729 89.3329 17.7538 89.3626 17.7869 89.3799C17.8199 89.3972 17.8585 89.4007 17.894 89.3896C17.9296 89.3785 17.9593 89.3537 17.9767 89.3206C17.994 89.2876 17.9974 89.249 17.9863 89.2135C16.2642 83.2922 19.837 79.5125 23.6783 85.4058C23.7052 85.4455 23.7444 85.4752 23.7899 85.4904C23.8353 85.5055 23.8845 85.5053 23.9299 85.4896C29.0571 83.8122 29.8567 88.3859 31.9478 89.6719C30.3934 90.3597 29.7616 93.2168 29.6498 94.7041C29.4653 97.0413 30.2537 100.894 32.3057 100.228C28.4421 104.528 23.572 102.94 23.2813 104.17ZM29.8008 83.1133C29.0624 83.6477 28.5108 84.4008 28.224 85.266C27.4212 84.8059 26.4939 84.6103 25.5737 84.7069C29.1913 80.9383 32.1715 81.8832 30.1195 86.9881C29.705 86.4552 29.2218 85.9796 28.6825 85.5735C28.8721 84.7139 29.321 83.9333 29.9685 83.337C29.9982 83.3147 30.0178 83.2816 30.023 83.2449C30.0283 83.2082 30.0187 83.1709 29.9965 83.1413C29.9742 83.1116 29.9411 83.092 29.9044 83.0868C29.8677 83.0815 29.8304 83.0911 29.8008 83.1133ZM33.7147 97.9527C33.4726 98.6266 33.032 99.2114 32.451 99.6301C30.6451 100.653 29.9965 96.7729 30.1586 94.7097C30.2816 93.1553 31.042 89.9627 32.5796 89.9627C34.3297 89.9795 35.051 94.7992 33.7259 97.9527H33.7147ZM51.4 91.5059C51.3875 91.4901 51.3721 91.4769 51.3545 91.4671C51.3369 91.4573 51.3176 91.4511 51.2976 91.4487C51.2776 91.4464 51.2574 91.448 51.238 91.4535C51.2186 91.459 51.2006 91.4683 51.1848 91.4807C51.169 91.4932 51.1558 91.5087 51.146 91.5263C51.1362 91.5438 51.1299 91.5632 51.1276 91.5832C51.1253 91.6032 51.1269 91.6234 51.1324 91.6428C51.1379 91.6621 51.1471 91.6802 51.1596 91.696C51.6325 92.3103 52.0095 92.9927 52.2779 93.7201C52.4009 94.1003 52.4512 94.5476 52.3282 94.6314C52.2052 94.7153 51.8194 94.4973 51.5119 94.2401C50.7235 93.5803 50.3936 92.9205 50.2259 93.0323C50.142 93.0771 50.1755 93.1833 50.2259 93.2728C50.4495 93.6865 51.2547 95.3975 50.8185 95.4478C50.3824 95.4981 49.5158 94.2736 49.2362 93.8207C49.1188 93.625 49.0014 93.407 48.8057 93.5523C44.4836 96.6667 38.7413 97.511 34.2179 97.88C35.1684 95.4086 35.0398 91.9141 33.9272 90.3261C33.7857 90.0844 33.5843 89.8833 33.3423 89.7422C33.1004 89.6012 32.8261 89.525 32.5461 89.521C31.7465 89.2414 30.9917 88.0896 30.3767 87.2845C31.4949 84.5894 31.4949 82.8114 30.304 82.174H30.2704C28.4756 81.38 26.3062 83.0854 24.981 84.7963C24.6465 84.863 24.3161 84.9488 23.9914 85.0535C23.8348 84.7963 23.6671 84.5447 23.5049 84.3099C24.0257 81.8618 24.6941 79.4476 25.5066 77.0803C28.4924 76.8566 39.9434 80.1387 43.1305 82.146C43.1405 82.1528 43.1519 82.1574 43.1638 82.1594C43.1758 82.1614 43.188 82.1608 43.1997 82.1576C43.2114 82.1544 43.2223 82.1487 43.2315 82.1409C43.2408 82.1331 43.2483 82.1234 43.2535 82.1125C46.0491 76.1354 45.8982 71.5896 43.6281 65.8977C43.2591 64.9639 44.0586 65.1037 44.327 65.6405C48.4925 74.0833 44.7911 83.8122 42.2135 87.8492C39.4178 85.6965 37.4832 84.1589 34.011 83.7563C33.9663 83.7493 33.9206 83.7601 33.8837 83.7863C33.8468 83.8126 33.8216 83.8522 33.8136 83.8968C33.8055 83.9414 33.8153 83.9873 33.8407 84.0248C33.8661 84.0623 33.9051 84.0884 33.9495 84.0974C39.7198 85.4002 41.7774 89.0681 46.7369 91.5059C46.7858 91.5298 46.8417 91.535 46.8942 91.5206C46.9467 91.5062 46.9922 91.4731 47.022 91.4276C48.308 89.4203 50.1028 88.3804 51.9815 88.5425C51.8131 88.6401 51.6604 88.7626 51.5286 88.9059C51.2267 89.2302 51.3944 89.4315 51.6405 89.8676C51.6148 89.8938 51.6005 89.9289 51.6005 89.9655C51.6005 90.0021 51.6148 90.0372 51.6405 90.0633C53.9105 91.7687 54.6877 95.1123 51.4 91.5059ZM66.6308 104.478C65.5684 104.478 54.0615 104.411 51.8921 104.243C51.64 103.937 51.4513 103.585 51.337 103.206C51.2228 102.826 51.1853 102.428 51.2267 102.034C56.5156 102.483 61.8299 102.55 67.1284 102.236C67.2146 102.623 67.2147 103.025 67.1287 103.412C67.0427 103.799 66.8727 104.163 66.6308 104.478ZM57.858 99.015V98.9815C58.2882 99.0041 58.7194 99.0041 59.1496 98.9815C59.4571 98.9479 59.3118 98.5454 59.2838 98.2378H59.7702C59.7702 98.5621 59.6025 98.9983 59.938 99.0374C60.5662 99.1045 61.1997 99.1045 61.8278 99.0374C62.1577 99.0039 61.9732 98.5566 61.962 98.2434H62.5603C62.5603 98.5062 62.3926 98.9479 62.7336 98.9927C63.276 99.057 63.824 99.057 64.3663 98.9927C64.5285 98.9927 64.562 98.8529 64.5564 98.7131C64.5564 98.7131 64.5564 98.5174 64.5229 98.3273C64.881 98.3085 65.2398 98.3482 65.5852 98.4447C65.6747 98.5733 66.7985 101.207 67.0501 101.911C63.2592 101.911 54.3131 101.772 51.2658 101.71C51.4 101.05 52.3114 98.2714 52.5686 98.1652H54.1621C54.1731 98.1683 54.1847 98.1683 54.1957 98.1652C54.1957 98.3609 54.1957 98.5398 54.1621 98.5677C54.1621 98.7522 54.1621 98.9032 54.3802 98.9256C55.2106 98.9797 56.0436 98.9797 56.8739 98.9256C57.1703 99.0654 57.2989 99.1157 57.3436 99.1325C57.584 99.2611 57.7574 99.2107 57.858 99.015ZM57.4722 97.1196C57.5688 97.6745 57.5688 98.242 57.4722 98.797C57.1479 98.6684 56.1806 98.1484 56.1191 98.1204C56.0576 98.0925 55.8563 97.6452 53.7819 93.4237C53.8464 93.3647 53.898 93.293 53.9336 93.2132C53.9692 93.1333 53.988 93.047 53.9888 92.9596C54.028 92.2943 53.3961 91.0866 52.1157 90.0466C51.7243 89.2246 51.3721 89.1464 52.4512 88.7158C53.1054 88.453 53.0998 88.632 53.2284 88.8668C54.3299 90.8293 55.8172 93.53 57.461 97.1196H57.4722ZM54.5759 90.4995L53.754 88.9898C55.2692 89.398 56.175 89.9739 56.2868 90.3485C56.3987 90.7231 55.0623 90.5386 54.5759 90.4995ZM92.8373 92.8534C81.1738 92.0035 69.8458 90.315 65.9542 89.5937C71.8587 84.4888 80.3127 77.8854 84.4056 73.6975C93.1504 75.7048 102.052 76.8399 109.494 76.8902C108.739 78.836 101.47 86.5855 98.574 89.5433C97.7465 89.1296 96.0523 89.6216 96.2312 90.5051C95.3255 90.4715 95.0179 90.7846 94.9117 90.9803C94.8608 91.0738 94.8341 91.1786 94.8341 91.285C94.8341 91.3915 94.8608 91.4963 94.9117 91.5898C94.3861 91.5898 93.8941 91.7575 93.8829 92.2719C93.1784 92.0315 92.7982 92.3781 92.8373 92.8255V92.8534ZM93.2846 93.0211C93.0386 92.5403 93.4691 92.4956 93.9891 92.708C94.2234 93.0641 94.5667 93.3348 94.9676 93.4796C94.8278 94.1003 93.6425 93.7312 93.2846 92.9932V93.0211ZM96.399 93.1665C95.9293 93.5467 94.1625 92.8199 94.2911 92.2607C94.319 92.0874 94.5874 91.9308 95.2416 91.9979C95.6419 92.2853 96.103 92.4766 96.5891 92.5571C96.6005 92.6619 96.5894 92.768 96.5566 92.8683C96.5238 92.9685 96.4701 93.0607 96.399 93.1386V93.1665ZM97.7856 91.8358C97.6962 92.1265 97.411 92.2272 96.891 92.1489C95.2136 91.8917 94.5147 90.8349 96.4996 90.9524C96.8285 91.1735 97.2229 91.276 97.6179 91.2431C97.6956 91.3123 97.7525 91.4018 97.7822 91.5016C97.8118 91.6014 97.813 91.7074 97.7856 91.8078V91.8358ZM96.7456 90.6057C96.1865 90.0466 98.1826 89.5769 98.5069 90.0466C98.5421 90.1128 98.5606 90.1868 98.5606 90.2618C98.5606 90.3369 98.5421 90.4108 98.5069 90.4771C98.2777 90.93 97.0588 90.8964 96.7456 90.5777V90.6057Z" fill="black"/>
</svg>
