<svg width="113" height="113" viewBox="0 0 113 113" fill="none" xmlns="http://www.w3.org/2000/svg">
<path d="M102.163 29.09C102.102 28.6706 102.057 28.5309 101.531 28.2904C99.3341 27.379 91.1036 27.2504 88.7273 27.2225C88.7357 26.7657 88.63 26.3141 88.4198 25.9085C87.5308 25.0083 81.8444 25.1146 80.6367 24.8685C80.5248 24.8685 80.536 24.8685 80.5081 24.7679C80.2229 24.069 80.1502 21.7262 79.6862 20.9099C78.8195 19.3779 75.5318 18.5 73.5021 19.9482C72.4551 19.6326 71.3361 19.6482 70.2983 19.9929C69.7388 20.2206 69.2358 20.5678 68.8243 21.0101C68.4129 21.4524 68.1031 21.9792 67.9164 22.5537C67.6004 23.6105 67.4293 24.7052 67.4076 25.8079C66.3732 26.149 60.9832 26.5515 60.3625 27.3567C60.2094 27.5916 60.1083 27.8566 60.0662 28.1339C56.2641 28.419 56.6723 28.4694 56.6275 28.3352C55.2074 23.9124 50.0913 19.4897 50.0913 19.4897C49.9739 19.3835 49.8565 19.4897 49.5993 19.6015C49.3068 18.7705 48.9322 17.9707 48.481 17.214C48.4917 17.0274 48.4285 16.8442 48.305 16.7039C48.1815 16.5636 48.0077 16.4777 47.8212 16.4648C48.3244 15.8665 47.4857 14.9104 46.3339 15.6988C46.1382 15.4136 45.9314 15.1396 45.7189 14.8377C45.8454 14.7569 45.9602 14.6591 46.06 14.547C46.1774 14.3345 45.5008 14.547 49.521 13.7921C50.2646 13.6412 53.5467 12.9758 53.994 12.8304C54.0447 12.8243 54.0918 12.8009 54.1274 12.7643C54.163 12.7277 54.185 12.68 54.1897 12.6291C54.9725 12.1986 54.1003 9.87262 53.7648 9.04511C55.157 7.6976 54.8831 6.24945 53.7033 5.8301C53.1596 5.66368 52.5827 5.63676 52.0259 5.75182C51.497 4.83825 50.7782 4.04887 49.918 3.43702C49.2861 3.09035 48.7997 3.30282 48.6543 3.63271C48.5089 3.9626 43.1301 10.3423 43.063 10.3814C42.0454 10.6722 40.5413 11.3096 40.0437 12.2433C38.8919 14.4296 41.1284 17.1134 43.309 16.2635L43.706 16.1349C43.9408 16.476 44.2316 16.8618 44.4888 17.2028C44.4399 17.2924 44.3987 17.3859 44.3658 17.4824C44.3043 17.6837 43.8961 18.2205 44.1645 18.7572C44.4329 19.294 46.2892 20.6024 46.8483 20.9546L46.7309 21.0161C46.6921 21.0323 46.661 21.0629 46.6444 21.1015C46.6277 21.1401 46.6266 21.1837 46.6414 21.223C46.9657 22.1735 48.7158 26.7249 47.8659 26.5459C46.6247 26.2776 43.555 25.0754 39.82 23.8565C37.768 23.1856 36.3926 22.537 34.5642 22.112C34.43 21.2342 34.279 20.9546 34.1448 20.2445C34.7484 19.9872 35.2594 19.5523 35.6098 18.9977C35.8111 18.6622 35.5762 18.7964 36.0012 18.8802C36.1391 18.9213 36.2876 18.9076 36.4157 18.842C36.5438 18.7764 36.6416 18.6639 36.6889 18.528C37.1921 18.7013 37.673 18.4162 37.5611 17.8291C37.919 17.8291 38.5788 17.8291 38.6794 17.2084C38.8304 16.4592 37.9022 16.1964 37.6674 15.9168C37.2444 15.3914 36.9394 14.7812 36.7728 14.1276C36.2136 12.3384 35.7775 9.31908 34.7934 8.17286C34.4854 7.83215 34.1066 7.56284 33.6836 7.38377C33.2606 7.2047 32.8036 7.1202 32.3446 7.13618C31.8855 7.15216 31.4355 7.26822 31.026 7.47626C30.6165 7.6843 30.2573 7.97929 29.9737 8.3406C29.6179 8.13905 29.2434 7.9724 28.8555 7.84298C28.3801 7.76541 27.8938 7.78696 27.4271 7.90627C26.9605 8.02559 26.5235 8.24008 26.1437 8.5363C24.3097 10.0963 25.2546 12.7801 24.019 15.6596C23.6332 16.5543 21.7098 18.4833 23.1188 19.2157C23.2642 19.2606 23.4191 19.265 23.5668 19.2286C23.7145 19.1921 23.8496 19.1162 23.9575 19.0088C23.9712 19.1534 24.013 19.294 24.0805 19.4226C24.2481 19.6233 24.4653 19.7769 24.7104 19.8681C24.9555 19.9592 25.2202 19.9849 25.4783 19.9426C25.6384 19.8897 25.7826 19.7974 25.8977 19.6742C25.9352 19.7903 26.0027 19.8945 26.0933 19.9761C26.5518 20.3396 27.111 20.306 27.5918 19.5792C27.6666 19.6847 27.7701 19.7666 27.89 19.8152C28.0099 19.8638 28.1412 19.8769 28.2684 19.8531V21.7039C27.9608 21.743 27.6533 21.7821 27.3458 21.838C27.32 21.8329 27.2934 21.8329 27.2675 21.838C23.8936 22.3333 20.7315 23.7825 18.1537 26.0148C15.5722 28.2104 13.4562 30.9004 11.9305 33.9265C10.583 36.8899 10.7284 37.9858 11.1925 40.0769C11.4782 41.2795 12.0261 42.4041 12.7972 43.3702C13.6471 44.522 14.961 45.9087 16.8621 47.9607C17.315 48.4471 17.8853 49.079 18.3661 49.5598C18.1089 50.734 16.2918 57.8294 16.398 59.2663C16.398 59.4117 16.5322 59.585 16.8229 59.7081C17.7753 59.9925 18.7596 60.1559 19.7528 60.1945C19.4229 72.0649 20.2672 87.6367 21.3128 99.194C21.2701 99.2086 21.2317 99.2336 21.2009 99.2666C21.0219 99.7597 21.0219 100.3 21.2009 100.793C21.2736 100.944 21.4134 100.933 21.7601 100.961C21.7601 101.677 21.8216 102.504 21.8663 103.225C21.7409 103.323 21.6283 103.435 21.5308 103.561C21.4917 103.65 21.4861 103.622 21.7377 105.087C21.565 105.562 21.4322 106.05 21.3407 106.547C21.2886 106.917 21.2569 107.291 21.2457 107.665C21.2444 107.865 21.3071 108.061 21.4246 108.224C22.1325 108.777 22.9256 109.211 23.7729 109.51C24.7192 109.359 25.6129 108.975 26.3729 108.392C26.4673 108.307 26.5395 108.201 26.5834 108.082C26.6273 107.963 26.6414 107.835 26.6245 107.71C26.5906 106.795 26.4345 105.888 26.1604 105.015C26.2722 104.536 26.3322 104.047 26.3394 103.555C26.3058 103.449 26.2443 103.399 25.9424 103.203C26.0151 102.51 26.0822 101.727 26.1325 101.039H26.8314C27.2731 101.011 27.1389 100.24 27.1613 99.6245C27.1613 99.4064 26.9488 99.3282 26.7475 99.2834L32.0481 65.1205C32.4339 67.2452 33.3453 72.5569 33.3397 74.7263C33.3397 75.2519 31.9922 92.585 31.6623 97.1252C31.6092 97.1374 31.5607 97.1645 31.5225 97.2035C31.3241 97.6814 31.283 98.2102 31.4051 98.7131C31.4666 98.8808 31.6232 98.8808 31.858 98.92C31.7741 99.7028 31.6958 100.541 31.6343 101.352C31.4107 101.352 31.3436 101.408 31.2709 101.615C31.0528 102.241 30.8292 104.461 31.2206 105.076C31.4834 105.484 40.3456 107.178 42.694 106.144C43.1636 105.931 43.1413 105.451 43.063 104.942C42.9288 104.025 39.1491 102.767 38.0308 102.219C37.9246 102.163 37.9469 102.18 37.9022 102.096C37.3431 101.078 37.1865 100.648 37.0244 100.569C36.8627 100.523 36.6926 100.513 36.5268 100.541C36.4876 100.156 36.4485 99.781 36.4037 99.3561C36.4969 99.3724 36.5928 99.3587 36.6777 99.317C36.9125 99.1492 36.8902 98.4447 36.9461 97.975C36.9528 97.9112 36.9348 97.8472 36.8958 97.7961C36.5938 97.3544 36.3366 99.2107 39.3504 88.6823C39.2497 89.8565 38.4222 99.2499 38.713 99.714C38.7968 99.8314 38.959 99.837 39.1603 99.8537C42.8673 100.228 89.9518 101.967 93.9049 102.012C94.5814 102.012 96.7005 102.057 96.9018 101.923C98.7805 100.782 102.974 34.9665 102.163 29.09ZM60.48 27.4629C61.0391 26.7081 66.9939 26.3726 67.5698 26.0427C67.6014 26.0285 67.6286 26.0058 67.6483 25.9773C67.668 25.9487 67.6795 25.9152 67.6816 25.8806C67.7088 24.7936 67.8857 23.7155 68.2072 22.6767C68.3859 22.1477 68.6789 21.6646 69.0655 21.2616C69.452 20.8586 69.9226 20.5457 70.4437 20.3452C71.9589 19.786 74.5365 20.2781 75.2802 21.62C75.7443 22.4419 75.7555 25.2879 76.2307 25.6849C76.706 26.0819 83.3037 25.9477 84.0586 26.7193C84.1043 26.811 84.1364 26.909 84.1536 27.01C84.3257 28.2295 84.3125 29.468 84.1145 30.6835C82.5881 31.293 63.8627 32.1317 60.9329 31.8018C60.5191 31.7571 60.4856 31.8018 60.3737 31.388C60.0998 30.5214 59.9879 28.1227 60.48 27.4629ZM46.0655 17.1581C46.1047 16.8338 45.9593 16.9848 46.2724 17.0519C46.228 17.1303 46.2032 17.2183 46.2001 17.3084C46.197 17.3985 46.2158 17.488 46.2548 17.5693C46.2938 17.6506 46.3518 17.7212 46.424 17.7752C46.4962 17.8292 46.5804 17.865 46.6694 17.8794C46.6167 17.9533 46.5848 18.04 46.5769 18.1305C46.5691 18.221 46.5856 18.3119 46.6247 18.3938C46.7589 18.6734 46.949 18.7125 47.2341 18.746C47.1232 18.8721 46.967 18.9492 46.7995 18.9607C46.632 18.9722 46.4667 18.9172 46.3395 18.8076C46.2892 18.7572 46.0432 18.4553 45.7189 18.0527C45.8836 17.776 46.0007 17.4736 46.0655 17.1581ZM48.0616 16.9456C48.1007 16.9676 48.1349 16.9972 48.1621 17.0327C48.1894 17.0683 48.2091 17.109 48.2201 17.1525C48.2311 17.1959 48.2331 17.2411 48.226 17.2853C48.219 17.3295 48.203 17.3719 48.1791 17.4097C47.9375 17.3843 47.6934 17.4013 47.4578 17.46C47.2062 17.516 46.7645 17.5551 46.6582 17.3874C46.5017 17.119 47.6479 16.6605 48.0616 16.9456ZM46.8819 15.8665C47.4913 15.6149 47.838 16.0399 47.7318 16.2691C47.3406 16.5222 46.8836 16.6544 46.4178 16.6493C46.3924 16.6488 46.3674 16.6431 46.3443 16.6326C46.3212 16.622 46.3005 16.6067 46.2836 16.5878C46.1606 16.4704 46.2445 16.3474 46.3507 16.2355C46.504 16.0814 46.6839 15.9563 46.8819 15.8665ZM45.9034 14.15C45.2157 13.1491 43.5439 10.9238 43.2755 10.4933L48.604 4.34281C48.7941 6.02021 50.6281 9.09543 51.5394 10.4933C51.5694 10.5311 51.6105 10.5584 51.6569 10.5715C52.1648 11.332 52.7916 12.0059 53.5132 12.5676C53.0771 12.6236 47.4801 13.8369 45.9034 14.15ZM53.5635 6.22149C53.7047 6.27062 53.8343 6.34842 53.944 6.45001C54.0538 6.5516 54.1413 6.67479 54.2012 6.81183C54.2611 6.94888 54.2919 7.09681 54.2919 7.24636C54.2918 7.3959 54.2609 7.54382 54.2009 7.68083C53.899 8.51393 53.0826 9.14016 52.3446 9.66575C52.1433 9.81671 51.9476 9.95649 51.7855 10.0627C51.0315 8.98992 50.3479 7.8693 49.739 6.70794C50.8797 6.36687 52.5235 5.79655 53.5635 6.22149ZM43.186 15.8833C41.3688 16.5934 39.4957 14.2842 40.3904 12.4223C40.7873 11.5836 42.2299 10.8902 43.1077 10.5771C43.337 10.9965 45.2716 13.8984 45.6015 14.4184C44.8492 14.9889 44.0397 15.4799 43.186 15.8833ZM44.0191 15.9448C44.5056 15.6708 45.0815 15.3018 45.5344 14.9831C45.7189 15.2794 45.909 15.6037 46.0935 15.9001C45.9955 15.976 45.9177 16.0749 45.867 16.188C45.8163 16.3011 45.7942 16.425 45.8027 16.5487C45.65 16.4684 45.4763 16.4371 45.3051 16.4592C45.0793 16.5048 44.8794 16.6348 44.746 16.8226L44.0191 15.9448ZM45.9425 19.9035C44.718 18.8355 44.6062 18.9194 44.4888 18.5951C44.3714 18.2708 44.7069 17.7955 44.7795 17.5942C44.9025 17.2364 45.2939 16.694 45.6182 16.9233C45.8363 17.0742 45.5288 17.9465 45.4505 18.1254C45.4201 18.1725 45.3957 18.2232 45.3778 18.2764C45.5848 18.5656 45.8069 18.8437 46.0432 19.1095C46.1742 19.2247 46.3303 19.3077 46.499 19.3518C46.6678 19.3959 46.8446 19.4 47.0152 19.3635C47.1858 19.3271 47.3455 19.2513 47.4816 19.1422C47.6177 19.033 47.7263 18.8935 47.7989 18.7349L48.0672 18.679C48.0894 18.6737 48.1089 18.6606 48.1223 18.6421C48.1356 18.6237 48.1419 18.601 48.1399 18.5783C48.1399 18.4329 47.8156 18.5783 47.3795 18.4218C47.1894 18.3658 47.0664 18.3491 47.0217 18.2316C46.921 17.9912 47.8044 17.7955 48.0784 17.8011C48.1517 17.7924 48.226 17.7983 48.297 17.8184C48.3681 17.8386 48.4344 17.8726 48.4922 17.9185C48.5481 17.9689 49.3476 19.4506 49.4539 19.6966L47.0608 20.8148C46.7421 20.608 46.3227 20.2501 45.9425 19.9035ZM47.8044 26.8143C47.861 26.8323 47.9205 26.8387 47.9795 26.8331C48.0386 26.8276 48.0959 26.8102 48.1481 26.782C48.2003 26.7538 48.2462 26.7154 48.2833 26.6691C48.3203 26.6228 48.3476 26.5695 48.3636 26.5124C48.6431 25.6737 47.5528 22.8109 47.0217 21.2398L49.9459 19.8643C50.6225 20.4738 54.9781 24.4716 56.225 28.4638C56.9407 30.7003 56.6667 32.9368 54.1226 34.5527C52.1676 35.7292 49.8951 36.2685 47.6199 36.0959C45.3424 35.9518 43.1093 35.3987 41.0278 34.4632C41.1116 33.2611 41.0837 30.5829 41.2906 29.1347C41.2925 29.1116 41.2859 29.0887 41.2721 29.0701C41.2583 29.0515 41.2382 29.0386 41.2156 29.0338C41.1929 29.029 41.1693 29.0326 41.1491 29.044C41.129 29.0554 41.1136 29.0737 41.106 29.0956C40.9454 29.5824 40.8257 30.0817 40.7482 30.5885C40.5975 31.9085 40.5788 33.2402 40.6923 34.5639C40.6476 34.6534 40.5805 34.1837 41.4136 42.0842C41.4136 42.1793 44.5335 55.8109 44.4496 57.6505C43.3314 58.2543 36.907 58.9253 35.5035 58.9532C35.0618 57.8741 32.6352 50.5662 32.255 49.4033C34.4915 38.3157 32.652 45.6571 35.8893 38.9195C37.0231 36.55 38.0345 34.1239 38.9198 31.6508C39.1345 31.081 39.3065 30.4961 39.4342 29.9007C39.479 29.8001 39.5405 29.6939 39.4342 29.5764L38.0029 27.6474C39.5237 23.8062 39.4734 24.0131 39.4678 23.918C43.0742 25.1537 46.5408 26.5292 47.8044 26.8143ZM41.162 35.0392C42.3741 35.5533 43.6347 35.9447 44.9249 36.2077C44.4496 39.4339 43.9017 43.7952 43.3258 48.7323C41.4247 39.6967 42.1125 44.5109 41.162 35.0392ZM23.9463 93.53C23.7785 97.8409 23.9463 97.6508 23.7618 97.6563C23.7375 97.6564 23.7141 97.6471 23.6965 97.6305C23.6788 97.6139 23.6681 97.5911 23.6667 97.5669C23.4487 92.6801 24.0357 83.4097 25.2043 60.3734H25.4168C25.0422 69.012 23.9854 92.4732 23.9463 93.53ZM27.6869 28.0556C26.3044 26.4926 25.0321 24.8354 23.8792 23.0961C24.9442 22.6959 26.0479 22.4073 27.1725 22.235C27.5415 23.0849 28.6598 26.2105 28.9729 27.0939L27.6981 28.0724L27.6869 28.0556ZM28.3522 22.1456C29.4258 23.2638 31.6623 25.3158 33.2223 25.4612C33.0601 25.724 32.0369 27.3846 31.8356 27.6251C31.2374 27.4294 28.7548 24.4548 28.3187 23.9404C28.1454 23.4763 27.8546 22.6823 27.6645 22.2294L28.3522 22.1456ZM26.3394 30.8233V30.7674C26.3394 30.745 27.4912 28.7321 27.603 28.5309C27.6533 28.4358 27.48 28.5924 29.0567 27.3008C31.707 34.8155 31.6176 35.5647 32.9707 40.5969C25.523 29.6435 26.3729 30.7674 26.3394 30.8233ZM32.3612 27.2784C32.4706 27.6776 32.6186 28.0652 32.8029 28.4358C32.9148 28.5588 32.5905 29.7498 32.0593 35.1007C31.1004 31.6352 29.9676 28.2201 28.6654 24.8685C29.1127 25.355 31.1032 27.5412 31.7126 27.776C31.7506 27.8004 31.7951 27.8124 31.8402 27.8104C31.8853 27.8084 31.9286 27.7925 31.9642 27.7648C32.0257 27.6978 32.1711 27.5021 32.35 27.2504L32.3612 27.2784ZM33.7758 41.7376C34.5195 38.3828 36.1186 30.3536 36.2919 26.9485L37.6338 27.8319C39.2329 30.0685 39.0876 29.8113 39.0764 29.9119C38.8695 31.1029 35.196 39.8309 33.7646 41.7096L33.7758 41.7376ZM37.5556 27.4685L36.3199 26.7081C36.4634 25.539 36.5455 24.3632 36.5659 23.1856C37.3431 23.4483 38.1482 23.7447 38.9031 24.0746C38.7689 24.3933 37.8072 26.8255 37.5556 27.4685ZM35.3638 30.6723C35.1965 29.8757 34.976 29.0912 34.704 28.324C34.7319 28.201 34.8494 27.6586 34.922 27.3175C35.0511 27.4622 35.1873 27.6003 35.3302 27.7313C35.47 27.8543 35.5818 27.927 35.7328 27.8543C35.6154 28.7936 35.4979 29.6883 35.3638 30.6723ZM36.0906 23.0234C36.0848 24.3321 35.9989 25.6392 35.8334 26.9373C35.7328 27.1386 35.6489 27.3008 35.5874 27.407C34.933 26.7816 34.3133 26.1208 33.7311 25.4277C34.7208 25.1537 34.7319 23.6161 34.6313 22.5873C35.1401 22.7103 35.6265 22.8445 36.0906 23.001V23.0234ZM29.258 19.1095C29.2916 19.0144 29.258 19.0424 29.3419 19.0592C29.6819 19.0951 30.0242 19.0175 30.3155 18.8385C30.6068 18.6594 30.8307 18.3891 30.9522 18.0695C31.0782 17.5192 31.0413 16.9441 30.846 16.4145C30.7622 16.1642 30.6968 15.9082 30.6503 15.6485C30.3707 14.5302 29.6886 13.4399 30.0017 12.344C30.0772 12.0458 30.2662 11.789 30.5283 11.6282C30.7905 11.4673 31.1051 11.4152 31.4051 11.4829C31.5576 11.5379 31.7053 11.6052 31.8468 11.6842C32.3221 11.9302 32.6631 12.1092 32.8868 11.8855C32.8868 11.8855 33.5633 11.2201 34.2064 11.3935C34.4636 11.4941 35.0674 12.7745 35.2016 13.4734C35.1008 13.3389 34.9531 13.2471 34.7878 13.2162C34.3294 13.1603 34.0107 13.5349 34.0778 13.6468C34.4519 13.7306 34.8429 13.6954 35.196 13.5461C35.3877 14.5992 35.4758 15.6685 35.4588 16.7388C35.1995 16.5704 34.9143 16.4457 34.6145 16.3697C34.3877 16.3621 34.1621 16.4061 33.9547 16.4983C33.732 16.4422 33.5021 16.4196 33.2726 16.4312C32.6296 16.5543 32.0984 17.2532 31.7741 17.5495C31.6288 17.6837 31.5225 18.0527 31.7741 18.2093C32.0257 18.3658 32.3892 18.0807 32.501 17.9521C32.9621 17.489 33.4636 17.068 33.9995 16.694C34.4619 16.9996 34.9397 17.2814 35.4309 17.5383C35.3672 17.8111 35.3464 18.0922 35.3693 18.3714C35.2385 18.7002 35.0393 18.9974 34.7848 19.2432C34.5303 19.489 34.2264 19.6779 33.8932 19.7972C33.8493 19.8111 33.8087 19.8336 33.7738 19.8636C33.7388 19.8935 33.7103 19.9303 33.6899 19.9715C33.6696 20.0128 33.6577 20.0578 33.6552 20.1037C33.6527 20.1497 33.6595 20.1957 33.6752 20.2389C33.787 20.9378 34.3238 22.3972 34.1616 23.8677C34.1113 24.3262 33.9659 24.9021 33.5074 24.9524C32.1655 25.1034 29.6718 22.7942 28.7269 21.8213V19.7022C28.978 19.567 29.168 19.341 29.258 19.0703V19.1095ZM28.6094 14.3457C28.7033 14.9383 28.7649 15.5356 28.794 16.1349C28.4752 16.2467 28.0503 15.8274 27.972 15.531C27.7931 14.916 27.9497 14.5246 28.6094 14.3457ZM16.8677 59.1881C16.8006 57.8517 18.4556 51.2875 18.7743 49.9232C18.9298 50.0903 19.1209 50.2203 19.3334 50.3035C19.3818 50.3089 19.4307 50.2995 19.4736 50.2765C19.5166 50.2536 19.5515 50.2181 19.5739 50.1749C19.613 50.1189 19.7472 49.9065 19.9429 49.6157C20.1052 49.9586 20.3331 50.2663 20.6139 50.5215C19.7807 51.2037 19.6018 51.1533 19.6745 51.2875C19.6853 51.3079 19.7035 51.3234 19.7254 51.3307C19.7472 51.338 19.7711 51.3365 19.7919 51.3267C22.1738 50.2755 23.3927 48.3689 23.5325 45.7018C23.5343 45.6798 23.5278 45.6579 23.5144 45.6403C23.501 45.6228 23.4815 45.6108 23.4598 45.6068C23.2697 45.6068 23.4039 46.0652 22.7833 47.6196C22.5037 47.3413 22.16 47.1358 21.7824 47.0214C21.8571 46.9237 21.9393 46.832 22.0285 46.7474C22.1571 46.7138 22.2297 46.5852 22.1571 46.4007C21.9725 45.9143 20.8263 43.9294 20.5356 43.4317C20.5387 43.4001 20.5387 43.3683 20.5356 43.3367C20.5691 42.5595 20.7536 41.184 20.927 39.7023C21.2614 36.7922 21.4164 33.8643 21.391 30.9351C21.3501 30.0844 21.1921 29.2434 20.9214 28.4358C20.9162 28.4121 20.9018 28.3914 20.8813 28.3783C20.8609 28.3652 20.8361 28.3607 20.8123 28.3659C20.7886 28.3711 20.7679 28.3855 20.7548 28.406C20.7417 28.4264 20.7373 28.4512 20.7425 28.4749C20.9158 29.705 21.0052 34.5807 21.0052 34.6925C20.4853 35.4809 18.0195 38.8245 18.0307 39.3445C18.0893 39.6574 18.187 39.9617 18.3214 40.2503C18.3214 40.3956 17.9803 39.4898 20.2448 43.6945C20.5412 44.2537 21.4526 45.931 21.693 46.4566C20.8227 47.5252 20.0179 48.6455 19.2831 49.8114C18.0251 48.805 14.2509 44.5556 13.1774 43.1018C12.4438 42.1878 11.9224 41.1221 11.651 39.9819C11.3542 39.02 11.2665 38.0058 11.3938 37.0073C11.9529 33.4009 15.5984 28.7713 18.4388 26.3838C20.0043 25.0406 21.7799 23.9639 23.6947 23.1967C24.0134 23.7559 24.6787 24.7176 25.3721 25.7128C27.4129 28.5588 27.4241 28.1283 27.3011 28.3408C26.9991 28.8999 26.0822 30.3648 25.9368 30.6947C25.8585 30.8792 25.2099 30.0517 33.0937 41.8047C32.8421 43.1689 30.08 58.4724 29.5041 59.7528C28.5312 60.1386 17.835 60.01 16.8677 59.1881ZM20.7313 50.4209C20.5037 50.0963 20.3335 49.7351 20.228 49.3529C20.5282 48.7802 20.882 48.2373 21.2848 47.7315C21.5252 47.4127 21.5141 47.3792 21.6762 47.3904C22.04 47.4417 22.3866 47.5777 22.6882 47.7874C22.2633 48.8209 21.5844 49.7306 20.7145 50.4321L20.7313 50.4209ZM20.1162 42.7049C19.7752 42.1457 18.5227 39.7806 18.4892 39.3501C18.724 38.7238 19.9708 36.834 21.0667 35.0224C20.9381 36.957 20.3343 40.2559 20.0994 42.716L20.1162 42.7049ZM26.1325 107.71C26.1324 107.793 26.1211 107.875 26.0989 107.956C26.089 107.976 26.0735 107.994 26.0542 108.006C25.4792 108.446 24.8295 108.78 24.1364 108.99C23.7562 109.107 23.7506 109.119 22.9175 108.733C22.464 108.534 22.0249 108.305 21.6035 108.045C21.4693 107.922 21.4525 107.519 21.4525 107.341C21.8387 107.693 22.2647 107.999 22.7218 108.252C23.5157 108.682 24.0581 108.761 25.2714 108.196C25.5729 108.061 25.8611 107.898 26.1325 107.71ZM25.6404 101.084C25.5901 101.704 25.5342 102.342 25.4783 102.912C25.0069 102.622 24.5155 102.366 24.0078 102.146C23.5269 102.023 22.6659 102.616 22.2633 102.912C22.2186 102.476 22.1738 101.928 22.09 100.978C22.7218 101.011 23.471 101.028 24.1028 101.034C25.8138 101.05 25.6516 101 25.6404 101.084ZM26.6525 100.525C26.5966 100.525 21.6706 100.609 21.4693 100.592C21.3086 100.199 21.2677 99.7668 21.3519 99.3505C21.4287 99.3297 21.5074 99.3166 21.5867 99.3114C23.2891 99.3215 24.9889 99.4448 26.6748 99.6804C26.6889 99.975 26.6815 100.27 26.6525 100.564V100.525ZM35.8782 99.3058C35.9173 99.7307 35.9508 100.172 35.99 100.603C35.7992 100.635 35.6119 100.686 35.4309 100.754C35.0003 100.983 35.3693 101.777 35.2296 101.956C34.704 101.895 32.9203 101.397 31.9754 101.335C32.009 100.581 32.0537 99.658 32.0928 98.9479C33.1999 99.1045 34.8158 99.2331 35.8782 99.3058ZM42.5877 105.149C42.5877 105.372 42.6325 105.613 42.4647 105.708C40.5134 106.575 32.2103 105.233 31.3995 104.903C31.3222 104.726 31.2767 104.536 31.2653 104.344C34.3517 104.864 40.0996 106.328 42.5877 105.149ZM36.3366 98.8864C36.2807 98.8864 31.7853 98.6013 31.6288 98.5733C31.5669 98.2869 31.5406 97.9939 31.5505 97.7011C31.5443 97.5722 31.5693 97.4437 31.6232 97.3265C32.2997 97.209 35.744 97.8856 36.4261 98.0477C36.412 98.3288 36.3821 98.6088 36.3366 98.8864ZM39.0988 74.8438C38.7465 76.5212 35.2631 93.6586 34.6928 96.2697C34.6852 96.2916 34.6699 96.3099 34.6497 96.3213C34.6296 96.3327 34.6059 96.3363 34.5833 96.3315C34.5606 96.3267 34.5405 96.3138 34.5267 96.2952C34.5129 96.2766 34.5063 96.2536 34.5083 96.2306C34.9668 93.8654 38.2601 76.5491 38.6403 74.7431C38.8192 73.8988 37.3151 60.7369 37.1362 59.3278H37.4325C38.2489 64.6061 39.2721 73.9883 39.0988 74.8438ZM96.5104 101.587C94.1453 101.772 39.5293 99.4791 39.0373 99.4176C38.9198 97.9471 39.7921 87.9945 39.9207 86.524C40.8153 83.3538 42.5206 77.1306 43.0239 73.8597C43.46 71.0025 42.694 64.6061 42.3138 61.7209C42.4256 60.6809 42.5318 59.6466 42.6437 58.6178C43.2884 58.5218 43.9229 58.3664 44.5391 58.1537C44.7069 58.0754 44.8746 57.9692 44.8914 57.7902C44.9976 56.795 43.7731 51.0136 43.5886 50.0127C44.2036 44.5668 44.8243 39.7638 45.2995 36.2637C48.4139 36.8228 51.6625 36.6271 54.3575 34.9161C56.9518 33.2723 57.3712 31.0022 56.7506 28.7321C57.785 28.6315 58.8753 28.5365 60.0047 28.447C59.8817 29.3472 59.9041 31.5222 60.3793 31.8968C61.2795 32.6125 82.5154 31.7682 84.271 31.0693C84.3575 31.0393 84.4307 30.98 84.4779 30.9016C84.7463 30.3872 84.7239 28.2345 84.6457 27.4294C86.3846 27.4294 100.86 27.3175 101.895 28.7098C103.063 30.2865 98.3388 101.408 96.5104 101.559V101.587Z" fill="black"/>
<path d="M57.5781 60.5077C57.5166 60.1219 57.388 60.0492 57.1755 59.9877C56.0572 59.6634 49.5657 59.2944 49.0178 59.6634C48.4698 60.0324 47.3907 64.321 47.7709 65.6517C47.8069 65.7285 47.859 65.7968 47.9236 65.8518C47.9882 65.9067 48.0639 65.9472 48.1455 65.9704C49.4707 66.5295 55.8727 67.0495 56.5661 66.6581C57.2594 66.2668 57.7402 61.5645 57.5781 60.5077ZM56.5661 65.8474C56.5195 66.0014 56.4518 66.1482 56.3648 66.2835C55.9175 66.5351 48.9507 66.1605 48.1232 65.5399C47.7485 64.293 48.6823 60.1163 49.124 59.8088C49.5657 59.5013 56.4375 60.0883 57.1531 60.407C57.3824 61.3408 56.9071 64.7795 56.5661 65.8474ZM55.1962 70.6839C54.6371 70.2534 47.3683 69.9067 46.8092 70.2645C46.2501 70.6224 45.1821 74.8886 45.5623 76.2529C45.5992 76.3291 45.6516 76.3968 45.7161 76.4517C45.7806 76.5065 45.8558 76.5474 45.937 76.5716C47.2733 77.1307 52.7975 77.55 54.0891 77.3376C54.1735 77.3344 54.2561 77.3121 54.3307 77.2724C54.4053 77.2327 54.4698 77.1766 54.5196 77.1083C55.0732 76.3423 55.7833 71.1592 55.1962 70.6839ZM54.1562 76.8791C53.6977 77.1363 46.7701 76.7617 45.9146 76.1354C45.54 74.8886 46.4737 70.7118 46.9154 70.4043C47.3572 70.0968 54.2904 70.7063 54.939 71.0026C55.2185 72.0482 54.5252 76.6722 54.1562 76.8791ZM53.899 81.0278C53.3399 80.6029 46.0711 80.2506 45.512 80.6085C44.9529 80.9663 43.8849 85.2269 44.2652 86.5856C44.3011 86.6625 44.3532 86.7307 44.4178 86.7857C44.4825 86.8406 44.5582 86.8811 44.6398 86.9043C45.9761 87.4634 51.5003 87.8828 52.7919 87.6703C52.8768 87.6665 52.9597 87.6433 53.0343 87.6026C53.1089 87.5619 53.1732 87.5048 53.2224 87.4355C53.7704 86.6974 54.4917 81.5087 53.899 81.0278ZM53.0547 86.7925C53.0547 86.8596 52.9149 87.1951 52.8534 87.223C52.3949 87.4802 45.4673 87.1 44.6118 86.4794C44.2428 85.2381 45.1709 81.0614 45.6127 80.7483C46.0544 80.4352 52.9205 81.0278 53.6418 81.3465C53.8654 82.2523 53.4349 85.6127 53.0547 86.7925Z" fill="black"/>
<path d="M54.7768 61.5254C53.7759 62.4759 52.8869 63.5774 52.2383 63.9911C52.0091 64.1421 51.8916 64.1924 51.6792 64.0806C51.333 63.8619 51.039 63.5699 50.8181 63.2251C50.8053 63.2091 50.7874 63.1979 50.7674 63.1935C50.7474 63.1891 50.7265 63.1917 50.7081 63.2008C50.6898 63.21 50.6751 63.2252 50.6667 63.2439C50.6582 63.2625 50.6564 63.2836 50.6616 63.3034C50.8492 63.751 51.1569 64.1379 51.5506 64.4217C51.6935 64.4957 51.8549 64.5261 52.0149 64.5092C52.175 64.4923 52.3265 64.4288 52.4508 64.3266C52.907 64.0102 53.3189 63.6341 53.6753 63.2084C54.1104 62.709 54.5155 62.1844 54.8886 61.6372C54.9007 61.6314 54.9112 61.6228 54.9193 61.6121C54.9274 61.6014 54.9328 61.5889 54.9351 61.5757C54.9374 61.5625 54.9364 61.5489 54.9324 61.5361C54.9283 61.5233 54.9212 61.5117 54.9118 61.5022C54.9023 61.4927 54.8906 61.4856 54.8779 61.4816C54.8651 61.4775 54.8515 61.4766 54.8383 61.4788C54.825 61.4811 54.8126 61.4865 54.8019 61.4946C54.7912 61.5027 54.7826 61.5133 54.7768 61.5254ZM52.5794 72.1209C51.3717 73.2671 50.2254 74.7209 49.6943 74.7433C49.529 74.7115 49.376 74.634 49.2525 74.5196C48.6599 74.0331 48.6599 73.7033 48.5145 73.7871C48.5039 73.7919 48.4943 73.7988 48.4865 73.8074C48.4787 73.816 48.4727 73.8262 48.4691 73.8372C48.4654 73.8483 48.464 73.86 48.4651 73.8715C48.4662 73.8831 48.4697 73.8944 48.4753 73.9046C48.6822 74.3854 49.1743 75.129 49.6999 75.1402C50.3708 75.1402 51.4667 73.899 51.8637 73.4013C52.2607 72.9037 52.5514 72.4452 52.708 72.2327C52.7228 72.2157 52.7303 72.1934 52.7287 72.1709C52.7271 72.1484 52.7166 72.1274 52.6996 72.1125C52.6825 72.0977 52.6603 72.0903 52.6377 72.0918C52.6152 72.0934 52.5942 72.1039 52.5794 72.1209ZM51.2766 82.4649C50.0912 83.5831 48.9171 85.0648 48.3971 85.0816C48.2286 85.0546 48.0724 84.9765 47.9498 84.8579C47.3515 84.3715 47.3906 84.0472 47.2117 84.1255C47.2014 84.1313 47.1923 84.1391 47.185 84.1485C47.1777 84.1578 47.1723 84.1685 47.1692 84.18C47.1661 84.1914 47.1652 84.2034 47.1668 84.2151C47.1683 84.2269 47.1722 84.2382 47.1782 84.2485C47.3794 84.7293 47.8715 85.473 48.4027 85.4842C49.0736 85.4842 50.1695 84.2429 50.5609 83.7453C50.9523 83.2476 51.2542 82.7892 51.4052 82.5767C51.4835 82.4928 51.3549 82.381 51.2766 82.4649ZM94.2794 63.4767C92.4734 63.3705 63.0911 62.1348 61.2292 62.0565C61.2099 62.0615 61.1929 62.0727 61.1807 62.0883C61.1685 62.104 61.1619 62.1233 61.1619 62.1432C61.1619 62.1631 61.1685 62.1824 61.1807 62.1981C61.1929 62.2138 61.2099 62.2249 61.2292 62.2299C63.1246 62.3529 93.0494 63.6165 94.285 63.6501C94.3042 63.6446 94.3209 63.6328 94.3326 63.6167C94.3443 63.6006 94.3503 63.5811 94.3496 63.5612C94.349 63.5413 94.3418 63.5222 94.329 63.5069C94.3163 63.4916 94.2989 63.481 94.2794 63.4767ZM92.0821 74.0779C90.2761 73.9716 60.8937 72.736 59.0318 72.6521C59.0186 72.6487 59.0047 72.6484 58.9914 72.6512C58.978 72.6539 58.9655 72.6597 58.9547 72.6681C58.9439 72.6765 58.9352 72.6872 58.9292 72.6994C58.9232 72.7117 58.9201 72.7251 58.9201 72.7388C58.9201 72.7524 58.9232 72.7659 58.9292 72.7781C58.9352 72.7903 58.9439 72.8011 58.9547 72.8094C58.9655 72.8178 58.978 72.8236 58.9914 72.8264C59.0047 72.8291 59.0186 72.8288 59.0318 72.8254C60.9272 72.9484 90.8464 74.2121 92.0821 74.2512C92.1013 74.2463 92.1184 74.2351 92.1305 74.2194C92.1427 74.2037 92.1493 74.1844 92.1493 74.1645C92.1493 74.1447 92.1427 74.1254 92.1305 74.1097C92.1184 74.094 92.1013 74.0828 92.0821 74.0779ZM90.7793 84.4218C88.9733 84.3156 59.5909 83.0799 57.729 82.996C57.7097 83.001 57.6927 83.0122 57.6805 83.0278C57.6683 83.0435 57.6617 83.0628 57.6617 83.0827C57.6617 83.1026 57.6683 83.1219 57.6805 83.1376C57.6927 83.1533 57.7097 83.1644 57.729 83.1694C59.6189 83.2924 89.5436 84.556 90.7793 84.5896C90.8015 84.5896 90.8229 84.5807 90.8386 84.565C90.8543 84.5493 90.8632 84.5279 90.8632 84.5057C90.8632 84.4834 90.8543 84.4621 90.8386 84.4464C90.8229 84.4307 90.8015 84.4218 90.7793 84.4218ZM94.0278 67.4354C92.2218 67.3347 62.8395 66.0935 60.9831 66.0152C60.9699 66.0118 60.9561 66.0115 60.9428 66.0143C60.9294 66.017 60.9169 66.0228 60.9061 66.0312C60.8953 66.0396 60.8866 66.0503 60.8806 66.0625C60.8746 66.0748 60.8715 66.0882 60.8715 66.1019C60.8715 66.1155 60.8746 66.129 60.8806 66.1412C60.8866 66.1535 60.8953 66.1642 60.9061 66.1725C60.9169 66.1809 60.9294 66.1867 60.9428 66.1895C60.9561 66.1922 60.9699 66.1919 60.9831 66.1885C62.873 66.3115 92.7977 67.5752 94.0334 67.6087C94.0525 67.6032 94.0693 67.5915 94.081 67.5754C94.0927 67.5593 94.0987 67.5398 94.098 67.5199C94.0974 67.5 94.0902 67.4809 94.0774 67.4656C94.0647 67.4503 94.0473 67.4397 94.0278 67.4354ZM91.8416 78.0365C90.0356 77.9303 60.6532 76.6946 58.7913 76.6163C58.6795 76.6163 58.6683 76.7785 58.7913 76.7897C60.6868 76.9127 90.6115 78.1707 91.8472 78.2099C91.8663 78.2044 91.8831 78.1926 91.8948 78.1765C91.9065 78.1604 91.9125 78.1409 91.9118 78.121C91.9112 78.1011 91.9039 78.082 91.8912 78.0667C91.8785 78.0514 91.8611 78.0408 91.8416 78.0365ZM90.5388 88.3805C88.7384 88.2742 59.3561 87.0386 57.4942 86.9547C57.4704 86.9547 57.4477 86.9641 57.4309 86.9809C57.4141 86.9977 57.4047 87.0204 57.4047 87.0442C57.4047 87.0679 57.4141 87.0906 57.4309 87.1074C57.4477 87.1242 57.4704 87.1336 57.4942 87.1336C59.3896 87.251 89.3088 88.5147 90.5444 88.5538C90.5636 88.5483 90.5803 88.5366 90.592 88.5205C90.6037 88.5044 90.6097 88.4848 90.6091 88.465C90.6084 88.4451 90.6012 88.426 90.5885 88.4107C90.5757 88.3954 90.5583 88.3848 90.5388 88.3805ZM62.4928 55.2407C62.6661 55.1401 62.7444 54.8214 62.7947 54.6089C63.5328 51.6175 64.3827 37.9188 64.2037 37.1472C64.1885 37.0957 64.1595 37.0493 64.1199 37.013C63.8012 36.7223 62.0399 36.6887 61.4304 36.6719C58.2378 36.5937 50.8069 36.8341 50.7231 36.9124C50.5162 37.164 47.4354 53.5745 47.8156 54.6872C48.1958 55.7999 61.1732 55.9844 62.4928 55.2407ZM48.179 54.5362C48.1749 54.4766 48.1749 54.4169 48.179 54.3573C48.1837 54.3752 48.1943 54.391 48.2089 54.4023C48.2236 54.4136 48.2416 54.4197 48.2601 54.4197C48.2786 54.4197 48.2966 54.4136 48.3112 54.4023C48.3259 54.391 48.3364 54.3752 48.3412 54.3573C48.5794 53.4395 49.0491 52.5982 49.7054 51.9139C50.4564 51.0746 51.4235 50.4576 52.5011 50.1303C52.9886 50.7625 53.5192 51.3603 54.089 51.9195C54.2176 52.0145 54.3686 51.9195 54.5252 51.8468C55.0843 53.2614 54.8159 51.433 54.5252 55.2016C53.6921 55.1736 48.9003 54.9891 48.179 54.5362ZM54.4916 48.0056C54.1796 47.8817 53.8996 47.6893 53.6721 47.4424C53.4446 47.1956 53.2756 46.9008 53.1777 46.5798C53.1182 46.3357 53.0808 46.0868 53.0658 45.8361C53.2598 46.0926 53.5304 46.2807 53.8383 46.3732C54.1463 46.4657 54.4757 46.4579 54.7789 46.3508C55.0821 46.2437 55.3434 46.0429 55.5249 45.7775C55.7065 45.5121 55.7989 45.1958 55.7888 44.8744H55.8894C55.7383 45.3838 55.6722 45.9147 55.6937 46.4456C55.6961 46.524 55.7172 46.6006 55.7552 46.6692C55.923 46.8817 56.0907 46.8761 56.3759 46.8314C56.3983 46.8302 56.4196 46.8211 56.436 46.8058C56.4523 46.7904 56.4627 46.7698 56.4653 46.7475C56.4653 46.6189 56.2417 46.6748 56.0851 46.5183C56.0851 46.3282 56.1466 45.6852 56.1522 45.523C56.1522 44.8185 56.0125 44.8968 56.2137 44.8968C56.1751 45.17 56.2132 45.4485 56.3238 45.7013C56.4344 45.9541 56.6131 46.1711 56.84 46.3282C57.1116 46.5047 57.4307 46.594 57.7545 46.584C58.0783 46.5741 58.3914 46.4652 58.6516 46.2722C58.6516 46.3449 58.5956 46.4288 58.5509 46.5406C58.3985 47.0439 58.0962 47.4886 57.6843 47.8154C57.0301 48.2739 56.6107 48.1118 56.6555 48.4193C56.7225 48.861 56.8735 49.1741 56.9686 49.8283C56.4778 50.1238 56.0054 50.4487 55.554 50.8012C55.1223 50.4012 54.6667 50.0277 54.1897 49.6829C54.4133 48.5144 54.8047 48.1453 54.4916 48.0056ZM56.2976 44.5333C56.2801 44.581 56.2652 44.6295 56.2529 44.6787C56.181 44.6304 56.0963 44.6046 56.0097 44.6046C55.923 44.6046 55.8383 44.6304 55.7664 44.6787C55.7551 44.5157 55.7082 44.3571 55.629 44.2141C55.5498 44.0711 55.4402 43.9472 55.3079 43.8512C54.9573 43.6273 54.5498 43.5089 54.1338 43.5101C53.8378 43.4966 53.5478 43.5966 53.323 43.7897C53.4808 43.0662 53.9062 42.4291 54.514 42.0061C55.5651 41.3519 57.1978 41.4805 57.8688 42.5205C58.0199 42.7304 58.1334 42.965 58.2043 43.2138C58.2411 43.4041 58.2935 43.5911 58.3608 43.7729C58.2399 43.7223 58.1114 43.692 57.9806 43.6835C57.2537 43.6331 56.4765 43.8065 56.2976 44.5445V44.5333ZM54.8886 45.9256C54.752 45.9952 54.6028 46.0368 54.4499 46.048C54.297 46.0591 54.1434 46.0397 53.9981 45.9907C53.8528 45.9418 53.7188 45.8643 53.6038 45.7629C53.4888 45.6614 53.3953 45.5381 53.3286 45.4C53.1385 44.6843 53.4349 43.8792 54.1394 43.8736C56.2697 43.8009 55.6322 45.6516 54.8886 45.9256ZM57.9862 44.0413C58.6907 44.1196 58.892 44.9583 58.6348 45.6516C58.5529 45.7805 58.4464 45.892 58.3213 45.9796C58.1961 46.0672 58.0549 46.1291 57.9058 46.1618C57.7566 46.1946 57.6024 46.1975 57.4521 46.1704C57.3018 46.1432 57.1584 46.0867 57.0301 46.0039C56.3088 45.6572 55.8279 43.7394 57.975 44.0413H57.9862ZM59.1045 44.6004L59.2442 44.5222C59.5629 44.7626 59.6189 45.1707 59.0765 45.6404C59.1688 45.3181 59.1784 44.9778 59.1045 44.6508V44.6004ZM52.4899 44.3321C52.5348 44.2883 52.595 44.2639 52.6577 44.2639C52.7203 44.2639 52.7805 44.2883 52.8254 44.3321C52.8521 44.3559 52.8851 44.3714 52.9205 44.3768C52.8252 44.6825 52.806 45.0069 52.8645 45.3217C52.4676 45.0813 52.1488 44.6955 52.4899 44.3544V44.3321ZM56.6834 51.6008C56.4161 51.4191 56.1603 51.2212 55.9174 51.0081L57.5501 49.6829C57.6787 49.778 58.0309 50.0408 58.221 50.2029C57.2929 51.036 56.9015 51.433 56.6834 51.6175V51.6008ZM55.1626 50.9634C54.8715 51.1536 54.5711 51.329 54.2624 51.4889C54.1058 51.3268 52.7807 49.8675 52.7807 49.8675C52.9987 49.7221 53.4125 49.4873 53.5579 49.409L55.1626 50.9634ZM56.566 55.2743C56.5638 54.3789 56.453 53.4871 56.2361 52.6184C56.6051 51.8971 56.4038 52.0593 56.6163 52.1096C56.6444 52.1222 56.6749 52.1288 56.7058 52.1288C56.7366 52.1288 56.7671 52.1222 56.7952 52.1096C57.3511 51.6387 57.8707 51.1266 58.3496 50.5776C60.2563 51.4218 61.7603 52.8141 62.2635 54.8717C62.1126 55.2743 57.0636 55.2743 56.566 55.2743ZM50.8517 37.0522C52.2551 37.013 62.5431 36.7446 63.8515 37.2702C63.9801 38.3885 62.9904 52.227 62.381 54.4859C61.861 52.5289 60.4296 51.1311 58.5845 50.2644C58.6683 50.0799 58.467 49.9681 57.5948 49.4873C57.5814 49.4788 57.5659 49.4743 57.5501 49.4743C57.5342 49.4743 57.5187 49.4788 57.5053 49.4873L57.2873 49.6214C57.2034 49.0623 57.1195 48.9002 57.0468 48.5032C57.3852 48.4193 57.7025 48.2662 57.9787 48.0535C58.2549 47.8408 58.484 47.5732 58.6516 47.2675C58.8571 46.9041 59.0132 46.5148 59.1156 46.1101C59.8145 45.6292 60.2003 44.9583 59.6748 44.3097C59.8257 44.0749 59.932 43.8847 59.8201 43.6331C59.8675 43.5614 59.8978 43.4796 59.9084 43.3943C59.9191 43.309 59.9099 43.2223 59.8816 43.1411C59.8549 43.0299 59.8135 42.9227 59.7586 42.8224C59.8155 42.7297 59.8528 42.6264 59.868 42.5187C59.8833 42.411 59.8763 42.3014 59.8475 42.1965C59.8187 42.0917 59.7686 41.9939 59.7004 41.9092C59.6322 41.8245 59.5474 41.7547 59.4511 41.7041C59.4738 41.5679 59.4621 41.4281 59.4174 41.2974C59.3726 41.1668 59.296 41.0493 59.1945 40.9556C59.093 40.8618 58.9698 40.7948 58.836 40.7606C58.7022 40.7263 58.5619 40.7258 58.4279 40.7592C58.3799 40.6322 58.2964 40.5216 58.1875 40.4405C58.0974 40.3647 57.9933 40.3073 57.881 40.2718C57.7687 40.2363 57.6506 40.2234 57.5333 40.2336C57.1084 40.2672 57.2873 40.4014 57.1978 40.1833C57.1516 40.0784 57.0711 39.9924 56.9694 39.9396C56.8677 39.8867 56.7511 39.8701 56.6387 39.8925C56.4594 39.9054 56.288 39.9716 56.1466 40.0826C55.9792 39.944 55.7686 39.8681 55.5512 39.8681C55.3338 39.8681 55.1232 39.944 54.9557 40.0826C54.8718 40.1721 54.9165 40.1497 54.8439 40.1218C54.6605 40.0744 54.4681 40.0744 54.2847 40.1218C54.1748 40.1459 54.0721 40.1953 53.9847 40.2662C53.8973 40.3371 53.8277 40.4274 53.7815 40.53C53.6909 40.5134 53.5981 40.5134 53.5075 40.53C53.3255 40.5956 53.162 40.704 53.0306 40.8461C52.8992 40.9882 52.8039 41.1597 52.7527 41.3463C52.7498 41.3891 52.7498 41.4321 52.7527 41.4749C52.6479 41.5355 52.547 41.6027 52.4508 41.6762C52.3456 41.8025 52.2765 41.955 52.2509 42.1174C52.2253 42.2798 52.2442 42.4462 52.3054 42.5987C52.1759 42.6906 52.0797 42.8221 52.0314 42.9734C52.0023 43.1645 52.0336 43.36 52.1209 43.5325C52.1538 43.5791 52.1893 43.6239 52.2271 43.6667L52.1712 43.7338C52.1348 43.8311 52.1348 43.9384 52.1712 44.0357C52.0777 44.145 52.0125 44.2756 51.9813 44.416C51.9501 44.5564 51.9539 44.7023 51.9923 44.8409C52.1195 45.1853 52.3499 45.4821 52.6521 45.6907C52.6521 45.8193 52.6521 46.0374 52.7024 46.2499C52.7561 46.6907 52.9221 47.1104 53.1845 47.4687C53.4469 47.827 53.7968 48.112 54.2009 48.2963C54.0706 48.6623 53.9623 49.0357 53.8766 49.4146C53.6361 49.2356 53.6026 49.1909 53.5411 49.2245C52.6521 49.5767 52.4228 49.6829 52.4228 49.7836C50.1136 50.5272 48.5089 52.6296 48.1958 54.2566C48.2126 51.7909 50.5945 37.8964 50.8517 37.0522ZM96.9689 46.4064C96.8906 46.3226 69.1241 46.1492 69.0682 46.1548C69.0445 46.1548 69.0217 46.1642 69.0049 46.181C68.9881 46.1978 68.9787 46.2206 68.9787 46.2443C68.9787 46.1884 68.7663 48.766 69.0514 48.9337C69.8062 49.3587 94.3745 49.7668 96.6054 49.5488C96.7024 49.55 96.797 49.5185 96.8738 49.4593C97.282 49.0399 97.2708 46.6636 96.9689 46.4064ZM69.085 46.3282H69.1185C69.1185 46.3282 69.0905 46.3561 69.085 46.3282ZM96.5942 49.1238C95.3194 49.286 70.5219 49.0679 69.1968 48.7604C69.1184 47.9515 69.1184 47.137 69.1968 46.3282L96.734 46.7922C96.8389 47.5711 96.7914 48.363 96.5942 49.1238ZM97.036 41.7153C96.9577 41.6314 69.1912 41.4581 69.1353 41.4637C69.112 41.465 69.09 41.4749 69.0735 41.4914C69.057 41.5079 69.0472 41.5299 69.0458 41.5532C69.0458 41.4973 68.8278 44.0749 69.1185 44.2426C69.9181 44.7011 94.559 45.0645 96.6725 44.8576C96.7695 44.8589 96.8641 44.8274 96.9409 44.7682C97.3491 44.3488 97.3323 41.9725 97.036 41.7153ZM69.1521 41.637H69.1856C69.2192 41.637 69.1576 41.6706 69.1521 41.637ZM96.6613 44.4327C95.4592 44.5948 70.6002 44.3768 69.2639 44.0637C69.1883 43.2566 69.1883 42.4441 69.2639 41.637L96.8011 42.1011C96.9032 42.8783 96.8557 43.6678 96.6613 44.4271V44.4327ZM97.0975 37.2087C97.0533 37.1732 96.9975 37.1552 96.9409 37.1584C96.9409 37.1584 69.4652 36.9459 69.2974 36.9515C69.2136 36.9515 69.0961 36.9515 69.1017 37.0466C69.1017 36.9907 68.8893 39.5682 69.1744 39.736C69.8677 40.1274 96.5719 40.6921 96.9968 40.2616C97.4218 39.831 97.3826 37.4659 97.0975 37.2087ZM69.208 37.1304H69.2415C69.2751 37.1304 69.2136 37.1584 69.208 37.1304ZM96.7173 39.9261C95.4368 40.0882 70.5219 39.859 69.3198 39.5571C69.233 38.751 69.2218 37.9386 69.2862 37.1304L96.8235 37.5945C96.9385 38.3694 96.9024 39.1593 96.7173 39.9205V39.9261ZM73.8599 54.3293C74.1898 54.1448 74.2234 53.8541 74.0668 53.6696C73.6238 53.3853 73.1271 53.195 72.6075 53.1104C72.5582 52.6117 72.381 52.134 72.0931 51.7238C71.534 51.2206 71.1705 52.3724 70.9748 53.0937C70.5052 53.1328 69.4708 53.267 69.3925 53.7311C69.3925 53.8932 69.5043 53.9939 69.6497 54.0665C69.9793 54.1989 70.3174 54.3091 70.6617 54.3964C70.2144 54.8661 69.208 55.9564 69.8342 56.0738C70.192 56.1521 71.1426 55.5818 71.5955 55.4811C72.0148 55.716 72.9206 56.4484 73.2729 56.2024C73.6251 55.9564 73.1219 55.1624 72.8367 54.6201C73.1853 54.5518 73.5275 54.4545 73.8599 54.3293ZM79.1997 54.5809C79.5351 54.402 79.5687 54.1113 79.4065 53.9268C78.9678 53.638 78.472 53.4473 77.9528 53.3676C77.9034 52.8671 77.7263 52.3877 77.4384 51.9754C76.8793 51.4778 76.5158 52.6296 76.3201 53.3509C75.8505 53.39 74.8161 53.5186 74.7378 53.9883C74.7098 54.1448 74.8496 54.2511 74.995 54.3237C75.3239 54.4529 75.6599 54.5631 76.0014 54.6536C75.5597 55.1177 74.5477 56.2136 75.1739 56.331C75.5317 56.4093 76.5102 55.8334 76.9352 55.7719C77.3769 56.0179 78.2659 56.7336 78.6126 56.4876C78.9592 56.2416 78.4616 55.4476 78.182 54.9052C78.5312 54.8312 78.8721 54.7226 79.1997 54.5809ZM84.763 54.7878C85.0929 54.6033 85.1265 54.3126 84.9699 54.1336C84.5284 53.8463 84.031 53.6557 83.5106 53.5745C83.4638 53.0752 83.2864 52.5969 82.9962 52.1879C82.437 51.6846 82.0736 52.8365 81.8779 53.5577C81.4082 53.6025 80.3738 53.7311 80.3011 54.1951C80.3011 54.3573 80.413 54.4635 80.5583 54.5306C80.8859 54.6651 81.2221 54.7772 81.5648 54.8661C81.1231 55.3302 80.111 56.4261 80.7373 56.5435C81.0951 56.6218 82.0456 56.0515 82.4985 55.9508C82.9179 56.1912 83.8237 56.9181 84.1759 56.6721C84.5282 56.4261 84.0194 55.6321 83.7398 55.0898C84.0891 55.0193 84.4314 54.9182 84.763 54.7878ZM90.5668 55.0059C90.9023 54.827 90.9302 54.5306 90.7737 54.3517C90.3322 54.0644 89.8348 53.8738 89.3144 53.7926C89.266 53.2945 89.0908 52.8171 88.8055 52.4059C88.2464 51.9027 87.8774 53.0601 87.6873 53.7758C87.2176 53.8205 86.1832 53.9491 86.1105 54.4188C86.0826 54.5754 86.2224 54.6816 86.3677 54.7543C86.6966 54.8835 87.0326 54.9936 87.3742 55.0842C86.9325 55.5482 85.9204 56.6441 86.5466 56.7616C86.8989 56.8398 87.8774 56.2639 88.3079 56.1689C88.7329 56.4093 89.6275 57.1362 89.9853 56.8902C90.3432 56.6441 89.8344 55.8502 89.5548 55.3078C89.9008 55.2388 90.2396 55.1377 90.5668 55.0059ZM89.046 55.2016C89.046 55.4085 89.5492 56.0906 89.6722 56.5323C89.5716 56.4876 89.4318 56.3981 89.3199 56.3366C88.4253 55.8614 88.4589 55.7048 88.0899 55.8334C87.8047 55.934 86.8598 56.4429 86.6082 56.4876C86.6642 56.3045 86.7512 56.1325 86.8654 55.9788C87.4804 55.0674 87.7823 55.0562 87.3965 54.8605C87.0284 54.7521 86.6753 54.5981 86.3454 54.402C86.446 54.1448 87.4636 54.0721 87.8103 54.0665C88.006 54.0665 87.9389 53.9156 88.252 53.1775C88.3223 52.9945 88.4162 52.8216 88.5316 52.6631C88.6374 52.8172 88.7133 52.9898 88.7552 53.1719C88.9621 53.882 88.8503 54.0777 89.0851 54.128C89.5427 54.2187 89.9863 54.3691 90.4047 54.5754C90.317 54.6392 90.2185 54.6865 90.1139 54.7151C89.4206 54.922 89.0292 54.8997 89.046 55.2016ZM96.3091 54.279C95.9218 54.1091 95.5193 53.9762 95.107 53.882C95.0517 53.5299 94.958 53.1849 94.8274 52.8532C94.5926 52.2941 94.2123 52.1879 93.9104 52.6911C93.7184 53.0654 93.5665 53.459 93.4575 53.8653C93.0772 53.8919 92.7017 53.9651 92.3393 54.0833C92.0206 54.2063 91.7466 54.4635 91.9199 54.6872C92.2864 54.9303 92.6997 55.0941 93.1332 55.168C92.7999 55.5127 92.4986 55.887 92.233 56.2863C91.9758 56.7336 92.1324 57.0076 92.6971 56.8454C93.1276 56.7112 93.7427 56.3813 94.067 56.2863C94.3465 56.4429 95.1852 57.0747 95.5822 57.0579C95.6225 57.0594 95.6628 57.0527 95.7004 57.0382C95.738 57.0236 95.7723 57.0015 95.8011 56.9732C95.8299 56.945 95.8526 56.9111 95.8678 56.8737C95.8831 56.8364 95.8905 56.7963 95.8897 56.756C95.7853 56.2823 95.5959 55.8314 95.3306 55.4252C95.6798 55.3569 96.0222 55.2577 96.3538 55.1289C96.7117 54.9276 96.8235 54.5418 96.3091 54.279ZM94.9672 55.0953C94.5534 55.291 95.2635 55.9396 95.4592 56.6497C95.202 56.5323 94.2739 55.9564 94.2068 55.9285C93.9048 55.7999 93.2003 56.3254 92.5685 56.5435L92.4008 56.605C92.63 56.0925 92.9458 55.6234 93.3345 55.2184C93.5526 54.9779 92.3616 54.8046 92.1324 54.5418C92.1771 54.4244 92.479 54.3405 92.5965 54.3126C93.4128 54.1225 93.6868 54.3126 93.7595 54.0777C93.8908 53.6307 94.0787 53.2023 94.3186 52.8029C94.5343 53.2005 94.6656 53.6383 94.7044 54.0889C94.7379 54.3237 94.9336 54.2287 95.7276 54.5083C95.8921 54.5577 96.0498 54.6272 96.1973 54.7151C96.0016 54.8605 95.2467 54.9612 94.9672 55.0953ZM71.6905 25.3719C72.2948 25.4207 72.8949 25.2366 73.3679 24.8575C74.7713 23.605 72.8088 21.2231 70.863 22.5035C69.3422 23.5044 70.2703 25.316 71.6905 25.3719ZM71.0699 22.8446C71.4499 22.5665 71.9228 22.4463 72.3894 22.5091C72.6226 22.5431 72.8448 22.6304 73.0388 22.7642C73.2327 22.898 73.3932 23.0748 73.5077 23.2807C73.8879 24.371 72.8759 25.0252 71.7017 24.9581C70.6785 24.9022 69.9516 23.6106 71.0699 22.8446ZM23.6555 49.9793C23.5437 49.9346 23.6555 49.9793 22.8503 50.7956C22.0452 51.612 21.2959 52.0593 21.3686 52.1935C21.4413 52.3276 22.1179 51.9922 22.2297 51.9307C22.589 51.7055 22.9131 51.4286 23.1914 51.1087C23.3871 50.8795 23.8624 50.0687 23.6555 49.9793ZM32.2885 14.0606C32.3164 13.9265 31.9418 13.809 31.6678 13.8426C31.064 13.9209 30.8124 14.4017 30.941 14.4856C31.4121 14.4263 31.8686 14.2823 32.2885 14.0606ZM33.6416 16.135C33.8001 16.1954 33.9718 16.2128 34.1392 16.1853C34.2138 16.1711 34.2856 16.1446 34.3517 16.1071C34.4189 16.0761 34.475 16.0251 34.512 15.961C34.5491 15.8969 34.5653 15.8229 34.5586 15.7492C34.5586 15.2348 33.8429 14.0998 33.6528 14.2228C33.5857 14.2619 33.6024 14.2899 33.7087 14.6421C33.7768 14.883 33.8627 15.1185 33.9659 15.3466C34.025 15.48 34.0718 15.6185 34.1057 15.7604C33.9896 15.8676 33.843 15.936 33.6863 15.9561C33.6746 15.9532 33.6623 15.9526 33.6504 15.9544C33.6384 15.9561 33.6269 15.9603 33.6165 15.9665C33.6061 15.9727 33.5971 15.9809 33.5898 15.9907C33.5826 16.0004 33.5774 16.0114 33.5745 16.0232C33.5715 16.0349 33.571 16.0472 33.5727 16.0591C33.5745 16.0711 33.5786 16.0826 33.5849 16.093C33.5911 16.1034 33.5993 16.1124 33.609 16.1197C33.6188 16.1269 33.6298 16.1321 33.6416 16.135ZM33.4515 18.2933C33.4888 18.3788 33.5445 18.4551 33.6146 18.5167C33.6847 18.5783 33.7675 18.6238 33.8571 18.6499C33.9467 18.6761 34.0409 18.6822 34.1331 18.6679C34.2254 18.6536 34.3133 18.6193 34.3908 18.5672C34.4121 18.5585 34.4295 18.5424 34.4397 18.5218C34.45 18.5013 34.4525 18.4777 34.4467 18.4554C34.402 18.3268 34.2902 18.489 34.005 18.3268C33.946 18.291 33.8967 18.241 33.8616 18.1815C33.8265 18.122 33.8066 18.0548 33.8037 17.9858C33.8069 17.9134 33.8255 17.8425 33.8583 17.7779C33.8911 17.7133 33.9373 17.6564 33.9938 17.6111C34.0446 17.5842 34.1013 17.5701 34.1588 17.5701C34.2163 17.5701 34.2729 17.5842 34.3237 17.6111C34.4132 17.6838 34.5138 17.544 34.4244 17.4769C33.8876 16.8563 33.1328 17.6447 33.4515 18.2933ZM34.7598 42.2241C34.6286 42.2265 34.5001 42.2614 34.3856 42.3257C34.2712 42.3899 34.1745 42.4816 34.1041 42.5924C34.0338 42.7031 33.992 42.8296 33.9825 42.9605C33.973 43.0914 33.9961 43.2226 34.0497 43.3424C34.4188 44.086 35.688 43.8121 35.6656 43.0069C35.6609 42.8949 35.6333 42.785 35.5845 42.684C35.5357 42.583 35.4667 42.4931 35.3819 42.4198C35.297 42.3465 35.1981 42.2913 35.0911 42.2576C34.9841 42.224 34.8714 42.2126 34.7598 42.2241ZM35.2463 43.1802C35.2397 43.2349 35.2224 43.2878 35.1953 43.3358C35.1683 43.3838 35.1321 43.426 35.0887 43.4601C35.0453 43.4941 34.9957 43.5192 34.9426 43.534C34.8896 43.5488 34.8341 43.5531 34.7794 43.5465C34.7247 43.5399 34.6718 43.5225 34.6238 43.4955C34.5758 43.4685 34.5336 43.4322 34.4996 43.3889C34.4656 43.3455 34.4405 43.2959 34.4256 43.2428C34.4108 43.1898 34.4066 43.1343 34.4132 43.0796C34.4132 43.0285 34.4233 42.9778 34.4431 42.9307C34.4628 42.8835 34.4917 42.8407 34.5281 42.8048C34.5646 42.7689 34.6078 42.7406 34.6552 42.7215C34.7027 42.7025 34.7534 42.6931 34.8046 42.6938C34.869 42.6869 34.9341 42.6949 34.9948 42.7174C35.0555 42.7398 35.1103 42.776 35.1547 42.8231C35.1991 42.8702 35.232 42.927 35.2508 42.9889C35.2696 43.0509 35.2738 43.1164 35.2631 43.1802H35.2463ZM34.6089 46.015C34.4771 46.016 34.3477 46.05 34.2325 46.1139C34.1173 46.1778 34.0199 46.2696 33.9493 46.3808C33.8786 46.492 33.837 46.6192 33.8282 46.7506C33.8194 46.8821 33.8436 47.0136 33.8988 47.1333C34.2622 47.8658 35.537 47.6086 35.5147 46.7978C35.5091 46.6861 35.481 46.5766 35.4319 46.476C35.3829 46.3754 35.3139 46.2858 35.2292 46.2126C35.1446 46.1395 35.0459 46.0842 34.9393 46.0503C34.8327 46.0163 34.7203 46.0043 34.6089 46.015ZM35.0953 46.9712C35.0971 47.0315 35.0859 47.0916 35.0626 47.1473C35.0393 47.203 35.0044 47.2531 34.9602 47.2943C34.916 47.3355 34.8635 47.3668 34.8063 47.3861C34.7491 47.4053 34.6884 47.4122 34.6283 47.4062C34.5682 47.4002 34.51 47.3814 34.4578 47.3512C34.4055 47.321 34.3602 47.2799 34.3251 47.2308C34.2899 47.1817 34.2656 47.1257 34.2538 47.0664C34.242 47.0072 34.243 46.9461 34.2566 46.8873C34.2581 46.7845 34.3 46.6863 34.3732 46.6141C34.4465 46.5419 34.5452 46.5015 34.648 46.5015C34.7096 46.4979 34.7713 46.5077 34.8287 46.5304C34.8862 46.553 34.938 46.5879 34.9805 46.6326C35.0231 46.6773 35.0554 46.7308 35.0753 46.7892C35.0951 46.8477 35.1019 46.9098 35.0953 46.9712ZM32.2605 14.8155C32.2605 14.9049 32.2941 14.9944 32.3276 15.1845C32.3337 15.2209 32.3469 15.2558 32.3666 15.287C32.3862 15.3183 32.4118 15.3454 32.442 15.3667C32.4721 15.388 32.5062 15.4032 32.5422 15.4112C32.5783 15.4193 32.6156 15.4202 32.6519 15.4137C32.7243 15.4014 32.789 15.361 32.8319 15.3014C32.8748 15.2418 32.8925 15.1676 32.8812 15.095C32.8812 14.9944 32.8308 14.8546 32.8197 14.754C32.8115 14.6798 32.7742 14.612 32.716 14.5653C32.6578 14.5186 32.5835 14.497 32.5093 14.5052C32.4352 14.5133 32.3673 14.5506 32.3207 14.6088C32.274 14.667 32.2524 14.7413 32.2605 14.8155ZM34.676 14.7428C34.6854 14.8085 34.7184 14.8685 34.7688 14.9117C34.8192 14.9549 34.8836 14.9783 34.9499 14.9776C34.9905 14.9772 35.0304 14.9682 35.0672 14.9511C35.1039 14.934 35.1366 14.9094 35.163 14.8787C35.1895 14.848 35.2091 14.812 35.2206 14.7732C35.232 14.7343 35.2351 14.6935 35.2295 14.6533C35.1848 14.4073 35.1736 14.3793 35.1624 14.3123C35.1535 14.2381 35.1155 14.1705 35.0568 14.1244C34.9981 14.0783 34.9234 14.0573 34.8493 14.0662C34.7752 14.0751 34.7076 14.1131 34.6614 14.1718C34.6153 14.2306 34.5944 14.3052 34.6033 14.3793C34.6201 14.4576 34.6424 14.5471 34.676 14.7428ZM43.0126 50.7006C43.0797 50.7677 43.186 50.667 43.1189 50.5999C41.7658 48.9729 41.4415 47.329 41.6819 45.2714C41.685 45.2606 41.6855 45.2492 41.6835 45.2381C41.6814 45.2271 41.6768 45.2166 41.67 45.2077C41.6633 45.1987 41.6545 45.1914 41.6444 45.1864C41.6343 45.1814 41.6233 45.1787 41.612 45.1787C41.6008 45.1787 41.5897 45.1814 41.5796 45.1864C41.5695 45.1914 41.5607 45.1987 41.554 45.2077C41.5472 45.2166 41.5426 45.2271 41.5405 45.2381C41.5385 45.2492 41.539 45.2606 41.5421 45.2714C40.9718 47.3458 41.3688 49.2133 43.0126 50.7006Z" fill="black"/>
<path d="M54.4413 44.6506C54.368 44.6428 54.2945 44.6642 54.2369 44.7103C54.1793 44.7564 54.1423 44.8234 54.1338 44.8967V45.2657C54.1338 45.3398 54.1633 45.4109 54.2157 45.4634C54.2681 45.5158 54.3392 45.5453 54.4134 45.5453C54.4875 45.5453 54.5586 45.5158 54.6111 45.4634C54.6635 45.4109 54.693 45.3398 54.693 45.2657V44.9693C54.6984 44.9317 54.6962 44.8934 54.6863 44.8567C54.6765 44.82 54.6593 44.7857 54.6357 44.7559C54.6122 44.726 54.5828 44.7013 54.5494 44.6832C54.516 44.6651 54.4792 44.654 54.4413 44.6506ZM57.4998 45.5844C57.5358 45.5891 57.5724 45.5866 57.6074 45.577C57.6425 45.5674 57.6753 45.5509 57.7039 45.5285C57.7325 45.5062 57.7564 45.4783 57.7741 45.4466C57.7919 45.415 57.8032 45.3801 57.8073 45.344V44.9805C57.8073 44.9064 57.7779 44.8353 57.7254 44.7828C57.673 44.7304 57.6019 44.701 57.5278 44.701C57.4541 44.7024 57.3838 44.7323 57.3317 44.7844C57.2795 44.8366 57.2496 44.9068 57.2482 44.9805V45.2769C57.2443 45.3136 57.2478 45.3508 57.2584 45.3862C57.269 45.4216 57.2865 45.4545 57.3098 45.4831C57.3332 45.5117 57.3621 45.5354 57.3947 45.5528C57.4273 45.5701 57.463 45.5809 57.4998 45.5844ZM55.1738 47.4966C55.631 47.6417 56.1172 47.6706 56.5884 47.5805C56.6443 47.5805 56.6387 47.491 56.5884 47.4966L56.2362 47.4463C55.8882 47.4174 55.5385 47.4174 55.1906 47.4463C55.1347 47.4016 55.1179 47.491 55.1738 47.4966Z" fill="black"/>
</svg>
